<?xml version="1.0" encoding="utf-8"?>
<!-- Generator: Adobe Illustrator 19.1.0, SVG Export Plug-In . SVG Version: 6.00 Build 0)  -->
<svg version="1.1" id="Capa_1" xmlns="http://www.w3.org/2000/svg" xmlns:xlink="http://www.w3.org/1999/xlink" x="0px" y="0px"
	 viewBox="-439 22.2 443.2 443.2" style="enable-background:new -439 22.2 443.2 443.2;" xml:space="preserve">
<style type="text/css">
	.st0{fill:#85A838;stroke:#231F20;stroke-width:4.25;stroke-miterlimit:10;}
	.st1{fill:#567C13;stroke:#231F20;stroke-width:4.25;stroke-miterlimit:10;}
	.st2{fill:#2B6466;stroke:#231F20;stroke-width:4.25;stroke-miterlimit:10;}
	.st3{fill:#FFCE00;stroke:#231F20;stroke-width:4.25;stroke-miterlimit:10;}
</style>
<path class="st0" d="M-155.4,240.6h-242.5c-4.3,0-7.9,3.6-7.9,7.9v71.7c0,4.3,3.6,7.9,7.9,7.9h242.5c4.3,0,7.9-3.5,7.9-7.9v-71.7
	C-147.5,244.1-151,240.6-155.4,240.6z M-276.6,301.9h-103.5v-41.4h103.5L-276.6,301.9L-276.6,301.9L-276.6,301.9z"/>
<path class="st1" d="M-155.4,345.3h-242.5c-4.3,0-7.9,3.5-7.9,7.9v71.7c0,4.3,3.6,7.9,7.9,7.9h242.5c4.3,0,7.9-3.6,7.9-7.9v-71.7
	C-147.5,348.8-151,345.3-155.4,345.3z M-276.6,409.7h-103.5v-41.4h103.5L-276.6,409.7L-276.6,409.7L-276.6,409.7z"/>
<path class="st2" d="M-36.9,168.2h-89.9v48.1c0,6.4-2,12.2-5.5,17c3.4,4.8,5.5,10.7,5.5,17v5.3h89.9c4.3,0,7.9-3.5,7.9-7.9V176
	C-29,171.7-32.6,168.2-36.9,168.2z"/>
<path class="st3" d="M-155.4,134.9h-242.5c-4.3,0-7.9,3.6-7.9,7.9v71.7c0,4.3,3.6,7.9,7.9,7.9h242.5c4.3,0,7.9-3.6,7.9-7.9v-71.7
	C-147.5,138.4-151,134.9-155.4,134.9z M-276.6,197.3h-103.5v-41.4h103.5L-276.6,197.3L-276.6,197.3L-276.6,197.3z"/>
<path class="st2" d="M-36.9,62.5h-242.5c-4.3,0-7.9,3.6-7.9,7.9v45h25.7V83.5h103.5v31.9h2c16.2,0,29.3,13.2,29.3,29.3v5.3h89.9
	c4.3,0,7.9-3.6,7.9-7.9V70.4C-29,66-32.6,62.5-36.9,62.5z"/>
<path class="st2" d="M-36.9,272.9h-89.9v49.1c0,6.1-1.9,11.8-5.1,16.5c3.2,4.7,5.1,10.4,5.1,16.5v5.3h89.9c4.3,0,7.9-3.6,7.9-7.9
	v-71.7C-29,276.4-32.6,272.9-36.9,272.9z"/>
</svg>
