<?xml version="1.0" encoding="utf-8"?>
<!-- Generator: Adobe Illustrator 19.1.0, SVG Export Plug-In . SVG Version: 6.00 Build 0)  -->
<svg version="1.1" id="Capa_1" xmlns="http://www.w3.org/2000/svg" xmlns:xlink="http://www.w3.org/1999/xlink" x="0px" y="0px"
	 viewBox="-638 221.6 45.8 45.8" style="enable-background:new -638 221.6 45.8 45.8;" xml:space="preserve">
<style type="text/css">
	.st0{fill:#85A838;stroke:#000000;stroke-width:0.8;stroke-miterlimit:10;}
	.st1{fill:#363D4F;}
</style>
<g>
	<g>
		<path class="st0" d="M-613.9,225.5c-0.3-0.3-0.8-0.5-1.2-0.5c-0.4,0-0.9,0.2-1.2,0.5l-9.1,9.2c-0.4,0.5-0.6,1.1-0.3,1.7
			c0.2,0.6,0.8,1,1.5,1l3,0l0,13c0,1.3,1.1,2.3,2.3,2.3h7.9c1.3,0,2.3-1,2.3-2.3l0-13l3,0c0.6,0,1.2-0.4,1.5-1
			c0.2-0.6,0.1-1.3-0.3-1.7L-613.9,225.5z"/>
		<path class="st1" d="M-595.6,241c-1.6,0-2.9,1.3-2.9,2.9v16.4c0,0.7-0.5,1.2-1.2,1.2h-30.8c-0.7,0-1.2-0.5-1.2-1.2v-16.4
			c0-1.6-1.3-2.9-2.9-2.9c-1.6,0-2.9,1.3-2.9,2.9v16.4c0,3.9,3.1,7.1,7,7.1h30.8c3.9,0,7.1-3.2,7.1-7.1v-16.4
			C-592.6,242.3-593.9,241-595.6,241z"/>
	</g>
</g>
</svg>
