<?xml version="1.0" encoding="utf-8"?>
<!-- Generator: Adobe Illustrator 19.1.0, SVG Export Plug-In . SVG Version: 6.00 Build 0)  -->
<svg version="1.1" id="Layer_1" xmlns="http://www.w3.org/2000/svg" xmlns:xlink="http://www.w3.org/1999/xlink" x="0px" y="0px"
	 viewBox="-227 37.4 867.1 414" style="enable-background:new -227 37.4 867.1 414;" xml:space="preserve">
<style type="text/css">
	.st0{fill:#2F72D3;}
	.st1{fill:#577D38;}
	.st2{fill:#363D4F;}
	.st3{fill:#86A83E;}
	.st4{fill:#85A838;}
	.st5{fill:#CDCCCC;stroke:#231F20;stroke-miterlimit:10;}
	.st6{fill:#567C13;}
</style>
<g>
	<g>
		<ellipse class="st0" cx="78.6" cy="292.2" rx="16" ry="16"/>
		
			<ellipse transform="matrix(0.5536 -0.8328 0.8328 0.5536 -126.1525 232.0813)" class="st1" cx="153.4" cy="233.7" rx="32.1" ry="32.6"/>
		<ellipse class="st1" cx="1.8" cy="267.3" rx="16" ry="16"/>
		<ellipse class="st2" cx="4.2" cy="202.3" rx="16" ry="16"/>
		<ellipse class="st3" cx="-56.6" cy="166" rx="16" ry="16"/>
		
			<ellipse transform="matrix(0.5536 -0.8328 0.8328 0.5536 -271.8842 240.8525)" class="st3" cx="88.7" cy="374" rx="20.6" ry="20.1"/>
		
			<ellipse transform="matrix(0.5536 -0.8328 0.8328 0.5536 -108.3245 124.0481)" class="st3" cx="61.5" cy="163.1" rx="13.1" ry="12.9"/>
		<path class="st4" d="M216,284.5c-5.5-5.7-14.7-3.8-17.6,3.5c-1.4,3.7-0.6,8,2.2,10.9c5.5,5.7,14.7,3.8,17.6-3.5
			C219.7,291.6,218.8,287.3,216,284.5z"/>
		<ellipse class="st1" cx="194.3" cy="346.9" rx="10.5" ry="10.5"/>
		<path class="st5" d="M242.4,290.8c-0.3-4.4-0.7-8.9-2-13.4c-1.7,0.8-3.6,1.5-5.5,1.9c-2.6,0.5-5.4,0.7-7.6,0.4
			c-1.7-2.7-4-5.1-6.7-6.9c-6.7-4.4-15.1-4.9-22.1-1.4c-2.1-1.2-4.2-2.8-6.1-4.7c-1.6-1.6-3.1-3.7-4.2-5.7c0.8-0.9,1.5-1.9,2.1-2.9
			c13.5-20.2,7.9-47.6-12.3-61s-47.6-7.9-61,12.3c-9.2,13.9-9.9,32-1.4,46.4c-2.2,2.6-5.2,5.3-8.4,7.7c-3.4,2.4-7.2,4.6-10.5,5.9
			c-0.3,0.2-0.6,0.2-1,0.3l-3.3-2.2c-12.3-8.2-28.4-4.4-36.2,8.2c-0.6,1-1.3,1.9-1.9,3.2c-3.7-0.6-8-1.8-12-3.5
			c-4.2-1.7-8.4-3.9-11.4-6.2c-0.6-0.4-1-0.7-1.3-1.1c0.3-9.6-4.4-18.6-12.3-23.9c-2.5-1.7-5.5-3.1-8.6-3.7
			c-0.3-1.6-0.5-3.6-0.6-5.3c0.1-1.7,0.5-3.8,1.1-5.4c7.6-1.3,14.2-5.7,18.4-12c4.8-7.2,6.1-16.2,3.2-24.4c1.7-2.3,4.3-4.7,7-6.6
			c2.3-1.6,5.1-3,7.6-3.9c0.7,0.1,1.6,0.2,2.3,0.3c11.3,7.8,27,4.8,34.7-6.8c7.5-11.3,4.5-26.8-6.9-34.4c-11.3-7.5-26.6-4.4-34.3,7
			c-4.2,6.4-5.3,14.1-2.9,21.3c-1.7,2.3-4.3,4.7-7,6.6c-2.7,1.9-5.7,3.4-8.5,4.2c-1-0.9-1.9-1.7-2.8-2.3c-10.6-7.1-24.8-6-34.2,2.6
			c-2.7-0.6-5.8-1.6-8.6-3.3c-2.6-1.6-5.1-3.4-6.8-5.1c3.4-12.6-2.4-25.9-14.6-31.9c-10.5-5.2-23.5-2.9-31.6,5.5
			c-12.3,12.7-9.6,32.9,4.4,42.2c10.9,7.2,25.3,5.8,34.5-3.4c2.5,0.5,5.6,1.7,8.3,3.2c2.5,1.5,4.8,3.2,6.5,4.9
			c-3.8,11.9,0.6,25.1,11.1,32.1c2.1,1.4,4.3,2.4,6.8,3.3c0.5,1.7,0.7,3.9,0.7,5.8c-0.1,2-0.5,4.1-1.4,6c-9,2.5-16.4,9.1-19.4,18.6
			c-3.2,10.4,0.1,21.9,8.4,28.9c12.7,10.8,31.8,8,40.8-5.3c0.1,0.1,0.4,0,0.5,0.1c3.7,0.6,8.3,1.9,12.5,3.6
			c4.2,1.7,8.4,3.9,11.4,6.2c0.7,0.5,1.3,1.1,1.9,1.5c0.6,8.6,5.1,16.3,12.3,21.1c3.1,2.1,6.5,3.5,10.1,4.1c0.2,0.3,0.2,0.6,0.4,0.9
			c1.4,3.2,2.3,7.3,2.9,11.3c0.6,4.1,0.6,8.3,0,11.6c0,0.2,0,0.4-0.1,0.8c-6.1,2.5-11.3,6.6-15,12.1c-9.9,14.9-5.9,35,9.1,45
			c15.8,10.5,37.6,5.4,46.8-12.1c7.3-13.9,3.3-31.4-9.2-40.9c-4.9-3.7-10.6-5.9-16.8-6.3c-0.1-0.1,0-0.2-0.2-0.3
			c-1.4-3.2-2.3-7.3-2.9-11.3c-0.6-4.1-0.6-8.3,0-11.6c0.1-0.1,0-0.2,0-0.4c5.6-2,10.1-5.7,13.4-10.7c5-7.5,6-17,2.8-25.5
			c0.1-0.1,0.3-0.4,0.5-0.7c2.3-2.8,5.5-5.8,8.9-8.2c3.4-2.4,7.2-4.6,10.5-5.9l0.2,0c1.5,1.2,2.9,2.4,4.5,3.4
			c9.8,6.5,21.7,8.9,33.2,6.6c5.7-1.1,10.8-3.4,15.5-6.4c2.1,1.2,4.2,2.8,5.9,4.6c1.8,1.8,3.4,4.1,4.5,6.1
			c-5.4,10.4-1.7,23.5,8.6,29.6c0,0,0,0,0,0.1c0.1,2.3-0.3,4.7-0.8,7c-0.6,2.5-1.8,4.9-3.1,6.9c-6.8,0.4-13.1,4-16.8,9.6
			c-6.7,10.1-4,23.5,6.1,30.2c10.1,6.7,23.6,3.8,30.2-6.1c6.6-9.9,4-23.3-5.8-30c-0.1-2.3,0.2-5.2,0.8-7.6c0.8-2.7,2-5.4,3.4-7.3
			c6.5-0.8,12.3-4.3,15.9-9.8c2.1-3.1,3.3-6.8,3.7-10.4c2-1.1,4.5-2.1,6.9-2.7C239.4,291.1,240.9,290.9,242.4,290.8z M-63.9,179.6
			c-8.6-4.7-10.9-15.9-4.7-23.6c4.7-5.8,13.1-7.5,19.6-4c8.6,4.7,10.9,15.9,4.7,23.6C-48.9,181.5-57.4,183.2-63.9,179.6z
			 M-1.7,217.4c-10.8-4.2-13.7-18.1-5.7-26.4c4.7-4.8,12-6.2,18.1-3.5c9.8,4.4,12.8,17,5.7,25.3C12.1,218,4.7,219.9-1.7,217.4z
			 M51,155.9c4.3-6.8,13.8-8,19.8-2c3.6,3.6,4.8,9.2,2.8,14c-3.3,7.8-12.5,10.3-19.1,5.9C48.7,169.8,47.1,161.8,51,155.9z
			 M-4.4,281.6c-9.6-4.2-12.5-16-6.2-24.1c4.6-5.9,13-7.7,19.5-4.2c9.1,4.8,11.5,16.9,4.4,24.6C8.9,282.8,1.6,284.3-4.4,281.6z
			 M100.1,356.9c9.3,6.2,12,19,5.7,28.5c-6.3,9.5-19.2,12-28.5,5.7c-9.3-6.2-12-19-5.7-28.5C77.8,353.3,90.6,350.6,100.1,356.9z
			 M68.6,304.7c-6-4.7-7.7-13.4-4.1-20.1c5.1-9.5,18.2-11.3,25.7-3.3c4.5,4.8,5.6,12.2,2.6,18.1C88.3,308.5,76.6,311,68.6,304.7z
			 M159.9,265.6c-11.7,2.2-23.8-1.8-32.1-12.1c-5.6-7-7.9-16.2-6.1-25.1c5-24.3,31.4-33.3,49.6-21.2c14.7,9.8,18.8,29.8,9,44.5
			C175.6,258.9,168.3,263.8,159.9,265.6z M200.8,299c-3.1-3.1-3.9-8.1-1.9-12c3-6,10.5-7.8,15.9-3.7c3.6,2.7,5,7.6,3.5,11.8
			C215.6,302.6,206.2,304.6,200.8,299z M197.8,337.6c6.9,2.6,8.6,11.4,3.3,16.5c-2.7,2.6-6.7,3.4-10.2,2.1
			c-6.9-2.6-8.6-11.4-3.3-16.5C190.3,337.1,194.3,336.3,197.8,337.6z"/>
	</g>
	<ellipse class="st4" cx="340.9" cy="244.3" rx="16" ry="16"/>
	
		<ellipse transform="matrix(0.9717 0.2364 -0.2364 0.9717 81.5952 -91.2523)" class="st6" cx="421.4" cy="294.7" rx="32.1" ry="32.6"/>
	<ellipse class="st0" cx="338.1" cy="163.7" rx="16" ry="16"/>
	<ellipse class="st2" cx="400" cy="143.7" rx="16" ry="16"/>
	<ellipse class="st0" cx="413.4" cy="74.2" rx="16" ry="16"/>
	<ellipse class="st0" cx="417.6" cy="416.6" rx="16" ry="16"/>
	
		<ellipse transform="matrix(0.9717 0.2364 -0.2364 0.9717 74.1689 -55.2273)" class="st2" cx="267.4" cy="281.7" rx="20.6" ry="20.1"/>
	
		<ellipse transform="matrix(0.9717 0.2364 -0.2364 0.9717 56.4853 -102.676)" class="st0" cx="456.5" cy="184.2" rx="13.1" ry="12.9"/>
	<ellipse class="st0" cx="385.6" cy="366.1" rx="10.5" ry="10.5"/>
	<ellipse class="st2" cx="329" cy="371.7" rx="10.5" ry="10.5"/>
	<path class="st5" d="M441.7,422.4c3.2-13.2-4.9-26.7-18.2-30c-4-1-8.2-0.9-12.1,0.2c-1.7-1.5-3.7-3.5-5.1-5.8c-1.4-2.3-2.5-4.8-3-7
		c2-2.5,3.4-5.5,4.2-8.6c1.9-7.8-0.5-15.9-6.2-21.3c0.4-2.4,1.2-5,2.3-7.3c1-2,2.4-4.1,3.9-5.9c1.1,0.4,2.3,0.7,3.4,1
		c23.6,5.7,47.4-8.8,53.2-32.4c5.7-23.6-8.8-47.4-32.4-53.2c-16.2-3.9-33.5,1.7-44.1,14.5c-3.2-1.1-6.8-3-10.1-5.3
		c-3.4-2.4-6.8-5.2-9.1-7.8c-0.3-0.2-0.4-0.5-0.7-0.9c0.1-0.5,0.3-1.2,0.4-1.7c3.6-14.9-5.6-30.1-20.5-33.7
		c-0.8-0.2-1.7-0.4-2.7-0.5c-0.7-3.7-1-8.1-0.8-12.4c0.2-4.5,0.8-9.2,1.9-12.8c0.2-0.7,0.3-1.2,0.6-1.6c9.1-3,16-10.5,18.3-19.7
		c0.7-3,1-6.2,0.5-9.3c1.4-0.9,3.2-1.7,4.8-2.3c1.7-0.5,3.7-0.8,5.4-0.8c3.8,6.7,10.2,11.4,17.6,13.2c8.4,2,17.3,0.2,24-5.3
		c2.8,0.8,5.9,2.5,8.6,4.4c2.7,1.9,5.2,4.4,7.1,6.8c-0.1,0.5-0.3,1.2-0.4,1.7c-3.2,13.2,4.9,26.7,18.2,30c13.2,3.2,26.7-4.9,30-18.2
		c3.2-13.2-4.9-26.6-18.3-29.8c-7.4-1.8-15-0.2-21,4.5c-2.8-0.8-5.9-2.5-8.6-4.4c-2.7-1.9-5.1-4.2-6.8-6.6c0.5-1.3,0.9-2.4,1.2-3.4
		c3-12.4-2.8-25.3-14.1-31.2l0,0c-0.4-2.7-0.5-6.1,0.1-9.2c0.6-3,1.4-5.9,2.5-8.1c11.8-1,21.5-9.3,24.3-20.9
		c3.6-14.7-5.5-29.7-20.2-33.3c-14.7-3.6-29.7,5.5-33.3,20.2c-3.1,12.7,3.2,25.8,15,31.3c0.4,2.6,0.3,5.9-0.2,8.9
		c-0.5,2.8-1.4,5.6-2.4,7.8c-12.5,0.5-23.4,9.2-26.4,21.4c-0.6,2.5-0.8,4.9-0.8,7.5c-1.5,1-3.5,2-5.2,2.6c-1.9,0.6-4.1,0.9-6.1,0.8
		c-3.9-5.5-9.6-9.5-16.2-11.1c-14.7-3.6-29.7,5.5-33.3,20.2c-3.6,14.7,5.4,29.7,19.9,33.4c0,0.2,0.1,0.4,0,0.5
		c0.7,3.7,1.1,8.5,0.9,13c-0.2,4.5-0.8,9.2-1.9,12.8c-0.2,0.8-0.6,1.6-0.7,2.3c-7.9,3.5-13.5,10.4-15.6,18.8
		c-0.9,3.6-1.1,7.3-0.4,10.9c-0.2,0.3-0.5,0.4-0.7,0.7c-2.5,2.4-6,4.7-9.6,6.6c-3.6,1.9-7.6,3.4-10.9,4c-0.2,0.1-0.4,0.1-0.7,0.2
		c-4.4-4.9-10-8.4-16.5-10c-17.3-4.2-35,6.4-39.2,23.9c-4.2,17.3,6.4,35,23.9,39.2c17.5,4.3,35-6.4,39.2-23.9
		c1.3-5.3,1.2-10.7-0.3-16c0-0.2,0.2-0.1,0.2-0.3c2.5-2.4,6-4.7,9.6-6.6s7.6-3.4,10.9-4c0.2,0,0.2-0.1,0.4-0.1
		c3.8,4.6,8.8,7.6,14.6,9c8.8,2.1,18.1-0.2,24.9-6c0.2,0,0.5,0.1,0.8,0.2c3.4,1.2,7.3,3.2,10.7,5.6c3.4,2.4,6.8,5.2,9.1,7.8l0.1,0.2
		c-0.6,1.8-1.2,3.6-1.7,5.4c-2.8,11.4-1,23.4,5.2,33.4c3,4.9,6.9,9,11.3,12.4c-0.4,2.4-1.2,5-2.3,7.1c-1.1,2.4-2.7,4.6-4.2,6.3
		c-11.2-1.5-21.9,5.9-24.6,16.9c-0.1,0.5-0.2,0.8-0.3,1.3c-2.1,0.9-4.5,1.3-6.9,1.7c-2.5,0.3-5.2,0-7.5-0.6
		c-2.7-6.3-8.2-10.9-14.8-12.5c-11.7-2.9-23.4,4.3-26.3,16s4.4,23.5,16,26.3c11.6,2.8,23.2-4.1,26.2-15.7c2.1-0.9,4.9-1.6,7.5-1.9
		c2.8-0.2,5.8,0,8,0.7c3,5.8,8.2,10,14.7,11.6c3.6,0.9,7.5,0.8,11-0.1c1.7,1.5,3.5,3.5,4.9,5.6c1.2,2.1,2.4,4.6,2.9,6.7
		c-2.7,3-4.6,6.8-5.6,10.7c-3.2,13.2,4.9,26.6,18.3,29.8C425.1,444,438.5,435.8,441.7,422.4z M405.2,413.6
		c1.7-6.9,8.7-11.2,15.6-9.5c6.9,1.7,11.2,8.7,9.5,15.6c-1.7,6.9-8.6,11-15.6,9.3C407.8,427.5,403.5,420.5,405.2,413.6z
		 M395.9,368.6c-1.4,5.6-7.1,9.1-12.7,7.7c-5.6-1.4-9.1-7.1-7.7-12.7c1.4-5.6,7.1-9.1,12.7-7.7C393.7,357.2,397.3,362.8,395.9,368.6
		z M319.4,369.4c1.3-5.3,6.6-8.5,11.9-7.2c5.3,1.3,8.5,6.6,7.2,11.9c-1.3,5.3-6.6,8.5-11.9,7.2C321.4,380,318.1,374.7,319.4,369.4z
		 M356.4,248.1c-2.1,8.6-10.7,13.8-19.3,11.7c-8.6-2.1-13.8-10.7-11.7-19.3c2.1-8.6,10.7-13.8,19.3-11.7
		C353.3,230.9,358.5,239.7,356.4,248.1z M389.9,287.4c4.2-17.2,21.6-27.8,38.8-23.6c17.2,4.2,27.8,21.6,23.6,38.8
		c-4.2,17.2-21.6,27.8-38.8,23.6c-8.3-2-15.4-7.2-19.9-14.5C389.3,304.4,387.9,295.8,389.9,287.4z M415.7,147.6
		c-2.1,8.6-10.8,14-19.5,11.9c-8.6-2.1-14-10.9-11.9-19.5c2.1-8.6,10.9-14,19.5-11.9C412.6,130.2,417.8,138.8,415.7,147.6z
		 M469.2,187.3c-1.7,6.9-8.7,11.2-15.6,9.5c-6.9-1.7-11.2-8.7-9.5-15.6c1.6-6.8,8.6-11,15.6-9.3
		C466.6,173.4,470.9,180.4,469.2,187.3z M323,159.8c2-8.4,10.5-13.5,18.9-11.5c8.4,2,13.5,10.5,11.5,18.9s-10.5,13.7-18.9,11.7
		C326,176.8,320.9,168.2,323,159.8z M398.4,70.6c2-8.4,10.5-13.5,18.9-11.5s13.5,10.5,11.5,18.9c-2,8.4-10.5,13.5-18.9,11.5
		C401.5,87.4,396.3,79,398.4,70.6z M247.4,276.9c2.7-10.9,13.8-17.8,24.8-15.1c10.9,2.7,17.8,13.8,15.1,24.8
		c-2.7,10.9-13.8,17.8-24.8,15.1C251.5,299,244.8,287.8,247.4,276.9z"/>
</g>
</svg>
