<?xml version="1.0" encoding="utf-8"?>
<!-- Generator: Adobe Illustrator 19.1.0, SVG Export Plug-In . SVG Version: 6.00 Build 0)  -->
<svg version="1.1" id="Layer_1" xmlns="http://www.w3.org/2000/svg" xmlns:xlink="http://www.w3.org/1999/xlink" x="0px" y="0px"
	 viewBox="595.1 -35.3 835.5 276" style="enable-background:new 595.1 -35.3 835.5 276;" xml:space="preserve">
<style type="text/css">
	.st0{fill:#85A838;}
	.st1{fill:#030302;}
	.st2{fill:#567D38;}
	.st3{enable-background:new    ;}
	.st4{fill:#EEEEEE;}
</style>
<path class="st0" d="M612.1,155.6c7.5-14.4,17.1-28,26-41.6c7.8-11.9,15.1-24.5,23.9-35.8c0.1-0.1,0.1-0.2,0.1-0.2l0,0
	c-0.2-28.7-0.9-57.4-1.1-86.1c0.1,0,0.2,0,0.3,0c4.7,0.2,9.4,0.4,14.1,0.4c2.4,0,3.4-2.6,1.6-3.3c4.1-0.2,8.2-0.5,12.4-0.5
	c0,28.8,0,57.5,0,86.3c0,0.3,1.6,0.1,1.6-0.4c0-28.9,0-57.7,0-86.6c2.2-0.6,4.5-2,4-4.6c0-0.2-0.6-0.2-1,0c0.2-0.3,0.1-0.5-0.4-0.5
	c-5.4,0-10.8-0.1-16.2,0.1c-7,0.3-14,1.2-20.9-0.3c-0.6-0.1-1.9,0.8-0.9,1c5.3,1.1,10.6,1,15.9,0.7c7.2-0.4,14.4-0.4,21.6-0.4
	c0.1,0,0.3,0,0.4-0.1c0.3,1.7-0.7,3.2-2.4,3.6c0-0.1,0-0.2,0-0.2c0-0.3-1.5-0.1-1.6,0.4c-4.7,0.1-9.5,0.4-14.2,0.6
	c2.4-0.4,2.9-3.6-0.2-3.6c-5.3,0-10.7,0.2-16,0.2c-0.8,0-1.5,0.3-1.9,0.8c-0.2-0.5-1.5-0.3-1.6,0.3c-0.2,1.9,1.1,3.5,3.1,3.5
	c0.4,0,0.9-0.1,1.1-0.5c0.1-0.2,0-0.4-0.2-0.5c0.4,0,0.8,0,1.2,0c0.1,0,0.2,0.1,0.3,0.1c0.3,0.1,0.7,0.1,1,0.2
	c-0.4,0.1-0.8,0.2-1.1,0.4c-0.4-0.4-1.5-0.1-1.5,0.4c0.2,29.6,0.9,59.2,1.1,88.8c0,0.1,0,0.1,0,0.1c-8.9,11.5-16.4,24.3-24.3,36.5
	c-8.7,13.4-18.1,26.8-25.6,41.1C610.3,156.3,611.9,156.1,612.1,155.6z"/>
<path class="st0" d="M623.9,166.8c-5.1-0.4-12-2.4-12.2-8.5c0-0.9-1.7-0.7-1.6,0.1c0.3,6.8,7.5,9.2,13.3,9.7
	C624.2,168.1,625,166.9,623.9,166.8z"/>
<path class="st1" d="M763.5,76.5c2.1,0,4.2,0,6.2,0c0.5,0,1.7-0.8,0.7-0.8c-2.1,0-4.2,0-6.2,0C763.6,75.7,762.4,76.5,763.5,76.5z"/>
<path class="st2" d="M743,133.4c0.7,0,1.7-1,0.6-1c-1,0-2-0.1-3.1-0.1c0.3,0.3,0.6,0.7,0.9,1C741.9,133.4,742.4,133.4,743,133.4z"/>
<path class="st2" d="M751.4,145.5c0-0.1-0.2-0.2-0.4-0.2c0.2,0.3,0.4,0.5,0.6,0.8C751.5,145.9,751.4,145.7,751.4,145.5z"/>
<path class="st2" d="M724.9,110.3c4.8-13.9,17.9-24.6,30.9-30.5c1-0.5,0.1-1-0.6-0.7c-12.7,5.8-24.2,15.3-30.5,28
	c-0.8,1.6-1.4,3.3-1.9,4.9c0.4,0.5,0.8,0.9,1.2,1.4C724.3,112.3,724.5,111.3,724.9,110.3z"/>
<path class="st0" d="M755.3,162.4c1.1-2.6,0.7-5.1-0.3-7.5c0-0.2,0-0.3-0.1-0.5c0.1,0,0.2-0.1,0.2-0.1c0.2-0.2,0.4-0.4,0.5-0.5
	c0.2,0.2,0.6,0.3,1,0.4c-0.4-1-0.9-2-1.4-2.9c-0.1,0.3-0.1,0.7-0.1,1c-0.2,0.3-0.3,0.5-0.5,0.8c-0.3-0.9-0.7-1.7-1.3-2.5
	c0.2,0,0.4-0.1,0.5-0.2c0.2-0.2,0.4-0.4,0.6-0.5c-0.2-0.4-0.5-0.7-0.7-1c-0.3,0.3-0.6,0.7-0.9,1.1l0,0c-0.1-0.2-0.2-0.5-0.2-0.7
	c0.4-0.2,0.7-0.4,0.5-0.7c-0.1-0.1-0.2-0.2-0.4-0.4c-0.1-0.1-0.3-0.1-0.5-0.1c-0.2-0.6-0.4-1.2-0.5-1.9c-0.2-0.3-0.4-0.5-0.6-0.8
	c-0.3,0-0.7,0.1-0.9,0.3c-1.2-1.1-2.3-2.2-3.5-3.4c0-0.2,0-0.4,0-0.7s-0.4-0.3-0.8-0.2c-0.9-0.9-1.7-1.8-2.6-2.7c0-1,0-1.9-0.2-2.9
	c-0.1-0.6-1.4-0.1-1.6,0.2c-0.1,0.2-0.2,0.4-0.3,0.5c-1-1.1-1.9-2.1-2.9-3.2c1,0,2.1,0.1,3.1,0.1c-0.3-0.3-0.6-0.7-0.9-1
	c-1,0-2.1-0.1-3.1-0.1c-2.9-3.4-5.8-6.9-8.5-10.4c0-0.1,0-0.1,0-0.2c0-0.2-0.2-0.3-0.4-0.3c-0.4-0.6-0.9-1.1-1.3-1.7
	c0.6,0,1.7-0.9,0.6-0.9c-0.4,0-0.8,0-1.2,0c-0.1,0-0.1-0.1-0.2-0.1c-0.9-1.2-1.9-2.4-2.8-3.6c0.1-0.6,0.3-1.3,0.4-1.9
	c-0.4-0.5-0.8-0.9-1.2-1.4c-0.2,0.5-0.3,1.1-0.4,1.6c-0.5-0.7-1.1-1.4-1.6-2.1c-9.4-12.2-19.4-23.8-29.5-35.4
	c-0.3-0.4-1.9,0.2-1.5,0.6c9.8,11.2,19.5,22.5,28.6,34.2c1.2,1.5,2.4,3.1,3.6,4.6c-0.2,1.1-0.3,2.3-0.4,3.4c-0.2,0-0.3,0-0.5,0
	c-0.4-0.5-0.8-1.1-1.2-1.6c0.2,0,0.3,0,0.5,0c0.3,0,1.8-0.6,1-0.6c-0.5,0-1,0-1.4,0c1.4-0.7,2.5-2,0.2-2c0,0,0,0-0.1,0
	c0.4-0.2,0.6-0.6-0.2-0.4c-0.4,0.1-0.7,0.1-1.1,0.2c0.1-0.2-0.1-0.3-0.6-0.3c-0.2,0-0.4,0-0.6,0.1c-2.6-3.6-5.1-7.2-8.1-10.4
	C702.2,95.5,695.4,87,688,79c-0.2-0.2-0.5-0.3-0.9-0.3c0.3-0.4,0.5-0.8,0.4-1.3c-1.8-11-1.3-22.5-1.6-33.7
	c-0.2-11.5-0.1-22.9-1.2-34.4c-0.2-2.1-5-1-4.8,1.3c1.1,11.7,0.9,23.4,1.1,35.1c0.2,10.9-0.2,22.1,1.6,33c0.1,0.6,0.5,0.9,1,1
	c-0.4,0.4-0.6,0.7-0.3,1.1c2,2.1,3.9,4.3,5.8,6.5c-0.3,0.2-0.5,0.4-0.4,0.6c6,7.9,12.8,15.1,19.7,22.2c1.2,1.5,2.3,3,3.4,4.6
	c-2.7,0-5.3,0.1-8,0.1c-1.5-0.1-2.9-0.2-4.4-0.3c-6.2-0.4-12.3-0.2-18.5-0.2c-1.9,0-3.7,0-5.6,0c-10.5-0.5-21-0.8-31.5,0.4
	c-0.4-0.1-0.9-0.1-1.3-0.2c-0.4-0.1-1.5,0.4-1.4,0.6c-2,0.6-3.3,2.7-0.2,2.3c0.8-0.1,1.5-0.2,2.3-0.3c0.1,0,0.1,0,0.2,0
	c3.3-0.3,6.7-0.5,10-0.7c4.2-0.1,8.5-0.1,12.7,0.1c-3.5,0.2-7.1,0.4-10.6,0.7c-2.4,0.2-4,3.1-0.6,2.8c9.1-0.9,18.2-1.1,27.3-1.1
	c0,0,0,0,0.1,0c-7.1,0.1-14.1,0.4-21.2,0.9c-0.8,0.1-1.3,0.9-0.2,0.9c18.2-1.3,36.5-0.9,54.8-0.9c0.8,1.1,1.7,2.3,2.6,3.4
	c-25.2-0.3-50.4,2.4-75.6,0.9c-0.4,0-1.9,0.7-1,0.8c25.8,1.5,51.5-1.3,77.3-0.9c0.9,1.1,1.9,2.3,2.9,3.3c0,0.2,0.1,0.4,0.1,0.6
	c-24.5,0.2-49,1-73.4-0.9c-0.7-0.1-1.7,0.9-0.6,1c24.7,1.9,49.5,1.1,74.2,0.9c0.1,0.3,0.1,0.6,0.2,0.9c-30.1-0.2-60.3-0.2-90.4-0.2
	c-0.6,0-1.7,0.9-0.6,0.9c30.4,0,60.9,0,91.3,0.2c0.1,0.4,0.2,0.8,0.3,1.2c-28.7-0.4-57.3,0.1-86,0.1c-0.7,0-1.7,1-0.6,1
	c29,0,57.9-0.5,86.9-0.1c0.5,1.5,1,3,1.6,4.4c-29.8-0.3-59.6-0.3-89.4-1.2c-0.3,0-1.8,0.6-1,0.7c30.2,1,60.5,0.9,90.7,1.2
	c0.3,0.8,0.7,1.6,1.1,2.3c-23.8,0.3-47.5,0.1-71.3,0.1c-0.6,0-1.7,0.8-0.6,0.8c24.1,0,48.2,0.2,72.3-0.1c0.5,1,1,1.9,1.6,2.8
	c0.1,0.2,0.1,0.3,0.2,0.5c0,0.1,0.1,0.1,0.2,0.2c0.1,0.2,0.3,0.5,0.5,0.7c-18.6-0.6-37.2-1.6-55.8-1.6c-0.5,0-1.8,0.7-0.7,0.7
	c19,0,38,1.1,56.9,1.6c2.4,3.7,5.2,6.8,8.3,9.2c-1.8,1.8-3.5,3.7-5.2,5.7c-0.1,0.1-0.1,0.1-0.1,0.2h-0.1c0.2-0.3,0.1-0.8-0.6-0.8
	c-8.5,0-17.1,0.5-25.6,0.8h-3.9c-5.9-0.1-11.8-0.2-17.7-0.3c-19.2-0.5-38.4-1.1-57.5,0c-1.7-2.2-4-4-6.6-5c-0.2-0.3-0.3-0.7-0.5-1
	c-0.6-1.5-5.4-0.1-4.8,1.3c0.1,0.3,0.2,0.6,0.4,0.8c0,0.1,0,0.3,0,0.4c0.5,1.2,1.2,2.3,2.1,3.3c-0.2,0.5-0.1,0.9,0.5,1.4
	c1.2,0.9,2.5,1.7,3.7,2.4c0.2,0.3,0.5,0.5,1.2,0.6c0.8,0.4,1.7,0.8,2.6,1.2c0.1,0,0.1,0.1,0.2,0.1c0.2,0.1,0.4,0.2,0.6,0.2
	c1.2,0.4,2.4,0.8,3.6,1c0.6,0.1,1.3,0,1.9-0.4c-0.1,0.2-0.1,0.4,0.4,0.4c24.7-0.3,49.4-1.3,74.2-1.7c5.3,0,10.6-0.1,15.9-0.1
	c8.4,0,16.9,0.1,25.3,0.4c0.5,0,1.2-0.5,1.1-0.7c0.7,0,1.3,0,2,0c1.1,0,1.9-0.6,2.3-1.2c0.4,0.1,1.1-0.1,1.3-0.4
	c0.1-0.2,0.2-0.3,0.3-0.5c0.9,0.2,1.8,0.4,2.7,0.6c0.1-0.3,0.2-0.7,0.3-1.1C756.9,162.8,756.1,162.6,755.3,162.4z M633.1,166.9
	c-0.1,0-0.3,0-0.4,0.1c0.4-0.3,0.6-0.7,0.7-1.1c8.1,0.3,16.2,0.5,24.3,0.5C649.5,166.6,641.3,166.8,633.1,166.9z M743.1,140.8
	c0.6,0.6,1.1,1.2,1.7,1.7c-0.8,3-0.9,6.2-1.9,9.1c-0.2,0-0.4,0.1-0.5,0.2C742.3,148.1,742.9,144.5,743.1,140.8z M738.4,135.8
	c0.7,0.8,1.3,1.5,2,2.3c-1.3,3.8-1.4,8.7-3.7,11.8C736.7,145.1,738.7,140.5,738.4,135.8z M735.3,132.2c-0.1,0-0.2,0-0.3,0
	c0-0.1,0-0.3,0-0.4C735.1,132,735.2,132.1,735.3,132.2z M735,133.2c0.4,0,0.8,0,1.2,0c0.5,0.6,1,1.1,1.4,1.6
	c-0.4,0.1-0.8,0.3-0.9,0.6c-0.1,0.7-0.2,1.4-0.3,2.1c-0.6,0-1.2,0-1.8,0C734.9,136.1,735,134.7,735,133.2z M734.2,130.8
	c-0.4,0.1-0.8,0.3-0.8,0.5c-0.1,0.3-0.1,0.5-0.2,0.8c-0.5,0-1,0-1.5,0c0.3-1.1,0.5-2.3,0.7-3.5C733,129.4,733.6,130.1,734.2,130.8z
	 M730.3,137.5c0-0.1,0-0.2,0.1-0.3c0.3-1.4,0.7-2.7,1-4.1c0.5,0,1.1,0,1.6,0c-0.2,1.4-0.4,2.9-0.7,4.3
	C731.6,137.5,731,137.5,730.3,137.5z M732.1,138.2c-0.2,0.7-0.4,1.5-0.7,2.2c-0.6,0-1.2,0-1.8,0c0.1-0.8,0.3-1.5,0.5-2.2
	C730.8,138.2,731.5,138.2,732.1,138.2z M729.9,125.6c0.6,0.7,1.2,1.5,1.8,2.2c-0.1,0-0.3,0.1-0.4,0.1c-0.5,0-1.1,0-1.6,0
	C729.8,127.2,729.9,126.4,729.9,125.6z M729.4,129c0.4,0,0.8,0,1.3,0c-0.2,0.9-0.4,2-0.7,3.1c-0.5,0-1,0-1.4,0
	c0.1-0.5,0.3-1,0.4-1.5c0.3-0.2,0.5-0.5,0.2-0.6C729.3,129.7,729.3,129.3,729.4,129z M728.7,124.1c0.2,0.2,0.3,0.4,0.5,0.6
	c-0.2,0.1-0.5,0.2-0.7,0.3C728.5,124.7,728.6,124.4,728.7,124.1z M728,126.5c-0.1,0.5-0.2,1-0.3,1.5c-0.1,0-0.2,0-0.3,0
	C727.7,127.5,727.9,127,728,126.5z M727.6,129c-0.1,0.3-0.1,0.6-0.2,1c-0.1,0-0.2,0-0.4,0c0.1-0.3,0.1-0.6,0.2-1
	C727.3,129,727.5,129,727.6,129z M723.1,119c0-0.6,0.1-1.1,0.1-1.7c0.4,0.5,0.9,1.1,1.3,1.6C724.1,119,723.6,119,723.1,119z
	 M723.4,122.1c0.1-0.8,0.5-1.6,0.9-2.2c0.2,0,0.5,0,0.7,0c-0.4,0.9-0.8,1.8-1.3,2.7C723.6,122.3,723.5,122.2,723.4,122.1z
	 M725.1,122.7c0,0.4-0.1,0.8-0.1,1.1c-0.1-0.1-0.2-0.3-0.4-0.4C724.7,123.2,724.9,123,725.1,122.7z M723.9,129c0.2,0,0.3,0,0.5,0
	c0,0.5,0.8,0.4,1.3,0.1c-0.1,0.3-0.1,0.5-0.2,0.8c-0.4,0-0.9,0-1.3,0C724.1,129.6,724,129.3,723.9,129z M724.7,132
	c-0.1-0.4-0.2-0.8-0.3-1.2c0.3,0,0.6,0,0.9,0c-0.1,0.4-0.1,0.8-0.1,1.2C725,132,724.8,132,724.7,132z M726.2,136.4
	c-0.5-1.1-0.9-2.2-1.2-3.4c0.1,0,0.2,0,0.2,0c0,0.2,0.1,0.4,0.1,0.7c0.1,0.5,0.9,0.2,1.3,0C726.4,134.6,726.2,135.5,726.2,136.4z
	 M726.3,125.1c0.2-1.2,0.3-2.3,0.4-3.5c0.1,0.2,0.3,0.4,0.4,0.5C726.8,123.1,726.6,124.1,726.3,125.1z M726.8,131.5
	c0-0.2,0-0.4,0-0.6c0.1,0,0.1,0,0.2,0C727,131.1,726.9,131.3,726.8,131.5z M728.6,138.2c-0.2,0.7-0.3,1.4-0.5,2.2H728
	c-0.3-0.6-0.6-1.3-0.9-1.9c0.1,0,0.2-0.1,0.3-0.1c0.2-0.1,0.3-0.2,0.5-0.3c0.3,0,0.5,0,0.8,0C728.6,138.2,728.6,138.2,728.6,138.2z
	 M727.8,136.9c-0.1-1.3,0.2-2.6,0.5-3.9c0.5,0,1,0,1.5,0C729.3,134.6,728.7,136,727.8,136.9z M729.6,141.2c0.5,0,1,0,1.5,0
	c-0.4,0.7-0.8,1.4-1.3,2C729.6,142.6,729.6,141.9,729.6,141.2z M735.2,150.7c-1.1-1.2-2.2-2.5-3.2-4c-0.2-0.3-0.4-0.5-0.6-0.8
	c0.2-0.2,0.3-0.3,0-0.3c-0.1,0-0.1,0-0.2,0c-0.3-0.4-0.6-0.9-0.8-1.3c1-0.9,1.8-2,2.4-3.1l0,0c0,0.3-0.1,0.6-0.1,0.8
	c-0.3,1.8-0.6,3.7,0.5,5.3c0.2,0.3,0.8,0.1,1.1,0c0.5-0.2,1-0.5,1.4-0.9C735.2,147.9,735.1,149.3,735.2,150.7z M735.8,142.4
	c-0.1,0.4-1.5,4.1-1.8,3.1c-0.3-1.2-0.1-2.8,0.2-4.3c0.6,0,1.2,0,1.9,0C735.9,141.5,735.9,142,735.8,142.4z M734.3,140.3
	c0.1-0.4,0.1-0.8,0.2-1.2c0-0.3,0.1-0.6,0.1-0.9c0.6,0,1.2,0,1.8,0c-0.1,0.5-0.1,1-0.2,1.5c0,0.2-0.1,0.4-0.1,0.6
	C735.5,140.3,734.9,140.3,734.3,140.3z M739.1,154.4c-1-0.8-2-1.7-3-2.7c0.2-0.1,0.4-0.2,0.5-0.2c3.5-2.7,3.6-7.8,4.8-12.1
	c0,4.5-0.9,9.1-0.8,13.6C740.2,153.5,739.6,153.9,739.1,154.4z M741.3,161.4c0.1-0.1,0.1-0.1,0.2-0.2c0.5,0,1-0.2,1.4-0.4
	c0.1,0.1,0.2,0.2,0.4,0.4c0.2,0.1,0.4,0.2,0.5,0.3h-2.5V161.4z M745,151.6c-0.2-0.1-0.4-0.1-0.6-0.1c0.3-0.8,0.5-1.7,0.7-2.5
	C745.1,149.8,745.1,150.7,745,151.6z M748.9,146.6c0.2,0.2,0.7,0.1,1,0c0.1,0.6,0.3,1.2,0.5,1.8c-0.4-0.1-1.1,0.2-1.2,0.5
	c-0.3-1-0.7-2-1.1-3c-0.2-0.4-1-0.3-1.4,0c0-0.5,0-1,0-1.4C747.4,145.1,748.1,145.9,748.9,146.6z M749.8,151.2
	c-0.2-0.7-0.3-1.3-0.5-2c0,0,0,0,0.1,0c0.3,0.1,0.6,0.3,0.8,0.5c-0.2,0.1-0.4,0.3-0.4,0.5C749.8,150.5,749.8,150.9,749.8,151.2z
	 M752.3,161.5c-0.5-0.2-1-0.3-1.5-0.5c-0.5-0.5-0.9-1.1-1.3-1.6c-0.3-0.3-0.9-0.4-1.5-0.3c-0.5-0.2-1.1-0.2-1.6-0.2
	c-0.1,0-0.1,0-0.2,0s-0.1-0.1-0.2-0.1c0.3-0.1,0.6-0.3,0.6-0.5c0.5-3.1,0.6-6.2,1-9.3c0.9,3,1.4,6.1,2.6,9c0.2,0.6,1.6,0.2,1.6-0.4
	c-0.1-2-0.2-3.9-0.2-5.9c0.1,0.2,0.2,0.4,0.3,0.6c0.3,0.8,0.5,1.6,0.7,2.4c-0.4,0.1-0.8,0.3-0.8,0.6
	C751.8,157.4,752.4,159.5,752.3,161.5z"/>
<path class="st2" d="M756.7,147.4c-0.6,1.2-1.2,2.6-1.5,3.8c0.5,0.9,1,1.9,1.4,2.9c0.1,0,0.1,0,0.2,0.1h0.1
	c-0.1,0.1-0.1,0.2-0.2,0.4c0.2,0.4,0.3,0.9,0.5,1.3c0.1,0,0.2-0.1,0.3-0.1c0.1-0.1,0.3-0.2,0.4-0.3c-0.2,0.3-0.3,0.6-0.5,0.9
	c-0.2,0.5,1,0.2,1.1,0.2c0.1-0.1,0.3-0.1,0.4-0.2c-0.4,0.5-0.8,1-1.2,1.5c0,0.1,0,0.2,0.1,0.3c0.4,0.1,1.2-0.1,1.4-0.3
	c0.2-0.2,0.4-0.4,0.6-0.6c-0.2,0.3-0.3,0.7-0.4,1c-0.1,0.3,0.3,0.3,0.7,0.2c0,0.2,0.3,0.2,0.4,0.2l0,0c-0.3,0.4-0.6,0.8-0.8,1.2
	c-0.4,0.6,1.1,0.2,1.4,0.1c0.7-0.5,1.3-1.2,1.8-1.8c0.4-0.2,0.8-0.4,1.2-0.6h0.1c0,0.1-0.1,0.1-0.1,0.2c-0.7,0.7-1.4,1.4-2.1,2.1
	c-0.4,0.4,0.7,0.3,1.2,0.2c-0.2,0.4-0.4,0.8-0.5,1.3c-0.1,0.6,1.4,0.1,1.5-0.1c0,0,0-0.1,0.1-0.1c0.1,0,0.1,0,0.2-0.1
	c0.1,0,0.3,0,0.4,0c0.7,0.6,1.9,0.9,3.1,0.9c0.3,0,1.8-0.6,1-0.7c-1.2,0-2.1-0.3-2.5-0.7c1.3-0.6,2.4-1.5,3.1-2.8c0.3,0,0.7,0,1,0
	l-0.1,0.1c-0.2,0.4,1.2,0.1,1.3,0c0.1,0,0.2-0.1,0.3-0.1c1.7,0,3.4,0,5.1,0c1.4,0,2.7,0,4,0c-0.6,0.2-1.2,0.8-0.3,0.8h9.4
	c0.1,0.1,0.3,0.1,0.4,0.2c0.1,0.1,0.4,0.1,0.7,0c0.5,0.1,1,0.2,1.5,0.4c0.4,0.1,1.8-0.5,1.3-0.6c-0.2-0.1-0.5-0.1-0.7-0.2
	c0.4-0.3,0.6-0.6-0.1-0.6h-2.1c-4.6-2.3-10-2.2-15.1-2c0.8-0.5,1.4-1.4,2.2-3.1c0.2-0.4-1.3,0-1.4,0.1c-1.2,0.8-2.2,1.9-3.2,2.9
	c0,0,0,0-0.1,0c1.1-0.9,2-1.9,2.8-3.1l0,0l0,0c0,0,0-0.1,0.1-0.1c0.2-0.3-1.3-0.1-1.5,0.2c-1,1-1.9,2-2.8,3c-0.1,0-0.2,0-0.3,0
	c1-1.3,2.1-2.5,3.1-3.9l0,0c0,0,0-0.1,0.1-0.1c0.2-0.3-1.3-0.1-1.5,0.2c-1.2,1.2-2.3,2.7-3.7,3.8c0,0,0,0-0.1,0
	c1.3-1.5,2.6-2.8,3.3-4.7c0.2-0.5-1.3,0-1.4,0.1c-1.3,0.9-2.5,2-3.6,3c0.7-0.9,1.3-1.7,1.9-2.7c0.2-0.3-1.3-0.1-1.5,0.2
	c-0.8,1-1.6,2-2.4,3l-0.1,0.1c-0.3,0-0.6,0.2-0.7,0.2c-0.2,0.1-0.4,0.2-0.6,0.3c0.3-0.7,0.5-1.4,0.6-2.1c0-0.2-0.1-0.3-0.3-0.3
	c0-0.2,0.1-0.4,0.1-0.6c0-0.2-0.2-0.3-0.4-0.3c0.1-0.4-1.3-0.1-1.5,0.1c-0.1,0.1-0.2,0.2-0.3,0.3c0.1-0.4,0.1-0.8,0.2-1.2
	c0.8-0.8,1.6-1.6,2.1-2.3c0.5-0.5-1.2-0.2-1.4-0.1c-0.9,0.6-1.7,1.4-2.5,2.2c-0.5,0.4-1,0.8-1.4,1.3c-0.1,0.1-0.2,0.1-0.3,0.2
	c0.4-0.8,0.6-1.6,0.8-2.5c0.1-0.5-0.9-0.2-1.1-0.2c-0.6,0.3-1.2,0.6-1.7,1c0.5-1.1,0.9-2.2,1-3.4c0.3-0.7,0.7-1.4,0.9-2.1
	c0.2-0.6-1.3-0.1-1.4,0c-0.3,0.2-0.5,0.4-0.8,0.6c-1.4,0.8-2.4,1.8-3.4,3c0.3,0.3,0.5,0.7,0.7,1C755.1,149,755.9,148.2,756.7,147.4z
	 M785.8,157.1c-1.4-0.1-2.8-0.1-4.2-0.2c-0.6-0.2-1.3-0.3-2.1-0.4C781.6,156.5,783.7,156.6,785.8,157.1z M775.8,154.7
	c-0.2,0.5-0.2,0.9,0,0.9c-0.3,0-0.7,0-1,0C775.1,155.3,775.5,155,775.8,154.7z M770.3,153c-0.6,0.9-1.4,1.7-2.1,2.5h-0.1
	c0,0,0,0,0-0.1c0-0.2-0.2-0.2-0.4-0.2C768.6,154.5,769.4,153.7,770.3,153z M767.6,157.9c0.1,0,0.2-0.1,0.4-0.1
	c-0.2,0.3-0.3,0.5-0.5,0.7c-0.1,0.1-0.2,0.1-0.3,0.2C767.3,158.5,767.4,158.2,767.6,157.9z M766.4,156.8c0,0.1,0,0.2-0.1,0.3
	c-0.1,0.1-0.3,0.1-0.4,0.2c-0.1,0-0.2,0-0.2,0.1C765.9,157.2,766.1,157,766.4,156.8z M761,152.7c-0.2,0.7-0.5,1.4-0.9,2.1
	c-0.2,0.2-0.4,0.3-0.7,0.4C759.9,154.4,760.5,153.5,761,152.7z M758.4,151c-0.2,0.7-0.5,1.4-0.8,2c-0.4,0-0.7-0.2-0.8-0.6
	C757.3,151.9,757.8,151.4,758.4,151z"/>
<path class="st2" d="M757.2,155.9c-0.1-0.4-0.3-0.9-0.5-1.3c-0.2,0.4-0.5,0.8-0.7,1.3C755.9,156.2,756.7,156,757.2,155.9z"/>
<path class="st2" d="M862,163.3c-1.2-0.1-2.5-0.2-3.7-0.2c-1.7-0.1-3.5-0.2-5.2-0.2c-7.6-0.6-15.3-1.3-23-1.2
	c0.1-0.1,0.3-0.4,0.7-0.7c0.5-0.5-1.2-0.3-1.5,0c-0.4,0.4-0.6,0.5-0.7,0.7c-3.3,0.1-6.5,0.2-9.8,0.7v-0.8c0-0.1-0.4-0.1-0.8,0
	c-0.1-0.7-0.1-1.3,0-2c0,0,0.1,0,0.2,0c1.3,0,2.7,0,4,0c-0.3-0.3-0.5-0.5-0.8-0.9c-0.9,0-1.7,0-2.6,0c-0.2,0-0.5,0.1-0.8,0.3
	c0-0.1,0-0.1,0-0.2c0.1-0.1,0.2-0.3,0.3-0.4v-0.1c0.4-0.3,0.7-0.6,1.1-1c0.4-0.4-1-0.1-1.2,0c-0.1,0-0.1,0.1-0.2,0.1
	c-0.1-0.1-0.5,0-0.8,0.1c0.1-0.1,0.2-0.1,0.2-0.2c0.3-0.2-1.1-0.1-1.3,0.1c-0.4,0.3-0.8,0.5-1.2,0.8c0-0.2-0.1-0.4-0.1-0.5
	c0.4-0.3,0.9-0.6,1.3-0.9c0.3-0.2-1.1-0.1-1.3,0.1c-0.3,0.2-0.6,0.4-1,0.6c-0.3,0.1-0.6,0.2-0.6,0.3c0,0-0.1,0.1-0.1,0.2
	c-0.5,0.4-1.1,0.7-1.6,1.1c-0.4,0.3-0.9,0.6-1.3,0.8c-0.1-0.4-0.1-0.8-0.2-1.2c1.5-1.1,3-2.1,4.6-3.1c0.5-0.3,1.1-0.6,1.6-0.9
	c0.7-0.4-1-0.1-1.2,0s-0.4,0.2-0.6,0.3c-0.1,0-0.3,0-0.6,0c0.5-0.3,0.9-0.7,1.4-1c0.4-0.3-1-0.1-1.2,0c-0.9,0.4-1.9,0.8-2.8,1.2
	c6.1-4.6,10.6-10.8,13.1-18.3c0-0.1,0.1-0.2,0.1-0.3c0.1-0.4,0.2-0.8,0.3-1.2c0.3-1,0.6-2.1,0.8-3.2v0.1c0.1-0.4,0.2-0.7,0.4-1
	c-0.1-4.8-0.3-9.5-0.3-14.3c0-0.5,0.1-1,0.2-1.5c-0.3-1.1-0.4-2.2-0.5-3.3c0-0.2-0.2-1.7-0.1-1.2c0-0.2-0.3-1.2-0.2-1.1
	c-0.3-0.8-0.5-1.6-0.6-2.4c-1.6-5.4-4.1-10.4-7.5-14.8c-7.4-9.5-18.6-15-29.8-18.8c-0.6-0.2-1.9,0.7-0.9,1
	c10.8,3.6,21.2,8.9,28.7,17.7c0.6,0.7,1.2,1.5,1.8,2.2c-2.3-2.5-5-4.7-7.2-6.4c-2.1-1.7-4.5-2.9-6.9-4.1c-3.6-2.5-7.3-4.4-11.4-5.7
	l0.1-0.1c0.8-0.6-0.2-1.1-0.9-0.8c-0.3,0.1-0.6,0.3-0.9,0.4c-0.3-0.1-0.6-0.1-0.8-0.2c0.2-0.2,0.4-0.3,0.6-0.5
	c0.8-0.7-0.5-1.2-1.1-0.7c-0.4,0.3-0.7,0.6-1.1,0.9c-1-0.2-1.9-0.4-2.9-0.5c0.9,0,1.7-0.1,2.6-0.3c0.4-0.1,1.8-0.7,0.7-0.6
	c-0.4,0.1-0.7,0.1-1.1,0.2c-1.2,0.5-2.2,0.4-2.9-0.4c0.7-0.3,1.4-0.6,2.1-1c0.1-0.1,0.3-0.3,0.1-0.3c-0.4-0.1-0.7-0.1-1.1-0.1
	c-0.4,0-0.7,0-1.1,0c-0.9,0.3-1.5,0.1-1.8-0.9c1.2-0.6,2.4-0.9,3.6-1.6c0.1-0.1,0.3-0.3,0.1-0.3c-0.4,0-0.8-0.1-1.3-0.1
	c-0.4,0-0.8,0-1.2,0c-0.1,0.1-0.3,0.1-0.4,0.1c0-0.6-0.1-1.2-0.2-1.7c0.4-0.2,0.8-0.3,1.1-0.5v0.1c0,0.5,1.6,0.2,1.6-0.4
	c0-0.2,0-0.4,0-0.7c0.1-0.1,0.1-0.1,0.2-0.2c0,0,0.1-0.1,0-0.2c-0.1,0-0.2-0.1-0.3-0.1c0-3.1-0.1-6.3-0.3-9.4c0,0,0,0,0.1,0
	c0.1-0.1,0.1-0.2-0.1-0.2c-0.3-7.2-0.6-14.5-0.1-21.7c0.2-0.1,0.5-0.1,0.7-0.2c0.6-0.1,0.8-0.4,0.5-0.5h0.1l0,0
	c0.3,0,0.8-0.1,1.1-0.4s0.6-0.7,0.8-1.1c0.1-0.4,0.1-0.7,0.1-1.1c0-0.2-0.5-0.1-1,0c0-0.2,0-0.4-0.1-0.6c-0.1-0.5-1.4-0.2-1.6,0.3
	c-1.2,0-2.5,0-3.7,0.1c-0.1-1.8,0-3.6,0-5.5c0-2.8-0.2-5.6-0.2-8.4c0-0.2-0.1-0.4-0.3-0.5c0-0.7-0.1-1.5-0.2-2.2
	c-0.1-0.3-0.5-0.4-1-0.2c-6.3-0.6-12.9,0.4-19.2,0.5c-0.3,0-0.6,0.2-0.8,0.4c-0.5-0.1-0.9-0.1-1.4-0.2c-0.7-0.1-1.4,0.8-0.9,1.1
	c-0.1,0.1-0.2,0.2-0.2,0.4c0.6,4.6,0.5,9.3,1.5,13.9c0.1,0.5,1.7,0.1,1.6-0.4c-0.9-4.2-0.9-8.5-1.3-12.8c0.1,0,0.1,0,0.2,0
	c0.8,0,1.5,0,2.3,0c0,4.7,0.5,9.4,0.8,14.1c-3.5-0.1-6.9-0.5-10.3-1.1c-0.8-0.1-1.6,0.9-0.6,1.1c0.4,0.1,0.9,0.1,1.3,0.2
	c-0.2,0.9,0,1.7,0.5,2.5c0.3,0.5,1.9,0,1.5-0.6c-0.3-0.5-0.4-1-0.4-1.6c2.7,0.4,5.4,0.6,8.1,0.7c0,0.2,0,0.5,0,0.7
	c0,0.5,1.6,0.2,1.6-0.4c0-0.1,0-0.2,0-0.2c5.2,0.1,10.4-0.1,15.6-0.2c0,0.8,0,1.6,0,2.4c-0.1,0-0.3,0-0.4,0.1
	c-3.1,0.1-6.2-0.1-9.2,0.1c-4.8,0.4-10,1.1-14.6-0.8c-0.4-0.2-1.6,0.5-1.5,0.5c0.8,0.3,1.7,0.6,2.5,0.8c0,0.1-0.1,0.1-0.1,0.2
	c0,8.6,0.8,17.2,0.8,25.8c0,0.5,1.6,0.2,1.6-0.4c-0.1-8.4-0.8-16.8-0.8-25.3c3.3,0.5,6.8,0.2,10.1-0.1c3.5-0.3,7.1-0.1,10.6-0.2v0.1
	c-1.9,0-3.9,0-5.8,0c-0.3,0-1.8,0.6-1.1,0.6c2.3,0,4.7-0.1,7,0l0,0c-2.6,0.4-5.3,0.4-7.8,1.4c-0.1,0-0.5,0.2-0.3,0.3
	c2.5,1.3,5.4,1,8.3,0.8V41c-2.5,0.4-5,0.3-7.4,1c-0.1,0-0.8,0.4-0.4,0.4c2.5,0.4,5.1-0.1,7.6,0c-2.5,0.5-5.2,0.8-7.3,2.4
	c0,0-0.1,0.1,0,0.2c1.6,0.5,3.2,0.4,4.8,0.3c3-0.1-1.3,1-2,1.2c-0.5,0.1-1,0.3-1.4,0.5c-0.5,0-1-0.1-1.5-0.1c-0.6-0.1-1.1,0.5-1,0.8
	c-0.4,0.2-0.7,0.7-0.4,0.9c-1.4,0-2.8,0-4.2-0.1c-4.6-0.6-4.8-5.1-4.9-8.9c0-0.5-1.6-0.2-1.6,0.4c0,3.5,0.2,7.5,4,8.9
	s8.4,0.2,12.3,0.5c0.2,0,0.4-0.1,0.6-0.2c2.6,0.1,5.1-0.2,6-1.3c0.2-0.2,0.3-0.4,0.2-0.5c0-0.1,0-0.2,0-0.2c0-0.6-0.7-0.6-1.2-0.4
	c0.1-0.1,0.2-0.3,0.2-0.5c0.8-1.7,0.9-3.7,0.8-5.7c0.1,0,0.1,0,0.2-0.1c0.2-0.1,0.9-0.4,0.3-0.5c-0.2,0-0.3,0-0.5,0
	c0-0.4-0.1-0.8-0.1-1.2c0-0.6,0.1-1.1,0.1-1.7c0.3,0,0.6-0.1,0.9-0.1c-0.3,5.2-0.3,10.4-0.1,15.6c-0.2-0.1-0.4-0.1-0.5-0.1
	c-1.2,0.1-2.4,0.3-3.6,0.4c-0.3,0-0.8,0.2-0.9,0.6c-0.1,0.4,0.4,0.5,0.7,0.5c1.2-0.1,2.4-0.3,3.6-0.4c0.2,0,0.5-0.1,0.7-0.3
	c0.1,1.7,0.1,3.5,0.2,5.2c-2,0.1-4,0.1-6-0.1c-0.4,0-1.7,0.6-1.3,0.6c1.3,0.1,2.6,0.2,4,0.2c0.9,0,1.7,0,2.6-0.1
	c-0.9,0.7-1.8,1.1-2.9,1.3c-1.5,0.3-2.7,0.8-4,1.6c-0.1,0.1-0.1,0.2,0.1,0.2c1.3,0.3,2.5,0.3,3.9,0.3c3.4-0.2-1.6,1.8-2.6,2.2
	c-0.2,0.1-0.9,0.4-0.3,0.5c0.6,0.1,1.3,0.1,1.9,0c0.6-0.1,1.1,0.3,1.4,1.2c-0.8,0.3-1.6,0.6-2.4,1.1c-0.2-0.2-0.3-0.5-0.5-0.7
	c-0.3-0.4-1.7,0.3-1.6,0.4c1.4,1.8,2.2,3.9,2.6,6.1c0.1,0.3,1.6,0,1.6-0.4c0-0.1,0-0.3,0-0.4c0.2,0,0.6,0,1,0.1
	c0.1,0.2,0.2,0.4,0.3,0.6c0.1,0.1,0.3,0.2,0.6,0.1c-0.9,0.4-1.8,0.8-2.6,1.4c-0.1,0.1-0.1,0.2,0.1,0.2c1.3,0.3,1,0.3,2.3,0.3
	c2,0.1,0.9,0.8-0.2,1.2c-0.1,0.1-0.6,0.3-0.2,0.4c0.9,0.2,1.7,0.3,2.6,0.3c-0.6,0.2-1,1-0.1,1.2c0.8,0.1,1.6,0.2,2.4,0.4
	c-0.6,0.4-1.1,0.9-1.6,1.4c-0.4,0.4,0.1,0.9,0.6,0.8c0.8-0.1,1.6-0.3,2.4-0.6c-0.3,0.3-0.5,0.6-0.8,0.9c-0.5,0.6,0.3,0.9,0.8,0.8
	c0.7-0.1,1.4-0.4,2.1-0.6c0.1,0.1,0.2,0.2,0.3,0.3c-0.3,0.3-0.6,0.6-0.9,0.9c-0.4,0.4,0.1,0.9,0.6,0.8c0.6-0.1,1.2-0.3,1.8-0.5
	l0.1,0.1c-0.3,0.2-0.6,0.4-1,0.6c-0.9,0.6,0.4,1.1,1.1,0.7c0.3-0.2,0.6-0.3,0.9-0.5c0.4,0.3,0.7,0.6,1.1,0.9
	c-0.2,0.2-0.4,0.4-0.6,0.6c-0.5,0.5,0.4,0.6,0.7,0.5c0.3-0.1,0.6-0.2,0.9-0.2c0.1,0.1,0.2,0.2,0.3,0.3c-0.2,0.1-0.3,0.3-0.5,0.5
	c-0.4,0.4,0.7,0.3,0.8,0.3c0.1,0,0.3-0.1,0.4-0.1c0.4,0.3,0.8,0.6,1.2,1c-0.2,0.3,0.2,0.4,0.5,0.4c0.3,0.2,0.6,0.5,0.9,0.7l0,0
	c-0.1,0.2,0,0.4,0.3,0.5c0.2,0,0.3,0,0.5,0c0.1,0.1,0.2,0.2,0.3,0.2c-0.2,0.3-0.5,0.5-0.6,0.8c-0.3,0.6,0.6,0.7,0.9,0.6
	c0.4-0.1,0.8-0.2,1.1-0.3c0.1,0.1,0.2,0.2,0.3,0.3c-0.3,0.3-0.5,0.7-0.7,1.1c-0.2,0.3,0.1,0.5,0.5,0.5c0.5,0,0.9,0,1.4-0.2
	c0.1,0,0.3-0.1,0.4-0.2c0.2,0.2,0.4,0.3,0.6,0.5c-0.1,0-0.2,0.1-0.3,0.1c-1.2,0.8-2.5,1.6-3.1,2.9c-0.3,0.5,0.3,0.7,0.7,0.7
	c1,0,2-0.4,2.8-1.1c0.3-0.2,0.4-0.6,0.1-0.8c-0.2-0.1-0.4-0.2-0.7-0.1c0.4-0.3,0.9-0.6,1.3-0.9c0.1,0,0.1-0.1,0.1-0.1
	c0.4,0.3,0.7,0.6,1.1,0.9c-0.7,0.5-1.3,1.1-1.9,1.8c-0.4,0.5,0.1,0.7,0.6,0.7c-0.4,0.4-0.8,0.9-1,1.4c-0.2,0.4,0.8,0.3,0.9,0.2
	c1.5-0.4,2.8-1.1,4.2-1.7h0.1c0.2,0.2,0.4,0.4,0.7,0.5c-1.1,0.7-2.1,1.3-2.9,2.3c-3,0.1-6-0.1-9.1-0.4c0,0,0-0.1-0.1-0.1
	c-0.1-0.4-0.9-0.2-1.4,0l0,0c-6.7-0.5-13.4-0.4-20-0.5c-7.6-0.1-15.2-0.1-22.8,0c0.3-0.7-1.1-0.6-1.5-0.3c-0.1,0.1-0.2,0.2-0.3,0.3
	h-0.1c3.5-2.7,7.9-4.5,13-5.6c1-0.2,0.7-1-0.2-0.8c-5.7,1.2-10.6,3.2-14.5,6.4c-5,0-9.9,0.1-14.9,0.1h-0.1c1-1.3,2.2-2.5,3.4-3.7
	c5.1-4.9,12.2-7.3,18.1-11.3c0.6-0.4-1-0.2-1.2,0c-5.6,3.8-11.9,6.4-17.3,10.6c-5.4,4.2-8.7,10.2-10.8,16.6c0,0,0,0.1,0.1,0.1
	c-0.5,0.2-1.1,0.6-0.4,0.8c2.9,0.8,6,1.1,8.9,1.7c0.5,0.1,1.9-0.7,1-0.9c-2.9-0.6-5.9-0.9-8.8-1.6c0.4-0.1,0.7-0.2,0.8-0.4
	c1.3-4.1,3.1-7.7,5.6-11c0.1,0.2,0.3,0.3,0.6,0.3c4.5,0,9.1,0,13.7,0c-3.3,3.1-5.7,7.1-7.1,12.2c-0.2,0.6,1.5,0.4,1.6-0.2
	c1-3.6,2.5-6.5,4.4-9c-0.4,0.7-0.7,1.5-1,2.3c-1,1.5-1.7,3.2-2,4.9c-0.6,1.3-1,2.7-1.2,4.1c-0.1,0.1-0.2,0.1-0.3,0.2
	c-0.3,0.3-0.4,0.7,0,0.8h0.1c0,0.3,0,0.6-0.1,1c-0.5-0.2-1.4,0.1-1.4,0.5c0,2.9,0.8,5.4,2.1,8c0.1,0.3,0.5,0.3,0.9,0.2
	c-0.2,0.2-0.4,0.5,0,0.7c1.8,0.8,3.5,0.6,5.4,0.4c0.9-0.1,1.3-1.2,0.2-1.1c-1,0.1-2,0.3-3,0.2c0.9-0.3,1.9-0.5,2.8-0.8
	c0.8-0.2,0.9-1.1,0-1c-0.5,0-0.9,0-1.4,0c1.1-0.2,2.2-0.5,3.2-0.8c0.6-0.2,1-0.9,0.2-1c-1.4-0.2-2.7-0.1-4.1-0.2c0-0.2,0-0.3,0-0.5
	c1.7-0.5,3.5-0.9,5.1-1.7c0.5-0.3,0.7-0.9-0.1-1c-1.7-0.2-3.5-0.1-5.2-0.1c0-0.5-0.1-1.1-0.1-1.6c0.2,0,0.4-0.1,0.6-0.1
	c1.1-0.2,2-0.5,3-0.9c0.5-0.2,0.7-0.9-0.1-1c-0.7,0-2.2,0.1-3.6,0.1c0-0.3,0-0.6,0.1-0.9c0-0.3,0.1-0.5,0.1-0.8
	c1.9-0.6,4-0.9,5.9-1.6c0.7-0.3,0.9-1.1,0-1c-1.6,0.1-3.2,0.2-4.8,0c2.7-0.7,5.5-0.7,8-2.4c0.5-0.3,0.3-0.8-0.2-0.9
	c-2.1-0.2-4.1,0.1-6.2,0c0-0.1,0.1-0.1,0.1-0.2c3-0.6,6-1,8.9-2.2c0.7-0.3,0.5-1.1-0.3-1c-1.5,0.2-2.9,0.4-4.3,0.6
	c2.8-0.5,5.5-1.2,8-2.9c0.5-0.3,0.3-0.8-0.2-0.9c-3-0.4-6-0.2-9.1-0.1c-0.1,0-0.2,0-0.3,0.1c-0.3-0.1-0.7,0-1,0.1
	c0.2-0.3,0.3-0.6,0.5-0.9c8.3,0,16.7-0.1,25,0c6.2,0.1,12.4,0.2,18.6,0.5c0.2,0.4,0.3,0.9,0.5,1.3c-10.8-0.6-21.6,0.7-32.4-0.5
	c-0.4,0-1.9,0.6-1,0.7c11.2,1.3,22.5-0.2,33.7,0.6c0.3,0.8,0.7,1.6,1,2.4c-9.8,0.1-19.5,0.2-29.3-0.6c-0.3,0-1.8,0.6-1,0.6
	c10.2,0.8,20.4,0.7,30.6,0.6c0.3,0.7,0.6,1.5,0.9,2.2c-10.9,0.3-21.8,0.7-32.7,0.5c-0.7,0-1.7,1-0.6,1.1c11.2,0.2,22.4-0.2,33.7-0.5
	c0.3,0.7,0.5,1.3,0.8,2c0.2,0.5,1.7,0.1,1.6-0.4c-0.1-0.5-0.1-1-0.2-1.6c0.4,1.1,0.7,2.1,1.1,3.2c0,0,0,0,0,0.1
	c-6.2,0.1-12.4,0.2-18.6,0.4c-0.6,0-1.7,0.9-0.6,0.9c11.2-0.3,22.4-0.5,33.6-0.6c0.1,0,0.2,0,0.4-0.1c-0.5,3.3-1,6.7-1.5,10.1
	c-14.5,0.3-28.9,0.3-43.4,0.3c-0.5,0-1.8,0.7-0.7,0.7c14.6,0,29.2,0,43.8-0.3c0,0,0.1,0,0.2,0c-0.3,1.8-0.6,3.6-1,5.4
	c-11.9,0.8-23.7,1.1-35.6,1.1c-0.5,0-1.7,0.8-0.6,0.8c12,0,24.1-0.3,36.1-1.1l0,0c-0.3,1.5-0.7,3.1-1.1,4.6
	c-0.1,0.3-0.2,0.5-0.3,0.8c-7.8,0.5-15.6,0.9-23.5,1.4c-0.5,0-1.7,0.8-0.7,0.7c8-0.5,15.9-1,23.9-1.4c-0.3,0.7-0.7,1.4-1,2.2
	c-0.6,1.1-1.2,2.1-1.9,3.2c-6.1,0.1-12.2,0.1-18.3,0.1c-0.5,0-1.7,0.7-0.7,0.7c6.2,0,12.4,0,18.5-0.1c-0.9,1.3-1.8,2.5-2.8,3.7
	c-4.1,0.2-8.2,0.6-12.2,1.7c-1,0.3-0.8,1.1,0.2,0.8c3.7-1,7.5-1.4,11.3-1.6c-1.4,1.7-2.9,3.4-4.3,5c-4.4,0.2-8.7,0.3-13.1,0.3
	c-0.5,0-1.7,0.8-0.7,0.8c4.4,0,8.7,0,13.1-0.3c-0.1,0.1-0.2,0.2-0.2,0.3c-0.7,0.8,0.9,0.7,1.3,0.3c0.3-0.3,0.6-0.6,0.9-0.9
	c0.1,0,0.2,0.1,0.4,0.1c-0.4,0.6-0.8,1.1-1.2,1.7c-5.1,0.3-10.1,0.5-15.2,1c-0.8,0.1-1.3,1-0.2,0.9c4.9-0.5,9.8-0.8,14.7-1
	c-0.7,0.9-1.3,1.9-1.9,2.8c-0.4,0.7,1.1,0.4,1.4,0.2c0.7-0.5,1.3-1.1,1.9-1.7c0.1,0,0.2-0.1,0.2-0.1c0.9-0.5,1.7-1.1,2.5-1.8
	c0.3,0.1,1.2-0.1,1.3-0.3c3.9-3.3,7.2-7.6,9.7-12.3c0.5-0.2,0.9-0.6,0.3-0.6c4.8-9.4,6.4-20.7,4.4-30.5c0,0,0,0,0-0.1
	c0.3-0.1,0.5-0.2,0.5-0.4c-0.4-1.2-0.8-2.4-1.3-3.5c0-0.1-0.1-0.2-0.1-0.3c0.1,0.1,0.3,0.2,0.4,0.3c0.3,0.2,1.6,0,1.6-0.5
	c0-0.3,0-0.7-0.1-1c3.9,10,4.1,21.6,1.4,31.9c-2.4,8.7-8,15.4-15.3,20.1c-1.3,0.6-2.6,1.3-3.8,2.1c-1.7,0.7-3.3,1.5-5,2.2
	c-1.6,0.6-3.3,1.1-5,1.5c1.1-1.3,2.1-2.6,3.3-3.9c0,0-1.3,0-1.6,0.3c-1.2,1.3-2.3,2.6-3.4,4c-0.8,0.2-1.5,0.3-2.3,0.5
	c-0.3,0-0.5-0.2-0.6-0.4c0.4-0.1,0.7-0.2,1.1-0.3c1-0.2,0.7-1.1-0.2-0.8c-0.2,0.1-0.5,0.1-0.8,0.2c-0.2-0.3-1.4-0.1-1.6,0.4l0,0
	c-4.1,0.9-8.3,1.6-12.5,1.9c-0.6-0.1-1.1-0.1-1.7-0.2c-0.2,0-0.8,0.2-1.1,0.4c-5.1,0.2-10.1-0.1-14.9-1c-0.1,0.4-0.2,0.7-0.3,1.1
	c2.9,0.5,5.9,0.8,8.9,0.9c-0.1,0.1-0.1,0.2,0.4,0.2c0.8,0,1.6,0,2.4,0c2.2,0,4.5,0,6.7,0c-5.1,0.2-10.2,0.8-15.2,1.9
	c-0.4,0.1-1.1,0.7-0.3,0.6c12.3-0.9,24.9,1,37-1.4c8,0.4,16,0.7,24,0c0.3,0,1.7-0.7,0.9-0.7c-1.9-0.1-3.7-0.2-5.5-0.3
	c-0.3,0-1.5,0.5-1.2,0.7c-2.3,0.1-4.6,0-6.9,0c-2.9,0-5.7-0.2-8.6-0.3c0.7-0.2,1.4-0.4,2.1-0.6c0.2,0.3,1.3-0.2,1.5-0.3
	s0.3-0.3,0.5-0.4c0.1,0,0.1,0,0.2,0c-0.2,0.2-0.5,0.4-0.7,0.5c-0.3,0.3,1.1,0.1,1.3-0.1c0.2-0.2,0.5-0.3,0.7-0.5c0.1,0,0.1,0,0.2,0
	c-0.1,0.1-0.1,0.3,0.2,0.3c-0.1,0.1-0.2,0.2-0.3,0.3c-0.2,0.2,1,0,1.1,0c0.2-0.1,0.5-0.2,0.7-0.3c2.2,0,4.3,0.1,6.5,0.1
	c0,0.1,0,0.2,0,0.3c0.1,0.3,1.2,0,1.5-0.3c1.1,0,2.2,0,3.3,0c2.8,0.5,5.8,0.3,8.7,0c10,0.1,20,0.2,30,0.2c0.6,0,1.7-0.9,0.6-0.9
	c-2.2,0-4.5-0.1-6.7-0.1c1,0,2-0.1,3-0.1c0.1,0,0.2,0,0.2,0c1,0,2.1,0.1,3.1,0.1c1.2,0.1,2.4,0.1,3.6,0.2
	C862,164.2,863.1,163.4,862,163.3z M779.3,17.8c0,0.3,0,0.5,0.1,0.8c-0.7,0-1.4,0-2-0.1c0.5-0.1,1-0.2,1.5-0.4
	C779.1,18.1,779.2,18,779.3,17.8z M777.8,17.2c-2.5,0.6-5.1,0.9-7.7,0.9c-2-0.1-4-0.3-6-0.5C768.6,17.4,773.3,17,777.8,17.2z
	 M775,21.3c0,0.1,0,0.2,0,0.3c-0.5,0-1.1,0-1.6,0C773.9,21.5,774.4,21.4,775,21.3z M772.7,20.7c-0.1-0.4-0.2-0.7-0.3-1.1
	c0.8,0,1.7,0.1,2.5,0.1c0,0.2,0,0.3,0,0.5C774.2,20.4,773.4,20.5,772.7,20.7z M775.1,22.7c0,0.1,0,0.1,0,0.2c-0.2,0-0.4,0-0.6,0
	c0-0.1,0-0.1-0.1-0.2C774.6,22.7,774.9,22.7,775.1,22.7z M775.6,29.4c0,0.2,0,0.3,0,0.5c-0.9-0.1-1.7-0.1-2.6-0.3
	C773.9,29.5,774.8,29.4,775.6,29.4z M774.3,32.7c-3.3,0.1-6.6-0.1-9.9-0.1c-0.2,0-0.3,0.1-0.4,0.1c-0.3-4.5-0.7-9-0.8-13.5
	c2,0.1,3.9,0.1,5.9,0.1c0.5,0,1,0.1,1.5,0.1c0.2,0.5,0.3,1,0.5,1.6c-0.3,0.2-0.5,0.4-0.5,0.6c0,0-0.1,0-0.1,0.1
	c-0.4,0.4-0.3,0.8,0.2,0.9c0.2,0,0.5,0.1,0.7,0.1c0,0.2,0.1,0.3,0.1,0.5c-0.2,0-0.4,0.1-0.6,0.2c-0.4,0.2-1.1,0.7-0.3,1
	c0.4,0.1,0.8,0.2,1.1,0.3c0,0.2,0.1,0.4,0.1,0.5c0,0,0,0-0.1,0c-0.5,0.1-1,0.8-0.3,1c0.2,0.1,0.4,0.1,0.5,0.2c0,0.4,0.1,0.8,0.1,1.1
	c-0.7-0.1-1.5-0.2-2.2-0.4c-0.5-0.1-1.9,0.7-1,0.9c1.1,0.3,2.2,0.4,3.3,0.5c0,0.1,0.4,0.1,0.8,0.1c0.3,0,0.6,0,0.9,0.1
	c-1.1,0.1-2.2,0.2-3.3,0.5c-0.2,0.1-1.1,0.6-0.5,0.8c1.7,0.6,3.5,0.7,5.2,0.8c-3.5,0.5-7.2-0.9-10.7,0.2c-0.5,0.2-1.1,0.8-0.2,0.9
	c3.8,0.2,7.6,0.3,11.5,0.3c0,0.1,0.1,0.3,0.1,0.4C775.4,32.7,774.9,32.7,774.3,32.7z M777.1,25.8c0.4-0.1,0.8-0.2,1.2-0.4
	c0.4-0.2,0.7-0.7,0.1-1c-0.5-0.2-1-0.3-1.5-0.4c0-0.1,0-0.3,0-0.4c0.6-0.2,1.3-0.4,1.8-0.8c0.3-0.2,0.4-0.7-0.1-0.8
	c-0.7-0.1-1.3-0.2-2-0.2c-0.1-0.6-0.1-1.2-0.1-1.9c1,0,2,0.1,2.9,0.1c0,2-0.2,3.9-0.3,5.9C778.4,25.8,777.7,25.8,777.1,25.8
	L777.1,25.8z M772.6,39.4c2-0.7,4.2-0.7,6.4-0.9c0.1,0.5,0.1,1.1,0.1,1.6C776.8,40.2,774.5,40.4,772.6,39.4z M773.4,41.8
	c1.8-0.4,3.7-0.4,5.6-0.6c0,0.2,0,0.3,0,0.5C777.1,41.7,775.2,41.9,773.4,41.8z M776.4,44.5c-0.4,0-0.8,0-1.2,0.1
	c-0.7,0.2-1-0.1-0.8-1c1.4-0.6,3-0.7,4.6-1c0,0.7,0,1.3,0,2c-0.6-0.1-1.1-0.1-1.7-0.1C776.9,44.5,776.6,44.5,776.4,44.5z
	 M779.1,46.8c-1.7,0-3.5,0.1-5.2,0c1.7-0.6,3.5-1,5.1-1.8v0.1c0.1,0.3,0.4,0.4,0.7,0.4v0.4l0,0C779.6,46.3,779.4,46.6,779.1,46.8z
	 M777.8,32.6c-0.1-0.2-0.2-0.4-0.3-0.7c0.4-0.3,0.6-0.7-0.1-0.7h-0.1c0,0,0,0,0-0.1c0.2-0.1,0.5-0.2,0.7-0.3
	c0.3-0.1,0.8-0.7,0.2-0.8c-0.3-0.1-0.7-0.1-1-0.1c0-0.3,0-0.6,0-0.8c0.3-0.1,0.6-0.1,1-0.2c0.3-0.1,1.2-0.8,0.4-0.9
	c-0.4-0.1-0.9-0.1-1.3-0.2c0-0.1,0-0.3,0-0.4c0-0.2,0-0.4,0-0.6c0.5,0,1,0,1.5,0c0.1,0,0.3,0,0.4-0.1c-0.1,2,0,4,0.7,6
	C779.1,32.7,778.4,32.7,777.8,32.6z M778.2,68.8c-0.1-0.2-0.2-0.5-0.4-0.7c0.2,0,0.3,0,0.5,0.1C778.3,68.4,778.3,68.6,778.2,68.8z
	 M782.1,67.7c0-0.6-0.1-1.2-0.1-1.7c0.5-0.3,0.8-0.5,1.3-0.9c0,0,0,0,0.1-0.1c0,0.9,0,1.8,0.1,2.7C782.9,67.7,782.5,67.6,782.1,67.7
	z M783,36.5c-0.3,0-0.6,0.1-1,0.1c0-0.6,0.1-1.2,0.1-1.7c0-0.1-0.3-0.1-0.7-0.1c0.1-0.1,0.2-0.2,0.2-0.3c0-0.1,0-0.2,0-0.3
	c1.2,0,2.4,0,3.6-0.1c0,0.2,0,0.4-0.1,0.7c0,0.2-0.1,0.4-0.2,0.6l0,0h-0.1c-0.4-0.1-0.9,0.1-1.1,0.3c-0.1,0.1-0.2,0.2-0.1,0.3
	C783.4,36.2,783.1,36.3,783,36.5z M781,60.4c0.8-0.2,1.5-0.4,2.1-0.8c0,0.6,0,1.3,0.1,1.9c-0.6,0-1.1,0-1.9,0.1
	C779.4,61.9,779.5,60.9,781,60.4z M779.8,70.6c-0.1,0-0.1,0.1-0.2,0.1c0-0.2,0-0.3,0-0.5C779.7,70.4,779.8,70.5,779.8,70.6
	L779.8,70.6z M781.5,64.2c-0.1-0.3-1.4,0-1.6,0.4c-1.2,0.1-2.2,0.2-0.3-0.3c1.3-0.4,2.6-0.8,3.6-1.6c0,0.7,0,1.5,0.1,2.2l0,0
	c-0.6-0.2-1-0.4-1.7-0.4C781.6,64.3,781.5,64.3,781.5,64.2z M789.9,79.9c-0.1-0.1-0.1-0.1-0.2-0.2l0.1-0.1c0.2,0.1,0.3,0.1,0.5,0.1
	C790.1,79.8,790,79.9,789.9,79.9z M791.8,81.2c0.2-0.2,0.4-0.4,0.7-0.6c0.1,0.1,0.3,0.1,0.4,0.2C792.6,80.9,792.2,81.1,791.8,81.2z
	 M744.2,123.9c0.1-0.1,0.2-0.2,0.1-0.4c0.1,0,0.1,0,0.2,0c0,0.1,0.1,0.1,0.1,0.2C744.5,123.8,744.3,123.9,744.2,123.9z M744.7,116.7
	c0.1-0.1,0.1-0.2,0.2-0.2c0,0.3,0,0.5,0,0.8h-0.1C744.7,117.1,744.6,116.9,744.7,116.7z M744.8,119.6c-0.1-0.4-0.1-0.8-0.1-1.3h0.1
	C744.8,118.7,744.9,119.2,744.8,119.6C744.9,119.6,744.8,119.6,744.8,119.6z M749.1,118.4c-0.8,0.3-1.5,0.5-2.3,0.7
	c0-0.2,0-0.5,0-0.7C747.5,118.4,748.3,118.3,749.1,118.4z M748.2,110.8c-0.4,0.1-0.8,0.2-1.2,0.3c0-0.1,0.1-0.3,0.1-0.4
	C747.5,110.8,747.9,110.8,748.2,110.8z M747.8,103.7c-0.5,0.1-0.8,0.7-0.4,0.9l0,0c-0.2,0.4-0.5,0.8-0.7,1.2c-0.1,0-0.2,0-0.3,0.1
	c0.1-0.4,0.2-0.9,0.4-1.3c0.5-0.8,1-1.6,1.6-2.3C748.2,102.8,748,103.3,747.8,103.7z M753.3,107.4c-1.7,0.7-3.5,0.9-5.4,1.2
	c0.2-0.4,0.5-0.8,0.7-1.2C750.2,107.5,751.8,107.4,753.3,107.4z M752.2,100.9L752.2,100.9c2.5,0,4.9-0.2,7.4,0
	c-2.1,1.1-4.4,1.6-6.7,2c0.3-0.3,0.7-0.6,1-1c0.7-0.7-0.9-0.7-1.3-0.3c-0.6,0.6-1.1,1.1-1.7,1.6c-0.2,0-0.4,0.1-0.6,0.1
	C750.9,102.5,751.6,101.7,752.2,100.9z M812.2,97.3c-0.1,0-0.2,0-0.3,0.1c-0.5-0.4-0.9-0.7-1.4-1.1c0.3-0.2,0.6-0.4,0.9-0.6
	C811.7,96.2,812,96.7,812.2,97.3z M797.6,86c-0.2-0.1-0.3-0.3-0.5-0.4c0.4-0.1,0.8-0.2,1.2-0.4c0,0,0,0,0.1,0
	C798.1,85.5,797.8,85.7,797.6,86z M799.3,85.9c0.1-0.1,0.2-0.2,0.4-0.4c0.2-0.2,0.2-0.5-0.2-0.6c-0.2,0-0.4,0-0.6,0
	c0-0.1,0.1-0.1,0-0.2c-0.1-0.3-0.7-0.1-0.9-0.1c-0.5,0.1-1,0.3-1.5,0.5c0.5-0.4,1.1-0.8,1.6-1.2c0.3-0.2,0.2-0.4-0.1-0.4
	c-0.4,0-0.8,0.1-1.1,0.3c-0.4,0.3-0.8,0.6-1.2,0.8l0,0c0.2-0.1,0.4-0.4,0.1-0.6c-0.1-0.1-0.3-0.1-0.5-0.1c0.2-0.1,0.4-0.3,0.6-0.4
	c0.2-0.1,0.5-0.4,0.1-0.6c-0.3-0.2-0.8,0-1.1,0.2c-0.2,0.1-0.4,0.3-0.6,0.5c-0.3-0.3-0.7-0.6-1-0.8c0.4-0.4,0.8-0.8,1.1-1.3
	c0.6,0.3,1.2,0.5,1.8,0.8c1.7,0.9,3.4,1.9,5,3.1l0,0c-0.4,0-0.8,0.1-1.1,0.4c-0.1,0.1-0.1,0.2-0.2,0.2
	C799.8,85.8,799.6,85.8,799.3,85.9z M802.1,89.2c0-0.1,0-0.2-0.1-0.3c-0.2-0.2-0.5-0.2-0.7-0.2c0.3-0.3,0.6-0.5,0.9-0.8
	c0.2-0.2,0.4-0.6,0.1-0.8s-0.9-0.1-1.2,0.1c-0.1,0.1-0.1,0.1-0.2,0.2c-0.3,0-0.7,0-0.9,0.2c0.5-0.6,1.1-1.2,1.7-1.8
	c0-0.1,0.1-0.1,0.1-0.2c0.4,0.3,0.8,0.6,1.2,0.9c0.5,0.4,1,0.8,1.5,1.1c-0.4-0.1-0.9,0-1.1,0.3C803,88.4,802.5,88.8,802.1,89.2z
	 M807.3,95.5c-0.8,0.4-1.7,0.8-2.5,1.2c0.5-0.7,1.2-1.2,2-1.6C807,95.2,807.2,95.3,807.3,95.5L807.3,95.5z M808.1,94.3
	c0.5-0.3,1.1-0.5,1.5-0.9c0.9-0.6-0.5-0.7-1-0.4c-0.4,0.3-0.8,0.5-1.2,0.7c-0.1-0.1-0.2-0.2-0.3-0.3c0.1-0.1,0.2-0.2,0.3-0.2
	c0.9-0.7-0.5-1-1-0.6c-0.1,0-0.1,0.1-0.2,0.1c-1.2-0.9-2.3-1.8-3.5-2.7c0.6-0.6,1.3-1.2,1.9-1.8c0.1-0.1,0.2-0.3,0.1-0.4
	c2.3,1.7,5,3.6,6.7,5.9c-0.4,0.1-0.7,0.3-0.6,0.4c0.1,0.2,0.2,0.5,0.3,0.7c-0.4,0.3-0.8,0.6-1.2,0.9
	C809.3,95.3,808.7,94.8,808.1,94.3z M799.2,102.5c0,0.5,0,1.1,0,1.6c-0.1,0-0.1,0-0.2,0c-0.3-0.7-0.6-1.5-1-2.2
	c0.5,0.1,1,0.1,1.6,0.2C799.4,102.1,799.2,102.3,799.2,102.5z M802.5,107.2c-0.3-0.8-0.6-1.7-0.9-2.5c0.4,0,0.7,0,1.1,0
	C802.7,105.5,802.6,106.4,802.5,107.2z M803.3,111.3c0.2-0.1,0.4-0.2,0.4-0.4c0.2-1.7,0.4-3.3,0.5-5c0.7,1.8,1.4,3.6,2.5,5.3
	C805.6,111.2,804.5,111.2,803.3,111.3z M807.1,108.4c-0.6-1.2-1.1-2.5-1.6-3.8c0.3,0,0.5,0,0.8,0c0.2,0,0.6-0.2,0.9-0.3
	C807.2,105.7,807.2,107.1,807.1,108.4z M807.1,100.4c0,1.2,0.1,2.4,0.1,3.6c-0.6,0-1.3,0-1.9,0c-0.2-0.5-0.4-1-0.7-1.6
	c-0.2-0.5-1.5-0.1-1.6,0.3c-0.1,0.4-0.1,0.8-0.1,1.2c-0.5,0-0.9,0-1.4,0c-0.2-0.6-0.4-1.2-0.6-1.9c0.6,0.1,1.1,0.2,1.7,0.3
	c0.4,0.1,1.8-0.6,1.3-0.6c-2-0.4-4.1-0.6-6.1-0.7c-0.2-0.4-0.3-0.9-0.5-1.3c0.5,0,1.1,0.1,1.6,0.1c2.9,0.2,5.8,0.3,8.7,0.1
	C807.3,100,807.1,100.2,807.1,100.4z M808.1,111.2c0.1-0.1,0.2-0.2,0.2-0.3c0.3-1.5,0.4-2.9,0.5-4.4c0.4,1.6,1,3.2,1.6,4.7
	C809.6,111.2,808.8,111.2,808.1,111.2z M808.6,99.8c0.2,0,0.4-0.1,0.7-0.1c0.2,1.7,0.5,3.4,0.8,5.1c-0.4-1.6-0.8-3.3-1.3-4.9
	C808.7,99.9,808.6,99.9,808.6,99.8z M810.5,98.4c-0.5,0.1-1,0.2-1.5,0.2h0.1c0.9-0.3,0.8-0.9-0.2-0.6c-0.5,0.1-0.9,0.3-1.4,0.5
	c0.5-0.5,1.2-1,1.8-1.4c0.5,0.4,0.9,0.7,1.4,1.1C810.6,98.2,810.6,98.3,810.5,98.4z M811.9,111.2c0.1-0.1,0.2-0.2,0.2-0.3v-0.1l0,0
	c0.1-1.2,0-2.4-0.1-3.6c0.3,0.7,0.6,1.4,1,2.1c0.3,0.4,1.8-0.1,1.5-0.6c-1.6-2.7-2-6-3.2-8.9c0.4-0.1,0.7-0.2,1-0.4
	c0.4,0.3,0.8,0.6,1.1,0.9c0.5,1.3,1,2.6,1.3,4c0.4,2.3,0.8,4.6,1.3,6.9C814.7,111.1,813.3,111.1,811.9,111.2z M810.2,146.5
	c-0.3,0.1-0.6,0.2-0.8,0.3c-1.1,1.4-2.3,2.6-3.2,4.1c-0.1,0.1-0.1,0.1-0.2,0.2c1.4-1.8,2.6-3.7,3.7-5.7c0.4,0,0.9,0,1.3-0.1
	C810.8,145.7,810.5,146.1,810.2,146.5z M811.7,144.4c-0.5,0-0.9,0-1.4,0.1c0.8-1.2,1.6-2.4,2.3-3.6c0.4,0,0.9,0,1.3,0
	C813.2,142.1,812.5,143.3,811.7,144.4z M814.2,140.1c-0.4,0-0.8,0-1.2,0c1-1.8,1.8-3.6,2.6-5.4c0.2,0,0.4,0,0.6,0
	c0.1,0,0.2,0,0.4-0.1C815.9,136.5,815.1,138.3,814.2,140.1z M816.7,134c-0.3,0-0.6,0-0.9,0.1c1.1-2.7,2-5.5,2.6-8.3
	C818.2,128.5,817.6,131.2,816.7,134z M818.9,115.5c-0.2,0-0.3,0.1-0.4,0.2c0-1.4,0.1-2.8,0-4.3v-0.1c0.1,0,0.3,0,0.4-0.1
	C818.9,112.7,819,114.1,818.9,115.5z M819.2,103c-0.3-1.2-0.6-2.3-0.9-3.5c-0.1-0.2-0.8-0.1-1.3,0.1c-0.7-1.3-1.4-2.6-2-3.9
	c0-0.1-0.2-0.1-0.4-0.1c-0.3-0.8-0.7-1.5-1.2-2.2c3.1,2.9,5.9,6.5,6.6,10.1C819.7,103.4,819.4,103.2,819.2,103z M798.6,161.5
	c-0.3,0.2-0.7,0.5-1,0.7c0-0.1,0-0.1,0-0.2c0-0.1-0.2-0.1-0.5-0.1C797.6,161.9,798.1,161.7,798.6,161.5z M798.9,162.5l-0.1,0.1
	c-0.3,0.1-0.6,0.3-0.9,0.4l0,0c0.2-0.2,0.4-0.3,0.6-0.5C798.6,162.5,798.8,162.5,798.9,162.5z M794.3,162.8c0.6-0.2,1.3-0.3,1.9-0.5
	c-0.1,0.1-0.2,0.2-0.2,0.3c0,0.2,0.1,0.5,0.1,0.7c-0.8-0.1-1.6-0.1-2.4-0.2C793.9,162.9,794.1,162.9,794.3,162.8z M787.5,162.9
	c0.1,0.1,0.3,0.3,0.5,0.4c-0.3,0.1-0.5,0.1-0.8,0.2c-1.1,0-2.1,0.1-3.2,0.2C785.1,163.4,786.3,163.1,787.5,162.9z M794.3,166.2
	c-3,0.4-6.1,0.5-9.2,0.6c-5,0.1-10-0.1-15-0.1c-1.7,0-3.3,0-5,0.1c1.9-0.3,3.9-0.5,5.8-0.7c2.2-0.2,4.3-0.3,6.5-0.4
	c-0.4,0.4-0.1,1,0.7,0.8c1.1-0.3,2.2-0.5,3.2-0.8c2.6,0,5.2,0.1,7.8,0.2c1.9,0.1,3.8,0.2,5.7,0.3
	C794.7,166.2,794.5,166.2,794.3,166.2z M799.2,165.3c-0.4,0.1-0.7,0.2-1.1,0.2c-2.2-0.1-4.3-0.2-6.5-0.3s-4.5-0.2-6.7-0.2
	c3.3-0.1,6.6-0.3,9.9-0.6c0.1,0,0.2-0.1,0.4-0.1c-0.2,0.1-0.3,0.3-0.5,0.4c-0.4,0.3,1,0.1,1.2,0s0.4-0.2,0.6-0.3
	c0.1,0.2,0.2,0.5,0.3,0.7c0.2,0.4,1.3-0.1,1.5-0.3c0.1-0.1,0.3-0.3,0.4-0.4c0.3,0,0.6,0.1,0.9,0.1
	C800.8,165,800.7,165.3,799.2,165.3z M801.4,163.5c-0.6,0-1.2,0-1.8-0.1c0.1-0.2,0.3-0.4,0.4-0.6c0.4-0.2,0.7-0.4,1.1-0.6
	c0.1,0.4,0.3,0.8,0.4,1.2C801.4,163.5,801.4,163.5,801.4,163.5z M809.7,156.2c0.7-0.3,1.3-0.5,2-0.8c0,0,0,0.1-0.1,0.1
	c-0.4,0.2-0.8,0.4-1.2,0.6c-0.6,0.3-1.3,0.5-1.9,0.8C808.9,156.7,809.3,156.5,809.7,156.2z M802.3,160.7v-0.1
	c1.4-0.8,2.9-1.6,4.4-2.3c-1,0.6-2.1,1.3-3.1,1.9C803.2,160.4,802.7,160.5,802.3,160.7z M803.2,163.2c-0.2-0.6-0.4-1.2-0.6-1.7
	c0.2-0.1,0.3-0.2,0.5-0.3c1.3-0.6,2.5-1.2,3.8-1.8c-0.4,0.5-0.7,1-1.1,1.5C804.9,161.7,804,162.5,803.2,163.2z M805.4,163.5
	c-0.1,0-0.2,0-0.4,0c0.1-0.1,0.1-0.1,0.2-0.2c0.4-0.2,0.9-0.4,1.3-0.7C806.2,162.9,805.8,163.2,805.4,163.5z M808.6,160.8
	c-0.8,0.5-1.6,0.9-2.4,1.4c0.4-0.5,0.7-1,1.1-1.5c0.4-0.3,0.8-0.7,1.2-1c0.1,0.4,0.1,0.7,0.2,1.1
	C808.7,160.8,808.7,160.8,808.6,160.8z M810.6,162.2c0-0.2-0.1-0.4-0.1-0.5c0.2-0.2,0.5-0.3,0.7-0.5
	C811,161.5,810.8,161.9,810.6,162.2z M811.9,159.9c-0.4,0.2-0.7,0.5-1.1,0.7c-0.1,0.1-0.3,0.2-0.4,0.2c0-0.1,0-0.1,0-0.2
	c0.6-0.5,1.3-0.9,1.9-1.4C812.2,159.5,812,159.7,811.9,159.9z M813,160.6c0.1-0.2,0.3-0.5,0.4-0.7c0,0,0,0,0.1,0c0,0.1,0,0.2,0,0.4
	C813.3,160.3,813.2,160.4,813,160.6z M815.1,159.9c0-0.1,0-0.1,0-0.2c0.1,0,0.1-0.1,0.2-0.1c0.1-0.1,0.2-0.2,0.3-0.3
	c0.1,0,0.1,0,0.2,0C815.6,159.6,815.4,159.8,815.1,159.9z M816.3,158.2c-0.4,0.2-0.9,0.5-1.3,0.8c0-0.1,0-0.1,0-0.2
	c0.5-0.3,1-0.6,1.4-0.9C816.4,158,816.4,158.1,816.3,158.2z"/>
<path class="st2" d="M757.6,157.9c-0.1,0.2,0,0.2,0.1,0.3C757.8,158.1,757.7,157.9,757.6,157.9C757.7,157.9,757.7,157.9,757.6,157.9
	z"/>
<path class="st1" d="M775.2,23.8L775.2,23.8c-0.1,0-0.3,0-0.4,0C774.9,23.8,775.1,23.8,775.2,23.8z"/>
<path class="st1" d="M775.1,24.9C775.1,24.9,775,24.9,775.1,24.9C775,25,775,25,774.9,25v-0.1C774.9,24.9,775,24.9,775.1,24.9z"/>
<path class="st1" d="M780.1,67.1c0,0.2,0.1,0.4,0.1,0.6h-0.1c0-0.1-0.1-0.1-0.1-0.2c0,0,0,0-0.1,0C780,67.2,780,67.1,780.1,67.1z"/>
<path class="st2" d="M744.9,114.9L744.9,114.9c0,0.1,0,0.1-0.1,0.2c0,0,0,0,0.1,0C744.9,115,744.9,115,744.9,114.9z"/>
<path class="st2" d="M746.8,121.7L746.8,121.7L746.8,121.7C746.9,121.7,746.8,121.7,746.8,121.7z"/>
<path class="st2" d="M750.8,104.9c0.2,0,0.3,0,0.5,0C751.1,105,750.9,105,750.8,104.9C750.7,105,750.8,105,750.8,104.9z"/>
<path class="st1" d="M817.9,111.2c0-0.1,0-0.1,0-0.2C817.8,111,817.9,111.1,817.9,111.2C817.9,111.1,817.9,111.1,817.9,111.2z"/>
<path class="st1" d="M820,117.8C820,117.7,820.1,117.7,820,117.8c0.1,0.2,0.1,0.5,0.1,0.8C820.1,118.3,820.1,118,820,117.8z"/>
<path class="st1" d="M798.9,87c0.1,0,0.1-0.1,0.2-0.1C799,87,799,87,798.9,87L798.9,87z"/>
<path class="st2" d="M728.8,137.5C728.8,137.4,728.8,137.4,728.8,137.5C728.8,137.4,728.8,137.4,728.8,137.5L728.8,137.5z"/>
<path class="st2" d="M744.9,158.3c0-0.1,0-0.1,0-0.2C744.9,158.2,744.9,158.3,744.9,158.3L744.9,158.3z"/>
<path class="st2" d="M744.1,161.7c0.1,0,0.2,0,0.2,0S744.3,161.6,744.1,161.7C744.2,161.6,744.2,161.7,744.1,161.7z"/>
<path class="st1" d="M813.7,162.3L813.7,162.3L813.7,162.3L813.7,162.3z"/>
<path class="st1" d="M816.3,162.4c0-0.1,0.1-0.3,0.1-0.4c0,0.1,0,0.3,0.1,0.4C816.4,162.4,816.4,162.4,816.3,162.4z"/>
<path class="st1" d="M808.9,163.5c-0.2,0-0.3,0-0.5,0l0,0C808.6,163.4,808.8,163.4,808.9,163.5z"/>
<path class="st1" d="M803.7,163.5L803.7,163.5l0.1-0.1C803.9,163.4,803.8,163.4,803.7,163.5C803.8,163.4,803.8,163.5,803.7,163.5z"
	/>
<path class="st1" d="M807.3,163.4l-0.1,0.1c0,0,0,0-0.1,0C807.2,163.4,807.2,163.4,807.3,163.4z"/>
<path class="st1" d="M833,165.7c-0.1,0-0.1,0-0.2,0c0-0.1,0-0.2,0-0.4c0.1,0,0.1,0,0.2,0C833,165.5,833,165.6,833,165.7z"/>
<path class="st1" d="M833.1,149.8c0-0.1,0-0.3,0-0.4l0,0C833.1,149.6,833.1,149.7,833.1,149.8z"/>
<path class="st1" d="M833,161.3c0,0.3,0,0.6,0,0.9l0,0C833,161.9,833,161.6,833,161.3z"/>
<path class="st1" d="M817.2,121.1L817.2,121.1C817.2,121.1,817.3,121.1,817.2,121.1C817.3,121.1,817.2,121.1,817.2,121.1z"/>
<path class="st1" d="M832.8,190.5c0.1,0,0.2,0,0.3,0l0,0c-0.2,0-0.3,0.1-0.5,0.1C832.7,190.6,832.7,190.5,832.8,190.5z"/>
<path class="st1" d="M832.4,181.5c-0.1,0-0.1,0-0.2,0v-0.1c0.1,0,0.2,0,0.4,0C832.5,181.4,832.4,181.4,832.4,181.5z"/>
<path class="st1" d="M812.5,101.4c0-0.1-0.1-0.2-0.1-0.2l0,0h0.1C812.5,101.2,812.5,101.3,812.5,101.4z"/>
<path class="st1" d="M805.4,102.9c-0.1,0-0.2,0-0.3-0.1c0.3,0,0.6,0,0.9,0C805.8,102.8,805.6,102.9,805.4,102.9z"/>
<path class="st1" d="M817.6,124.6c0,0.1,0.1,0.2,0.1,0.4c-0.1,0-0.1,0.1-0.2,0.1C817.5,124.9,817.6,124.8,817.6,124.6z"/>
<path class="st1" d="M836.4,191.7c-0.3,0.3-0.6,0.6-0.8,0.9c0.2-0.3,0.4-0.5,0.7-0.8C836.3,191.8,836.3,191.7,836.4,191.7z"/>
<path class="st2" d="M762.2,85.9c-0.3-0.2-0.6-0.4-0.8-0.6c-0.2-0.2-0.7-0.2-1.1,0c0,0,0,0-0.1,0c-0.5-0.4-1.9,0.3-1.3,0.9
	c1,0.8,1.8,1.7,2.6,2.6c0.4,0.5,1.9-0.1,1.5-0.7c-0.4-0.5-0.6-1-0.9-1.5C762.3,86.3,762.4,86.1,762.2,85.9z"/>
<path class="st2" d="M771.7,68.1c-0.2-3.7-0.4-7.4-0.6-11c0-0.8-1.7-0.6-1.6,0.1c0.2,3.7,0.4,7.4,0.6,11
	C770.1,69.1,771.7,68.8,771.7,68.1z"/>
<path class="st0" d="M719.4,147.9c-23.7,0-47.4,1.3-71-0.3c-0.7,0-1.7,1-0.6,1.1c23.6,1.6,47.3,0.3,71,0.3
	C719.6,149,720.5,147.9,719.4,147.9z"/>
<path class="st0" d="M694.5,156c-11.2,0-23-0.9-34,1.7c-1,0.2-0.8,1,0.2,0.8c11.2-2.7,23.4-1.6,34.8-1.6c11.8,0,23.7,0.1,35.5,0.3
	c0.6,0,1.7-0.9,0.6-0.9C719.3,156.1,706.9,156.1,694.5,156z"/>
<path class="st0" d="M674,158.4c-0.5,0-1.8,0.7-0.7,0.7c18.9,0,37.7-0.5,56.6-0.6c0.5,0,1.8-0.7,0.7-0.7
	C711.7,157.8,692.8,158.3,674,158.4z"/>
<path class="st2" d="M812.9,115.1c0.6,0,1.7-1,0.6-0.9c-10.7,0.5-21.4,0.8-32.2,0.8c-0.6,0-1.7,0.9-0.6,0.9
	C791.4,115.9,802.1,115.6,812.9,115.1z"/>
<path class="st1" d="M782.3,54.6c-1.8,0-3.7,0.2-5.5,0c-0.4-0.1-1.9,0.6-1,0.7c1.9,0.3,3.9,0,5.9,0
	C782.1,55.3,783.4,54.6,782.3,54.6z"/>
<path class="st1" d="M776.3,56.8c-1,0.2-0.8,0.9,0.2,0.7c1.6-0.3,3.3-0.2,5-0.2c0.6,0,1.7-0.9,0.6-0.9
	C780.2,56.5,778.3,56.4,776.3,56.8z"/>
<path class="st0" d="M662.5,76.3c-0.3,2-0.5,4.1-0.6,6.1c0,2.2,4.8,1.2,4.8-0.5c0-2.1,0.3-4.1,0.6-6.1
	C667.6,73.7,662.7,74.5,662.5,76.3z"/>
<g class="st3">
	<path class="st4" d="M866.5,87.6c0.2,3.6,1,7.2,2.4,10.7c1.3,3.5,3.1,6.7,5.4,9.4c2.3,2.8,4.9,5,7.9,6.6s6.2,2.5,9.8,2.5
		c12.1,0,20-5.4,23.7-16.1h9.2c-0.9,4.2-2.4,8-4.5,11.2c-2.1,3.3-4.7,6.1-7.6,8.3c-2.9,2.3-6.2,4-9.8,5.1c-3.6,1.2-7.3,1.8-11.1,1.8
		c-5.5,0-10.5-1.2-14.9-3.5c-4.5-2.3-8.2-5.4-11.4-9.4c-3.1-3.9-5.6-8.5-7.3-13.7c-1.7-5.2-2.5-10.7-2.5-16.5
		c0-5.4,0.8-10.5,2.5-15.4c1.7-4.9,4.1-9.2,7.2-12.9c3.1-3.7,6.9-6.6,11.3-8.8c4.4-2.2,9.4-3.3,14.9-3.3c5.3,0,10.1,1,14.4,2.9
		c4.3,2,7.9,4.7,10.9,8.2c3,3.5,5.3,7.6,6.9,12.4c1.6,4.8,2.4,10,2.4,15.6v4.7H866.5z M890.9,54.2c-3.3,0-6.5,0.7-9.4,2.1
		c-2.9,1.4-5.4,3.2-7.6,5.4c-2.2,2.2-3.9,4.8-5.2,7.7c-1.3,2.9-2.1,5.9-2.2,9h49.4c-0.1-3.4-0.7-6.6-1.9-9.5c-1.2-3-2.9-5.5-5-7.7
		c-2.1-2.2-4.7-3.9-7.8-5.1C898.1,54.8,894.7,54.2,890.9,54.2z"/>
	<path class="st4" d="M945.6,45.2h10.1v12.7c2.1-2.9,4.3-5.2,6.6-7c2.3-1.8,4.6-3.3,6.8-4.3c2.3-1.1,4.5-1.8,6.6-2.2
		c2.1-0.4,4.2-0.6,6.1-0.6c3.7,0,7.4,1.2,10.9,3.5c3.5,2.3,6.7,6.1,9.7,11.2c2-2.9,4.1-5.3,6.4-7.2c2.3-1.9,4.6-3.5,6.9-4.6
		c2.3-1.1,4.7-1.9,7-2.4c2.3-0.5,4.5-0.7,6.6-0.7c3.6,0,6.9,0.6,9.8,1.8s5.6,2.9,7.7,5.1c2.2,2.2,3.9,4.8,5.1,7.8
		c1.2,3,1.8,6.2,1.8,9.7v57.7h-10.1V71.5c0-3.3-0.5-6.1-1.5-8.3c-1-2.2-2.3-4-3.9-5.3c-1.6-1.3-3.4-2.2-5.4-2.8c-2-0.5-4-0.8-6-0.8
		c-2.6,0-5.2,0.6-7.8,1.7c-2.6,1.1-5,2.7-7,4.6c-2.1,2-3.8,4.3-5.1,6.9c-1.3,2.7-2,5.6-2,8.7v49.6h-10V71.5c0-3.3-0.5-6.1-1.5-8.3
		c-1-2.2-2.3-4-3.9-5.3s-3.3-2.2-5.2-2.8c-1.9-0.5-3.7-0.8-5.4-0.8c-3.3,0-6.3,0.7-9.1,2.2c-2.8,1.5-5.3,3.3-7.3,5.5
		c-2.1,2.2-3.7,4.7-4.9,7.3c-1.2,2.7-1.8,5.2-1.8,7.7v48.7h-10.1V45.2z"/>
	<path class="st4" d="M1083.9,87.6c0.2,3.6,1,7.2,2.4,10.7c1.3,3.5,3.1,6.7,5.4,9.4c2.3,2.8,4.9,5,7.9,6.6s6.2,2.5,9.8,2.5
		c12.1,0,20-5.4,23.7-16.1h9.2c-0.9,4.2-2.4,8-4.5,11.2c-2.1,3.3-4.7,6.1-7.6,8.3c-2.9,2.3-6.2,4-9.8,5.1c-3.6,1.2-7.3,1.8-11.1,1.8
		c-5.5,0-10.5-1.2-14.9-3.5c-4.5-2.3-8.2-5.4-11.4-9.4c-3.1-3.9-5.6-8.5-7.3-13.7c-1.7-5.2-2.5-10.7-2.5-16.5
		c0-5.4,0.8-10.5,2.5-15.4c1.7-4.9,4.1-9.2,7.2-12.9c3.1-3.7,6.9-6.6,11.3-8.8c4.4-2.2,9.4-3.3,14.9-3.3c5.3,0,10.1,1,14.4,2.9
		c4.3,2,7.9,4.7,10.9,8.2c3,3.5,5.3,7.6,6.9,12.4c1.6,4.8,2.4,10,2.4,15.6v4.7H1083.9z M1108.3,54.2c-3.3,0-6.5,0.7-9.4,2.1
		c-2.9,1.4-5.4,3.2-7.6,5.4c-2.2,2.2-3.9,4.8-5.2,7.7c-1.3,2.9-2.1,5.9-2.2,9h49.4c-0.1-3.4-0.7-6.6-1.9-9.5c-1.2-3-2.9-5.5-5-7.7
		c-2.1-2.2-4.7-3.9-7.8-5.1C1115.6,54.8,1112.1,54.2,1108.3,54.2z"/>
	<path class="st4" d="M1162.7,45.2h10.1v12.3c3.3-4.3,6.6-7.7,9.8-10.1c3.3-2.4,7-3.6,11.2-3.6c0.7,0,1.5,0,2.4,0.1s1.6,0.3,2.3,0.6
		v12c-1.6-0.6-3.3-0.9-5-0.9c-3.3,0-6.2,0.6-8.8,1.8c-2.6,1.2-4.7,2.8-6.5,4.7c-1.8,2-3.1,4.3-4,6.9c-0.9,2.6-1.4,5.3-1.4,8.1v48.6
		h-10.1V45.2z"/>
	<path class="st4" d="M1215.2,66.8c0.2-4,1.3-7.4,3.2-10.3c1.9-2.9,4.3-5.3,7.2-7.2c2.9-1.9,6.1-3.3,9.6-4.2c3.5-0.9,7-1.4,10.5-1.4
		c3.9,0,7.6,0.4,11.2,1.3c3.6,0.9,6.9,2.3,9.7,4.1c2.8,1.9,5.1,4.3,6.8,7.4c1.7,3,2.5,6.7,2.5,11V110c0,0.9,0.2,1.7,0.5,2.5
		c0.4,0.8,0.8,1.6,1.4,2.2c0.6,0.6,1.3,1.2,2.1,1.6c0.8,0.4,1.7,0.6,2.6,0.6c0.7,0,1.3,0,1.7-0.1c0.4-0.1,0.8-0.2,1.3-0.3v9.6
		c-1.5,0.5-2.7,0.8-3.8,1s-2.2,0.3-3.5,0.3c-1.5,0-3-0.4-4.6-1.1c-1.5-0.8-2.9-1.8-4-3.2c-1.2-1.4-2.1-3-2.9-4.9
		c-0.7-1.9-1.1-4-1.1-6.3c-2.5,3.1-5,5.7-7.5,7.6c-2.5,2-5,3.6-7.5,4.7c-2.5,1.2-5,2-7.5,2.5c-2.5,0.5-4.9,0.7-7.3,0.7
		c-3.2,0-6.2-0.5-9-1.6s-5.2-2.6-7.3-4.6c-2.1-2-3.7-4.4-4.9-7.1c-1.2-2.8-1.8-5.9-1.8-9.3c0-3.3,0.8-6.1,2.3-8.5
		c1.5-2.4,3.5-4.4,6-6.2s5.3-3.3,8.4-4.5s6.4-2.3,9.7-3.3c3.3-1,6.5-1.9,9.7-2.8s6-1.9,8.4-2.9c2.5-1.1,4.5-2.3,6-3.7
		c1.5-1.4,2.3-3.1,2.3-5.1c0-4.7-1.8-8.2-5.4-10.2c-3.6-2.1-8.6-3.1-15-3.1c-2.5,0-4.9,0.2-7.1,0.7c-2.2,0.5-4.2,1.2-5.9,2.2
		c-1.7,1-3.2,2.3-4.3,3.9c-1.1,1.6-1.8,3.5-2.2,5.7H1215.2z M1265.7,80.2c-1.5,1.8-3.5,3.2-6.2,4.4c-2.7,1.2-5.6,2.2-8.7,3.1
		c-3.2,0.9-6.4,1.8-9.7,2.6c-3.3,0.8-6.3,1.9-9,3c-2.7,1.2-4.9,2.6-6.6,4.3c-1.7,1.7-2.5,3.8-2.5,6.4c0,2.3,0.4,4.2,1.3,5.9
		c0.8,1.6,2,3,3.4,4s3,1.8,4.7,2.3c1.8,0.5,3.5,0.7,5.4,0.7c5.2,0,10.2-1.5,15.1-4.5c4.9-3,9.2-7.6,12.9-13.8V80.2z"/>
</g>
<g class="st3">
	<path class="st4" d="M1315.5,14.8c3.1,0,6.1,0.8,9.1,2.4c2.9,1.6,5.2,3.9,6.9,6.8c1.6,3,2.5,6,2.5,9.2c0,3.2-0.8,6.2-2.4,9.2
		s-3.9,5.2-6.8,6.8c-2.9,1.6-6,2.4-9.2,2.4c-3.2,0-6.2-0.8-9.2-2.4c-2.9-1.6-5.2-3.9-6.8-6.8c-1.6-2.9-2.4-6-2.4-9.2
		c0-3.2,0.8-6.3,2.5-9.2c1.7-3,4-5.2,6.9-6.8C1309.3,15.6,1312.4,14.8,1315.5,14.8z M1315.5,17.9c-2.6,0-5.1,0.7-7.6,2
		c-2.4,1.3-4.4,3.2-5.8,5.7c-1.4,2.5-2.1,5-2.1,7.7c0,2.7,0.7,5.2,2,7.6c1.4,2.4,3.3,4.3,5.7,5.7c2.4,1.4,5,2,7.6,2
		c2.7,0,5.2-0.7,7.6-2c2.4-1.4,4.3-3.3,5.7-5.7c1.3-2.4,2-5,2-7.6c0-2.7-0.7-5.2-2.1-7.7c-1.4-2.5-3.3-4.4-5.8-5.7
		C1320.5,18.5,1318,17.9,1315.5,17.9z M1321.4,36.2l3,0.9c-0.5,2-1.5,3.7-3.1,4.9c-1.6,1.2-3.5,1.8-5.8,1.8c-2.9,0-5.2-0.9-7-2.8
		c-1.8-1.9-2.7-4.4-2.7-7.7c0-2.1,0.4-4,1.2-5.6c0.8-1.6,2-2.8,3.5-3.6c1.5-0.8,3.2-1.2,5.2-1.2c2.2,0,4,0.5,5.4,1.6
		c1.4,1,2.4,2.4,2.9,4.2l-2.9,0.7c-0.5-1.2-1.2-2.1-2.2-2.8c-1-0.6-2.1-1-3.4-1c-1.9,0-3.4,0.7-4.6,2c-1.2,1.3-1.8,3.2-1.8,5.7
		s0.6,4.4,1.7,5.7c1.1,1.3,2.6,1.9,4.5,1.9c1.5,0,2.8-0.4,3.9-1.3C1320.3,38.8,1321,37.7,1321.4,36.2z"/>
</g>
</svg>
