<svg version="1.1" xmlns="http://www.w3.org/2000/svg" x="0" y="0" viewBox="-495 77.4 333 333" xml:space="preserve"><style>.s0{opacity:0.7;}</style><style type="text/css">
	.st0{opacity:0.4;}
	.st1{fill:#010101;}
	.st2{fill:#567D38;stroke:#000000;stroke-width:2;stroke-miterlimit:10;}
	.st3{fill:#85A83E;stroke:#000000;stroke-width:2;stroke-miterlimit:10;}
</style><g class="st0"><image width="1075" height="1033" transform="matrix(0.2396 0 0 0.2391 -445.6221 117.257)" opacity="0.7"/><path class="st1" d="M-313 249.9c3.9-3.9 5.9-9 5.9-14.2 0-5.1-2-10.3-5.9-14.2l0 0 -76.4-76.4c-7.8-7.8-20.5-7.8-28.3 0 -7.8 7.8-7.8 20.5 0 28.3l62.3 62.3 -62.3 62.3c-7.8 7.8-7.8 20.5 0 28.3 3.9 3.9 9 5.9 14.2 5.9s10.3-2 14.2-5.9L-313 249.9 -313 249.9z"/><path class="st1" d="M-226 221.6L-226 221.6l-76.4-76.4c-7.8-7.8-20.5-7.8-28.3 0 -7.8 7.8-7.8 20.5 0 28.3l62.3 62.3 -62.3 62.3c-7.8 7.8-7.8 20.5 0 28.3 3.9 3.9 9 5.9 14.2 5.9 5.1 0 10.3-2 14.2-5.9l76.4-76.4 0 0c3.9-3.9 5.9-9 5.9-14.2C-220.2 230.6-222.1 225.5-226 221.6z"/></g><image width="1088" height="1042" transform="matrix(0.2387 0 0 0.2391 -446.614 116.257)" opacity="0.7"/><path class="st2" d="M-313 249.9c3.9-3.9 5.9-9 5.9-14.2 0-5.1-2-10.3-5.9-14.2l0 0 -76.4-76.4c-7.8-7.8-20.5-7.8-28.3 0 -7.8 7.8-7.8 20.5 0 28.3l62.3 62.3 -62.3 62.3c-7.8 7.8-7.8 20.5 0 28.3 3.9 3.9 9 5.9 14.2 5.9 5.1 0 10.3-2 14.2-5.9L-313 249.9 -313 249.9z"/><path class="st3" d="M-226 221.6L-226 221.6l-76.4-76.4c-7.8-7.8-20.5-7.8-28.3 0 -7.8 7.8-7.8 20.5 0 28.3l62.3 62.3 -62.3 62.3c-7.8 7.8-7.8 20.5 0 28.3 3.9 3.9 9 5.9 14.2 5.9 5.1 0 10.3-2 14.2-5.9l76.4-76.4 0 0c3.9-3.9 5.9-9 5.9-14.2C-220.2 230.6-222.1 225.5-226 221.6z"/></svg>