<svg version="1.1" xmlns="http://www.w3.org/2000/svg" x="0" y="0" viewBox="-473 55.4 377 377" xml:space="preserve"><style type="text/css">
	.st0{fill:#567C13;stroke:#000000;stroke-width:2;stroke-miterlimit:10;}
	.st1{fill:#85A838;stroke:#000000;stroke-width:2;stroke-miterlimit:10;}
</style><image width="341" height="359" transform="matrix(1 0 0 1 -456 64.4)" opacity="0.7"/><path class="st0" d="M-163.1 172.9c-11.7-18.2-27.7-33.7-46.3-44.8 -3.5-2.1-7.8-2.1-11.3-0.2 -3.5 2-5.7 5.7-5.7 9.8v23.2c0 3.5 1.6 6.8 4.4 8.9 24.9 18.9 39.7 48.8 39.7 79.9 0 55.3-45 100.3-100.3 100.3s-100.3-45-100.3-100.3c0-31.1 14.8-60.9 39.7-79.9 2.8-2.1 4.4-5.4 4.4-8.9v-23.2c0-4-2.2-7.8-5.7-9.8s-7.8-1.9-11.3 0.2c-18.5 11.2-34.5 26.7-46.3 44.8 -14.8 22.9-22.6 49.5-22.6 76.8 0 37.9 14.8 73.6 41.6 100.4 26.8 26.8 62.5 41.6 100.4 41.6s73.6-14.8 100.4-41.6 41.6-62.5 41.6-100.4C-140.5 222.4-148.3 195.8-163.1 172.9z"/><path class="st1" d="M-295.6 262.5h26.2c5.8 0 10.5-4.7 10.5-10.5V100.6c0-5.8-4.7-10.5-10.5-10.5h-26.2c-5.8 0-10.5 4.7-10.5 10.5V252C-306.1 257.8-301.4 262.5-295.6 262.5z"/></svg>