<?xml version="1.0" encoding="utf-8"?>
<!-- Generator: Adobe Illustrator 19.1.0, SVG Export Plug-In . SVG Version: 6.00 Build 0)  -->
<svg version="1.1" id="Capa_1" xmlns="http://www.w3.org/2000/svg" xmlns:xlink="http://www.w3.org/1999/xlink" x="0px" y="0px"
	 viewBox="-399 -19.2 523.6 523.6" style="enable-background:new -399 -19.2 523.6 523.6;" xml:space="preserve">
<style type="text/css">
	.st0{fill:#567C13;stroke:#000000;stroke-width:4;stroke-miterlimit:10;}
	.st1{fill:#FFCE00;stroke:#000000;stroke-width:4;stroke-miterlimit:10;}
	.st2{fill:#85A838;stroke:#000000;stroke-width:4;stroke-miterlimit:10;}
	.st3{fill:#2B6466;stroke:#2B6466;stroke-width:4;stroke-miterlimit:10;}
</style>
<path class="st0" d="M-163.5,348.6h-228.1c-4.1,0-7.4,3.3-7.4,7.4v67.4c0,4.1,3.3,7.4,7.4,7.4h228.1c4.1,0,7.4-3.3,7.4-7.4V356
	C-156.1,351.9-159.4,348.6-163.5,348.6z M-277.5,409.2h-97.4v-39h97.4V409.2z"/>
<path class="st1" d="M-163.5,150.7h-228.1c-4.1,0-7.4,3.3-7.4,7.4v67.4c0,4.1,3.3,7.4,7.4,7.4h228.1c4.1,0,7.4-3.3,7.4-7.4v-67.4
	C-156.1,154-159.4,150.7-163.5,150.7z M-277.5,209.3h-97.4v-38.9h97.4V209.3z"/>
<path class="st2" d="M-163.5,250.1h-228.1c-4.1,0-7.4,3.3-7.4,7.4v67.4c0,4.1,3.3,7.4,7.4,7.4h228.1c4.1,0,7.4-3.3,7.4-7.4v-67.4
	C-156.1,253.4-159.4,250.1-163.5,250.1z M-277.5,307.8h-97.4v-38.9h97.4V307.8z"/>
<path class="st3" d="M30.9,151.9c-3.1,0-6.2,0.2-9.5,0.5c-18-23.5-45.9-37.1-75.8-36.7c-13.4-36.6-48.5-61.4-88-61.4
	c-48.2,0-87.9,36.5-93.1,83.3h20c5.1-35.8,35.9-63.5,73.1-63.5c33.3,0,62.6,22.4,71.3,54.6l2.2,8.1l8.3-0.8c2.5-0.3,5-0.4,7.5-0.4
	c24.8,0,47.8,12.4,61.6,33.1l3.6,5.3l6.3-1.1c4.5-0.8,8.5-1.1,12.4-1.1c40.8,0,74,33.2,74,74c0,40.8-33.2,74-74,74h-167.3v10.4
	c0,3.3-0.7,6.5-1.9,9.4H30.9c51.7,0,93.8-42.1,93.8-93.8C124.6,194,82.6,151.9,30.9,151.9z"/>
</svg>
