<?xml version="1.0" encoding="utf-8"?>
<!-- Generator: Adobe Illustrator 19.1.0, SVG Export Plug-In . SVG Version: 6.00 Build 0)  -->
<svg version="1.1" id="Layer_1" xmlns="http://www.w3.org/2000/svg" xmlns:xlink="http://www.w3.org/1999/xlink" x="0px" y="0px"
	 viewBox="0 0 50 50" style="enable-background:new 0 0 50 50;" xml:space="preserve">
<style type="text/css">
	.st0{fill:#CCCCCC;stroke:#3C2415;stroke-width:0.75;stroke-miterlimit:10;}
</style>
<path class="st0" d="M24.1,45.9C24.1,45.9,24.1,45.9,24.1,45.9c0.2,0.1,0.3,0.2,0.5,0.3c0,0,0,0,0,0c0.2,0.1,0.3,0.1,0.5,0.2
	c0,0,0,0,0,0c0.2,0,0.3,0.1,0.5,0.1c0,0,0,0,0,0c0.2,0,0.3,0,0.5-0.1c0,0,0,0,0,0c0.2,0,0.3-0.1,0.5-0.2c0,0,0,0,0,0
	c0.2-0.1,0.3-0.2,0.5-0.3c0,0,0,0,0,0c0.2-0.1,0.3-0.2,0.4-0.4c0,0,0,0,0,0L37,35.4c1.1-1.2,1.1-3.1,0-4.3c-1.1-1.2-2.9-1.2-4,0
	l-4.5,4.9V6.7c0-1.7-1.3-3.1-2.8-3.1c-1.6,0-2.8,1.4-2.8,3.1v29.3L18.3,31c-1.1-1.2-2.9-1.2-4,0c-0.5,0.6-0.8,1.4-0.8,2.2
	c0,0.8,0.3,1.6,0.8,2.2l9.3,10.2c0,0,0,0,0,0C23.8,45.7,24,45.8,24.1,45.9z"/>
</svg>
