<?xml version="1.0" encoding="utf-8"?>
<!-- Generator: Adobe Illustrator 19.1.0, SVG Export Plug-In . SVG Version: 6.00 Build 0)  -->
<svg version="1.1" id="Layer_1" xmlns="http://www.w3.org/2000/svg" xmlns:xlink="http://www.w3.org/1999/xlink" x="0px" y="0px"
	 viewBox="-227 37.4 867.1 414" style="enable-background:new -227 37.4 867.1 414;" xml:space="preserve">
<style type="text/css">
	.st0{fill:#878787;stroke:#231F20;stroke-miterlimit:10;}
	.st1{fill:#567D38;stroke:#231F20;stroke-miterlimit:10;}
	.st2{fill:#85A838;stroke:#231F20;stroke-miterlimit:10;}
	.st3{fill:#2B6466;stroke:#231F20;stroke-miterlimit:10;}
	.st4{fill:#85A83E;stroke:#231F20;stroke-miterlimit:10;}
	.st5{fill:#85A83E;stroke:#000000;stroke-miterlimit:10;}
	.st6{fill:#567C13;stroke:#231F20;stroke-miterlimit:10;}
</style>
<g>
	<g>
		<path class="st0" d="M27.5,423.8c0,6.2-4.3,11.2-9.4,11.2l0,0c-5.2,0-9.4-5-9.4-11.2v-342c0-6.2,4.3-11.2,9.4-11.2l0,0
			c5.2,0,9.4,5,9.4,11.2V423.8z"/>
	</g>
</g>
<g>
	<g>
		<path class="st0" d="M-39.3,389.2c-7.8,0-14-3.9-14-8.7l0,0c0-4.8,6.4-8.7,14-8.7H446c7.8,0,14,3.9,14,8.7l0,0
			c0,4.8-6.4,8.7-14,8.7H-39.3z"/>
	</g>
</g>
<g>
	<g>
		<path class="st1" d="M95.7,97v239H77.5V97H95.7 M107.5,87.4H65.9v258.2h41.6V87.4L107.5,87.4z"/>
	</g>
</g>
<g>
	<g>
		<path class="st2" d="M156.1,134.6V337h-20V134.6H156.1 M166.9,125.6h-41.6v220h41.6V125.6L166.9,125.6z"/>
	</g>
</g>
<g>
	<g>
		<path class="st3" d="M216.7,183.4V338h-22.6V183.4L216.7,183.4 M226.3,175.6h-41.6v170.2h41.6V175.6L226.3,175.6z"/>
	</g>
</g>
<g>
	<g>
		<path class="st4" d="M277.1,219.4V339h-24.8V219.4L277.1,219.4 M285.7,212.4h-41.6v133.4h41.6V212.4L285.7,212.4z"/>
	</g>
</g>
<g>
	<g>
		<path class="st5" d="M334.7,156.2v181h-21v-181L334.7,156.2 M344.9,147.8h-41.6v197.8h41.6V147.8L344.9,147.8z"/>
	</g>
</g>
<g>
	<g>
		<path class="st6" d="M394.9,183.4V338h-22.6V183.4L394.9,183.4 M404.3,175.6h-41.6v170.2h41.6V175.6L404.3,175.6z"/>
	</g>
</g>
</svg>
