<?xml version="1.0" encoding="utf-8"?>
<!-- Generator: Adobe Illustrator 19.1.0, SVG Export Plug-In . SVG Version: 6.00 Build 0)  -->
<svg version="1.1" id="Layer_1" xmlns="http://www.w3.org/2000/svg" xmlns:xlink="http://www.w3.org/1999/xlink" x="0px" y="0px"
	 viewBox="0 0 48.2 48.2" style="enable-background:new 0 0 48.2 48.2;" xml:space="preserve">
<style type="text/css">
	.st0{fill:#9D9FA2;}
	.st1{fill:#F7941E;}
	.st2{opacity:0.7;}
	.st3{fill:url(#SVGID_1_);}
	.st4{fill:url(#SVGID_2_);}
	.st5{opacity:0.4;fill:#FFFFFF;}
	.st6{opacity:0.7;fill:#FFFFFF;}
	.st7{fill:#FFFFFF;}
</style>
<g>
	<g>
		<path class="st0" d="M26,47.2c0,0.2-0.9,0.4-2,0.4c-1.1,0-2-0.2-2-0.4c0-0.2,0.9-0.4,2-0.4C25.2,46.8,26,47,26,47.2z"/>
	</g>
	<path class="st1" d="M0,24.1c0,13.3,10.8,24.1,24.1,24.1c13.3,0,24.1-10.8,24.1-24.1C48.2,10.8,37.4,0,24.1,0C10.8,0,0,10.8,0,24.1
		z"/>
	<g class="st2">
		<g>
			
				<linearGradient id="SVGID_1_" gradientUnits="userSpaceOnUse" x1="25.6445" y1="7.0156" x2="25.6445" y2="48.5571" gradientTransform="matrix(-1 0 0 -1 49.7304 51.8964)">
				<stop  offset="0" style="stop-color:#FFFFFF"/>
				<stop  offset="1.589710e-02" style="stop-color:#F7F7F7"/>
				<stop  offset="0.1324" style="stop-color:#BEBEBE"/>
				<stop  offset="0.2522" style="stop-color:#8B8B8B"/>
				<stop  offset="0.3727" style="stop-color:#606060"/>
				<stop  offset="0.4941" style="stop-color:#3D3D3D"/>
				<stop  offset="0.6165" style="stop-color:#222222"/>
				<stop  offset="0.7404" style="stop-color:#0F0F0F"/>
				<stop  offset="0.867" style="stop-color:#040404"/>
				<stop  offset="1" style="stop-color:#000000"/>
			</linearGradient>
			<path class="st3" d="M24.1,4.2c11.4,0,20.7,8.9,21,19.9c0-0.2,0-0.3,0-0.5c0-11.2-9.4-20.3-21-20.3c-11.6,0-21,9.1-21,20.3
				c0,0.2,0,0.3,0,0.5C3.4,13.1,12.7,4.2,24.1,4.2z"/>
		</g>
	</g>
	<linearGradient id="SVGID_2_" gradientUnits="userSpaceOnUse" x1="24.2363" y1="0.8232" x2="24.2363" y2="47.0019">
		<stop  offset="0" style="stop-color:#FFF200"/>
		<stop  offset="0.1047" style="stop-color:#FFE200"/>
		<stop  offset="0.2571" style="stop-color:#FFD400"/>
		<stop  offset="0.4309" style="stop-color:#FFCA06"/>
		<stop  offset="0.6427" style="stop-color:#FFC40C"/>
		<stop  offset="1" style="stop-color:#FFC20E"/>
	</linearGradient>
	<path class="st4" d="M47.3,23.9C47.3,36.7,37,47,24.2,47C11.5,47,1.1,36.7,1.1,23.9c0-12.8,10.3-23.1,23.1-23.1
		C37,0.8,47.3,11.2,47.3,23.9z"/>
	<path class="st5" d="M24,43.9c-5.6,0-13.1-2.6-18-8.2c3.9,5.8,10.5,9.6,18,9.6c8.2,0,15.3-4.5,19-11.2C38.8,40,31.6,43.9,24,43.9z"
		/>
	<path class="st6" d="M24.1,3.5c6.7,0,13.1,3.3,16.9,8.3c-3.4-5.6-9.7-9.4-16.9-9.4c-7.2,0-13.5,3.8-16.9,9.4
		C11,6.8,17.3,3.5,24.1,3.5z"/>
	<g>
		<path class="st1" d="M15.2,29.9c1.7,0,21.8,0,21.8,0c1.7,0,2.3-1.1,2.3-2v-6.3c0-0.9-0.6-2-2.3-2c0,0-20.1,0-21.8,0"/>
		<path class="st1" d="M18.9,19.6c-1.7,0-7.7,0-7.7,0c-1.7,0-2.3,1.1-2.3,2v6.3c0,0.9,0.6,2,2.3,2c0,0,6,0,7.7,0"/>
		<path class="st7" d="M20.1,28.8h-8.8c-0.7,0-1.1-0.3-1.1-0.9v-6.3c0-0.6,0.4-0.9,1.1-0.9h8.8 M14.1,20.7H37c0.7,0,1.1,0.3,1.1,0.9
			v6.3c0,0.6-0.4,0.9-1.1,0.9H14.1"/>
	</g>
</g>
</svg>
