<?xml version="1.0" encoding="utf-8"?>
<!-- Generator: Adobe Illustrator 19.1.0, SVG Export Plug-In . SVG Version: 6.00 Build 0)  -->
<svg version="1.1" id="Layer_1" xmlns="http://www.w3.org/2000/svg" xmlns:xlink="http://www.w3.org/1999/xlink" x="0px" y="0px"
	 viewBox="0 0 1323.4 487.4" style="enable-background:new 0 0 1323.4 487.4;" xml:space="preserve">
<style type="text/css">
	.st0{fill:#577D38;}
</style>
<g>
	<path class="st0" d="M544.2,261.9v22.5h12.5v2.4h-14.8v-24.9H544.2z"/>
	<path class="st0" d="M563.3,278.3c0.1,0.8,0.2,1.6,0.5,2.4c0.3,0.8,0.7,1.5,1.2,2.1s1.1,1.1,1.7,1.5c0.6,0.4,1.4,0.6,2.2,0.6
		c2.7,0,4.4-1.2,5.3-3.6h2.1c-0.2,0.9-0.5,1.8-1,2.5c-0.5,0.7-1,1.3-1.7,1.8c-0.7,0.5-1.4,0.9-2.2,1.1c-0.8,0.3-1.6,0.4-2.5,0.4
		c-1.2,0-2.3-0.3-3.3-0.8s-1.8-1.2-2.5-2.1c-0.7-0.9-1.2-1.9-1.6-3c-0.4-1.2-0.6-2.4-0.6-3.7c0-1.2,0.2-2.3,0.6-3.4
		c0.4-1.1,0.9-2,1.6-2.9c0.7-0.8,1.5-1.5,2.5-2s2.1-0.7,3.3-0.7c1.2,0,2.3,0.2,3.2,0.7c1,0.4,1.8,1,2.4,1.8c0.7,0.8,1.2,1.7,1.5,2.8
		c0.4,1.1,0.5,2.2,0.5,3.5v1.1h-13.2V278.3z M568.7,270.9c-0.7,0-1.4,0.2-2.1,0.5c-0.7,0.3-1.2,0.7-1.7,1.2s-0.9,1.1-1.2,1.7
		c-0.3,0.6-0.5,1.3-0.5,2h11c0-0.8-0.2-1.5-0.4-2.1c-0.3-0.7-0.6-1.2-1.1-1.7s-1.1-0.9-1.7-1.1C570.3,271.1,569.6,270.9,568.7,270.9
		z"/>
	<path class="st0" d="M584.5,263.6v5.3h2.8v2.3h-2.8v11.6c0,0.4,0.1,0.7,0.2,1c0.1,0.3,0.3,0.5,0.5,0.6c0.2,0.1,0.4,0.3,0.7,0.3
		c0.3,0.1,0.6,0.1,0.9,0.1c0.2,0,0.4,0,0.5,0c0.2,0,0.3,0,0.5-0.1v2.2c-0.3,0.1-0.6,0.1-1,0.2c-0.4,0-0.7,0.1-1.1,0.1
		c-0.5,0-0.9-0.1-1.3-0.2c-0.4-0.1-0.8-0.3-1.1-0.6c-0.3-0.3-0.6-0.6-0.8-1.1c-0.2-0.4-0.3-1-0.3-1.6v-12.5h-2.8v-2.3h2.8v-5.3
		H584.5z"/>
	<path class="st0" d="M606.3,283.5l5-14.6h2.4l-7.7,21.9c-0.2,0.7-0.5,1.3-0.8,1.8s-0.7,0.9-1,1.2c-0.3,0.3-0.7,0.5-1.1,0.7
		c-0.4,0.1-0.7,0.2-1,0.2s-0.6,0-0.9-0.1s-0.6-0.1-0.8-0.2v-2.2c0.1,0.1,0.3,0.1,0.6,0.2c0.2,0.1,0.5,0.1,0.8,0.1s0.6-0.1,0.9-0.3
		c0.3-0.2,0.5-0.6,0.8-1s0.5-1,0.8-1.7c0.2-0.7,0.5-1.4,0.8-2.3l-6.7-18.1h2.5L606.3,283.5z"/>
	<path class="st0" d="M615.9,277.9c0-1.3,0.2-2.5,0.5-3.6s0.9-2.1,1.5-2.9c0.7-0.8,1.5-1.5,2.5-2s2.1-0.7,3.4-0.7s2.4,0.2,3.4,0.7
		s1.8,1.2,2.5,2c0.7,0.8,1.2,1.8,1.6,2.9c0.4,1.1,0.5,2.3,0.5,3.6c0,1.3-0.2,2.5-0.5,3.6s-0.9,2.1-1.6,2.9s-1.5,1.5-2.5,2
		s-2.1,0.7-3.4,0.7s-2.4-0.2-3.4-0.7s-1.8-1.1-2.5-2c-0.7-0.8-1.2-1.8-1.5-2.9C616,280.4,615.9,279.2,615.9,277.9z M618.1,277.9
		c0,1,0.1,1.8,0.4,2.7c0.3,0.8,0.6,1.6,1.1,2.2c0.5,0.6,1.1,1.1,1.8,1.5c0.7,0.4,1.5,0.5,2.4,0.5s1.7-0.2,2.4-0.5
		c0.7-0.3,1.3-0.9,1.8-1.5s0.9-1.4,1.1-2.2c0.3-0.8,0.4-1.7,0.4-2.7s-0.1-1.8-0.4-2.7c-0.3-0.8-0.6-1.6-1.1-2.2s-1.1-1.1-1.8-1.5
		s-1.5-0.5-2.4-0.5s-1.7,0.2-2.4,0.5c-0.7,0.4-1.3,0.9-1.8,1.5s-0.9,1.4-1.1,2.2C618.2,276,618.1,276.9,618.1,277.9z"/>
	<path class="st0" d="M649.9,286.5h-2.2v-2.7c-0.5,0.7-1,1.2-1.6,1.6c-0.6,0.4-1.1,0.7-1.7,0.9c-0.6,0.2-1.1,0.4-1.7,0.4
		c-0.6,0.1-1.1,0.1-1.6,0.1c-0.8,0-1.5-0.1-2.2-0.4c-0.6-0.2-1.2-0.6-1.6-1.1s-0.8-1-1-1.7c-0.2-0.7-0.4-1.4-0.4-2.2v-12.9h2.3V281
		c0,0.6,0.1,1.1,0.2,1.6s0.4,0.8,0.7,1c0.3,0.3,0.7,0.5,1.1,0.6s0.9,0.2,1.4,0.2c0.8,0,1.6-0.1,2.3-0.4c0.7-0.3,1.4-0.7,1.9-1.1
		c0.5-0.5,1-1,1.3-1.6s0.5-1.2,0.5-1.9v-10.7h2.2L649.9,286.5L649.9,286.5z"/>
	<path class="st0" d="M654,268.9h2.2v2.7c0.7-1,1.5-1.7,2.2-2.2s1.6-0.8,2.5-0.8c0.2,0,0.3,0,0.5,0s0.4,0.1,0.5,0.1v2.7
		c-0.4-0.1-0.7-0.2-1.1-0.2c-0.7,0-1.4,0.1-2,0.4s-1.1,0.6-1.4,1.1s-0.7,1-0.9,1.5c-0.2,0.6-0.3,1.2-0.3,1.8v10.8H654L654,268.9
		L654,268.9z"/>
	<path class="st0" d="M688.7,286.8h-2.2v-2.7c-0.4,0.6-0.8,1.1-1.2,1.5c-0.4,0.4-0.9,0.7-1.3,1c-0.5,0.2-0.9,0.4-1.4,0.5
		s-0.9,0.1-1.3,0.1c-1.2,0-2.2-0.2-3.1-0.7s-1.7-1.2-2.3-2c-0.6-0.8-1.1-1.8-1.4-2.9c-0.3-1.1-0.5-2.3-0.5-3.6
		c0-1.3,0.2-2.5,0.5-3.6s0.8-2.1,1.4-3s1.4-1.5,2.2-2c0.9-0.5,1.9-0.7,3.1-0.7c0.4,0,0.8,0,1.3,0.1s0.9,0.2,1.4,0.5
		c0.5,0.2,0.9,0.5,1.4,0.9s0.9,0.8,1.3,1.4v-9.7h2.2L688.7,286.8L688.7,286.8z M686.5,277.6c-0.1-0.9-0.2-1.7-0.5-2.5
		c-0.3-0.8-0.6-1.5-1-2.1s-1-1.1-1.6-1.5s-1.3-0.6-2-0.6c-0.8,0-1.5,0.2-2.1,0.5c-0.6,0.3-1.2,0.9-1.6,1.5s-0.8,1.4-1,2.2
		c-0.2,0.8-0.3,1.8-0.3,2.7s0.1,1.9,0.3,2.7c0.2,0.8,0.6,1.6,1,2.2c0.4,0.6,1,1.1,1.6,1.5s1.3,0.5,2.1,0.5c0.8,0,1.5-0.2,2.2-0.5
		c0.6-0.4,1.2-0.9,1.6-1.5s0.8-1.4,1-2.2c0.2-0.8,0.3-1.7,0.3-2.7V277.6z"/>
	<path class="st0" d="M693.4,273.7c0.1-0.9,0.3-1.7,0.7-2.3c0.4-0.6,0.9-1.2,1.6-1.6c0.7-0.4,1.4-0.7,2.1-0.9
		c0.7-0.2,1.6-0.3,2.3-0.3c0.9,0,1.7,0.1,2.5,0.3c0.8,0.2,1.5,0.5,2.1,0.9s1.1,1,1.5,1.6c0.4,0.7,0.6,1.5,0.6,2.4v9.4
		c0,0.2,0,0.4,0.1,0.6s0.2,0.3,0.3,0.5c0.1,0.1,0.3,0.3,0.5,0.4c0.2,0.1,0.4,0.1,0.6,0.1s0.3,0,0.4,0s0.2,0,0.3-0.1v2.1
		c-0.3,0.1-0.6,0.2-0.8,0.2s-0.5,0.1-0.8,0.1s-0.7-0.1-1-0.3c-0.3-0.2-0.6-0.4-0.9-0.7c-0.3-0.3-0.5-0.7-0.6-1.1
		c-0.2-0.4-0.2-0.9-0.2-1.4c-0.5,0.7-1.1,1.3-1.7,1.7s-1.1,0.8-1.7,1.1c-0.6,0.3-1.1,0.4-1.7,0.5s-1.1,0.2-1.6,0.2
		c-0.7,0-1.4-0.1-2-0.4s-1.2-0.6-1.6-1c-0.5-0.4-0.8-1-1.1-1.6c-0.3-0.6-0.4-1.3-0.4-2.1c0-0.7,0.2-1.4,0.5-1.9s0.8-1,1.3-1.4
		s1.2-0.7,1.9-1c0.7-0.3,1.4-0.5,2.1-0.7c0.7-0.2,1.4-0.4,2.1-0.6s1.3-0.4,1.9-0.7c0.6-0.3,1-0.5,1.3-0.8c0.3-0.3,0.5-0.7,0.5-1.1
		c0-1.1-0.4-1.8-1.2-2.3c-0.8-0.5-1.9-0.7-3.3-0.7c-0.6,0-1.1,0.1-1.6,0.2s-0.9,0.3-1.3,0.5c-0.4,0.2-0.7,0.5-0.9,0.9
		c-0.2,0.4-0.4,0.8-0.5,1.3L693.4,273.7L693.4,273.7z M704.6,276.7c-0.3,0.4-0.8,0.7-1.4,1c-0.6,0.3-1.2,0.5-1.9,0.7
		c-0.7,0.2-1.4,0.4-2.1,0.6s-1.4,0.4-2,0.7c-0.6,0.3-1.1,0.6-1.5,0.9c-0.4,0.4-0.6,0.8-0.6,1.4c0,0.5,0.1,0.9,0.3,1.3
		c0.2,0.4,0.4,0.7,0.8,0.9c0.4,0.2,0.7,0.4,1.1,0.5s0.8,0.2,1.2,0.2c1.1,0,2.3-0.3,3.3-1c1.1-0.7,2-1.7,2.9-3.1v-4.1H704.6z"/>
	<path class="st0" d="M716.8,263.6v5.3h2.8v2.3h-2.8v11.6c0,0.4,0.1,0.7,0.2,1c0.1,0.3,0.3,0.5,0.5,0.6s0.4,0.3,0.7,0.3
		c0.3,0.1,0.6,0.1,0.9,0.1c0.2,0,0.4,0,0.5,0c0.2,0,0.3,0,0.5-0.1v2.2c-0.3,0.1-0.6,0.1-1,0.2c-0.4,0-0.7,0.1-1.1,0.1
		c-0.5,0-0.9-0.1-1.3-0.2s-0.8-0.3-1.1-0.6c-0.3-0.3-0.6-0.6-0.8-1.1c-0.2-0.4-0.3-1-0.3-1.6v-12.5h-2.8v-2.3h2.8v-5.3H716.8z"/>
	<path class="st0" d="M724.7,273.7c0.1-0.9,0.3-1.7,0.7-2.3c0.4-0.6,0.9-1.2,1.6-1.6c0.7-0.4,1.4-0.7,2.1-0.9
		c0.7-0.2,1.6-0.3,2.3-0.3c0.9,0,1.7,0.1,2.5,0.3c0.8,0.2,1.5,0.5,2.1,0.9s1.1,1,1.5,1.6c0.4,0.7,0.6,1.5,0.6,2.4v9.4
		c0,0.2,0,0.4,0.1,0.6s0.2,0.3,0.3,0.5c0.1,0.1,0.3,0.3,0.5,0.4c0.2,0.1,0.4,0.1,0.6,0.1s0.3,0,0.4,0s0.2,0,0.3-0.1v2.1
		c-0.3,0.1-0.6,0.2-0.8,0.2s-0.5,0.1-0.8,0.1s-0.7-0.1-1-0.3c-0.3-0.2-0.6-0.4-0.9-0.7c-0.3-0.3-0.5-0.7-0.6-1.1
		c-0.2-0.4-0.2-0.9-0.2-1.4c-0.5,0.7-1.1,1.3-1.7,1.7s-1.1,0.8-1.7,1.1c-0.6,0.3-1.1,0.4-1.7,0.5s-1.1,0.2-1.6,0.2
		c-0.7,0-1.4-0.1-2-0.4s-1.2-0.6-1.6-1c-0.5-0.4-0.8-1-1.1-1.6c-0.3-0.6-0.4-1.3-0.4-2.1c0-0.7,0.2-1.4,0.5-1.9s0.8-1,1.3-1.4
		s1.2-0.7,1.9-1c0.7-0.3,1.4-0.5,2.1-0.7c0.7-0.2,1.4-0.4,2.1-0.6s1.3-0.4,1.9-0.7c0.6-0.3,1-0.5,1.3-0.8c0.3-0.3,0.5-0.7,0.5-1.1
		c0-1.1-0.4-1.8-1.2-2.3c-0.8-0.5-1.9-0.7-3.3-0.7c-0.6,0-1.1,0.1-1.6,0.2s-0.9,0.3-1.3,0.5c-0.4,0.2-0.7,0.5-0.9,0.9
		c-0.2,0.4-0.4,0.8-0.5,1.3L724.7,273.7L724.7,273.7z M735.9,276.7c-0.3,0.4-0.8,0.7-1.4,1c-0.6,0.3-1.2,0.5-1.9,0.7
		c-0.7,0.2-1.4,0.4-2.1,0.6s-1.4,0.4-2,0.7c-0.6,0.3-1.1,0.6-1.5,0.9c-0.4,0.4-0.6,0.8-0.6,1.4c0,0.5,0.1,0.9,0.3,1.3
		c0.2,0.4,0.4,0.7,0.8,0.9c0.4,0.2,0.7,0.4,1.1,0.5s0.8,0.2,1.2,0.2c1.1,0,2.3-0.3,3.3-1c1.1-0.7,2-1.7,2.9-3.1v-4.1H735.9z"/>
	<path class="st0" d="M755.7,278.3c0.1,0.8,0.2,1.6,0.5,2.4s0.7,1.5,1.2,2.1s1.1,1.1,1.7,1.5s1.4,0.6,2.2,0.6c2.7,0,4.4-1.2,5.3-3.6
		h2.1c-0.2,0.9-0.5,1.8-1,2.5c-0.5,0.7-1,1.3-1.7,1.8s-1.4,0.9-2.2,1.1c-0.8,0.3-1.6,0.4-2.5,0.4c-1.2,0-2.3-0.3-3.3-0.8
		s-1.8-1.2-2.5-2.1s-1.2-1.9-1.6-3c-0.4-1.2-0.6-2.4-0.6-3.7c0-1.2,0.2-2.3,0.6-3.4c0.4-1.1,0.9-2,1.6-2.9c0.7-0.8,1.5-1.5,2.5-2
		s2.1-0.7,3.3-0.7c1.2,0,2.3,0.2,3.2,0.7c1,0.4,1.8,1,2.4,1.8c0.7,0.8,1.2,1.7,1.5,2.8c0.4,1.1,0.5,2.2,0.5,3.5v1.1h-13.2V278.3z
		 M761.1,270.9c-0.7,0-1.4,0.2-2.1,0.5c-0.7,0.3-1.2,0.7-1.7,1.2s-0.9,1.1-1.2,1.7c-0.3,0.6-0.5,1.3-0.5,2h11c0-0.8-0.2-1.5-0.4-2.1
		c-0.3-0.7-0.6-1.2-1.1-1.7s-1.1-0.9-1.7-1.1C762.7,271.1,762,270.9,761.1,270.9z"/>
	<path class="st0" d="M780.3,277.9l6.2,8.9h-2.9l-4.7-6.9l-4.8,6.9h-2.9l6.2-8.9l-6.2-9h2.9l4.8,6.8l4.7-6.8h2.9L780.3,277.9z"/>
	<path class="st0" d="M789.5,268.9h2.2v2.7c0.4-0.6,0.8-1.1,1.3-1.5s0.9-0.7,1.4-1c0.5-0.2,1-0.4,1.4-0.5c0.5-0.1,0.9-0.2,1.4-0.2
		c1.2,0,2.2,0.2,3.2,0.7c0.9,0.5,1.7,1.1,2.3,2c0.6,0.8,1.1,1.8,1.5,2.9c0.4,1.1,0.5,2.3,0.5,3.6c0,1.3-0.2,2.5-0.5,3.6
		s-0.8,2.1-1.4,3s-1.4,1.5-2.3,2s-2,0.7-3.2,0.7c-0.4,0-0.9-0.1-1.4-0.2c-0.5-0.1-1-0.3-1.5-0.5c-0.5-0.2-1-0.6-1.4-1
		s-0.9-0.9-1.3-1.5v10.2h-2.2V268.9z M791.7,278.1c0.1,0.8,0.3,1.7,0.6,2.5c0.3,0.8,0.7,1.5,1.2,2.1s1,1.1,1.7,1.5s1.3,0.6,2.1,0.6
		c0.8,0,1.5-0.2,2.2-0.5c0.7-0.4,1.2-0.9,1.7-1.5s0.8-1.4,1.1-2.2c0.3-0.8,0.4-1.8,0.4-2.7s-0.1-1.9-0.4-2.7
		c-0.3-0.8-0.6-1.6-1.1-2.2s-1-1.1-1.7-1.5s-1.4-0.5-2.2-0.5c-0.8,0-1.5,0.2-2.2,0.5c-0.7,0.3-1.2,0.9-1.7,1.5s-0.9,1.4-1.1,2.2
		c-0.3,0.8-0.4,1.7-0.4,2.7v0.2H791.7z"/>
	<path class="st0" d="M808.9,268.9h2.2v2.7c0.7-1,1.5-1.7,2.2-2.2s1.6-0.8,2.5-0.8c0.2,0,0.3,0,0.5,0s0.4,0.1,0.5,0.1v2.7
		c-0.4-0.1-0.7-0.2-1.1-0.2c-0.7,0-1.4,0.1-2,0.4s-1.1,0.6-1.4,1.1s-0.7,1-0.9,1.5c-0.2,0.6-0.3,1.2-0.3,1.8v10.8h-2.2L808.9,268.9
		L808.9,268.9z"/>
	<path class="st0" d="M822.5,278.3c0.1,0.8,0.2,1.6,0.5,2.4s0.7,1.5,1.2,2.1s1.1,1.1,1.7,1.5s1.4,0.6,2.2,0.6c2.7,0,4.4-1.2,5.3-3.6
		h2.1c-0.2,0.9-0.5,1.8-1,2.5c-0.5,0.7-1,1.3-1.7,1.8s-1.4,0.9-2.2,1.1c-0.8,0.3-1.6,0.4-2.5,0.4c-1.2,0-2.3-0.3-3.3-0.8
		s-1.8-1.2-2.5-2.1s-1.2-1.9-1.6-3c-0.4-1.2-0.6-2.4-0.6-3.7c0-1.2,0.2-2.3,0.6-3.4c0.4-1.1,0.9-2,1.6-2.9c0.7-0.8,1.5-1.5,2.5-2
		s2.1-0.7,3.3-0.7c1.2,0,2.3,0.2,3.2,0.7c1,0.4,1.8,1,2.4,1.8c0.7,0.8,1.2,1.7,1.5,2.8c0.4,1.1,0.5,2.2,0.5,3.5v1.1h-13.2V278.3z
		 M827.9,270.9c-0.7,0-1.4,0.2-2.1,0.5c-0.7,0.3-1.2,0.7-1.7,1.2s-0.9,1.1-1.2,1.7c-0.3,0.6-0.5,1.3-0.5,2h11c0-0.8-0.2-1.5-0.4-2.1
		c-0.3-0.7-0.6-1.2-1.1-1.7s-1.1-0.9-1.7-1.1C829.5,271.1,828.7,270.9,827.9,270.9z"/>
	<path class="st0" d="M842.3,281.3c0,0.7,0.1,1.2,0.4,1.7c0.2,0.5,0.5,0.8,0.9,1.1c0.4,0.3,0.8,0.5,1.4,0.6c0.5,0.1,1.1,0.2,1.7,0.2
		c0.5,0,1,0,1.6-0.1s1.1-0.2,1.5-0.4c0.5-0.2,0.8-0.5,1.1-0.9c0.3-0.4,0.4-0.8,0.4-1.4c0-0.4-0.1-0.8-0.4-1.2
		c-0.3-0.3-0.6-0.6-1.1-0.9c-0.4-0.3-0.9-0.5-1.5-0.7c-0.6-0.2-1.2-0.4-1.8-0.6c-0.7-0.2-1.4-0.5-2.1-0.8c-0.7-0.3-1.3-0.6-1.9-1
		s-1-0.9-1.4-1.5s-0.5-1.3-0.5-2.1c0-0.8,0.2-1.5,0.5-2.1s0.8-1.1,1.3-1.4c0.6-0.4,1.2-0.7,1.9-0.8s1.5-0.3,2.3-0.3
		c0.9,0,1.7,0.1,2.5,0.3c0.8,0.2,1.4,0.5,2,0.9s1,0.9,1.4,1.5c0.3,0.6,0.5,1.3,0.6,2.2h-2.3c-0.1-0.5-0.2-0.9-0.4-1.2
		c-0.2-0.3-0.5-0.6-0.9-0.8c-0.4-0.2-0.8-0.3-1.3-0.4s-1-0.1-1.5-0.1c-1.2,0-2.2,0.2-2.8,0.6c-0.6,0.4-1,1-1,1.7
		c0,0.4,0.1,0.7,0.4,1.1c0.3,0.4,0.6,0.6,1.1,0.9s1,0.5,1.5,0.8c0.5,0.3,1.1,0.5,1.7,0.7c0.7,0.2,1.4,0.5,2.1,0.8
		c0.7,0.3,1.3,0.6,1.9,1s1,0.9,1.4,1.4s0.5,1.1,0.5,1.8c0,1-0.2,1.8-0.6,2.5c-0.4,0.7-0.9,1.2-1.5,1.7c-0.6,0.4-1.4,0.8-2.2,1
		c-0.8,0.2-1.7,0.3-2.7,0.3c-0.9,0-1.7-0.1-2.5-0.4c-0.8-0.2-1.5-0.6-2.1-1.1s-1.1-1.1-1.5-1.8c-0.4-0.7-0.6-1.6-0.6-2.6h2.5V281.3z
		"/>
	<path class="st0" d="M860.1,281.3c0,0.7,0.1,1.2,0.4,1.7c0.2,0.5,0.5,0.8,0.9,1.1c0.4,0.3,0.8,0.5,1.4,0.6c0.5,0.1,1.1,0.2,1.7,0.2
		c0.5,0,1,0,1.6-0.1s1.1-0.2,1.5-0.4c0.5-0.2,0.8-0.5,1.1-0.9c0.3-0.4,0.4-0.8,0.4-1.4c0-0.4-0.1-0.8-0.4-1.2
		c-0.3-0.3-0.6-0.6-1.1-0.9c-0.4-0.3-0.9-0.5-1.5-0.7c-0.6-0.2-1.2-0.4-1.8-0.6c-0.7-0.2-1.4-0.5-2.1-0.8c-0.7-0.3-1.3-0.6-1.9-1
		s-1-0.9-1.4-1.5s-0.5-1.3-0.5-2.1c0-0.8,0.2-1.5,0.5-2.1s0.8-1.1,1.3-1.4c0.6-0.4,1.2-0.7,1.9-0.8s1.5-0.3,2.3-0.3
		c0.9,0,1.7,0.1,2.5,0.3c0.8,0.2,1.4,0.5,2,0.9s1,0.9,1.4,1.5c0.3,0.6,0.5,1.3,0.6,2.2h-2.3c-0.1-0.5-0.2-0.9-0.4-1.2
		c-0.2-0.3-0.5-0.6-0.9-0.8c-0.4-0.2-0.8-0.3-1.3-0.4s-1-0.1-1.5-0.1c-1.2,0-2.2,0.2-2.8,0.6c-0.6,0.4-1,1-1,1.7
		c0,0.4,0.1,0.7,0.4,1.1c0.3,0.4,0.6,0.6,1.1,0.9s1,0.5,1.5,0.8c0.5,0.3,1.1,0.5,1.7,0.7c0.7,0.2,1.4,0.5,2.1,0.8
		c0.7,0.3,1.3,0.6,1.9,1s1,0.9,1.4,1.4s0.5,1.1,0.5,1.8c0,1-0.2,1.8-0.6,2.5c-0.4,0.7-0.9,1.2-1.5,1.7c-0.6,0.4-1.4,0.8-2.2,1
		c-0.8,0.2-1.7,0.3-2.7,0.3c-0.9,0-1.7-0.1-2.5-0.4c-0.8-0.2-1.5-0.6-2.1-1.1s-1.1-1.1-1.5-1.8c-0.4-0.7-0.6-1.6-0.6-2.6h2.5V281.3z
		"/>
	<path class="st0" d="M887.9,263.6v5.3h2.8v2.3h-2.8v11.6c0,0.4,0.1,0.7,0.2,1c0.1,0.3,0.3,0.5,0.5,0.6s0.4,0.3,0.7,0.3
		c0.3,0.1,0.6,0.1,0.9,0.1c0.2,0,0.4,0,0.5,0c0.2,0,0.3,0,0.5-0.1v2.2c-0.3,0.1-0.6,0.1-1,0.2c-0.4,0-0.7,0.1-1.1,0.1
		c-0.5,0-0.9-0.1-1.3-0.2s-0.8-0.3-1.1-0.6c-0.3-0.3-0.6-0.6-0.8-1.1c-0.2-0.4-0.3-1-0.3-1.6v-12.5h-2.8v-2.3h2.8v-5.3H887.9z"/>
	<path class="st0" d="M897.5,261.8v9.6c0.9-1,1.9-1.7,2.9-2.1s2.1-0.6,3.1-0.6c0.8,0,1.6,0.1,2.3,0.4c0.7,0.3,1.3,0.6,1.8,1.1
		s0.9,1,1.2,1.7c0.3,0.7,0.4,1.4,0.4,2.1v12.9H907v-12.4c0-0.6-0.1-1.2-0.3-1.6c-0.2-0.4-0.5-0.8-0.9-1.1c-0.4-0.3-0.8-0.5-1.3-0.6
		s-1-0.2-1.5-0.2c-0.6,0-1.3,0.1-1.9,0.4c-0.7,0.3-1.2,0.6-1.8,1.1c-0.5,0.4-0.9,1-1.3,1.6c-0.3,0.6-0.5,1.3-0.5,2V287h-2.3v-25h2.3
		V261.8z"/>
	<path class="st0" d="M915.8,278.3c0.1,0.8,0.2,1.6,0.5,2.4s0.7,1.5,1.2,2.1s1.1,1.1,1.7,1.5s1.4,0.6,2.2,0.6c2.7,0,4.4-1.2,5.3-3.6
		h2.1c-0.2,0.9-0.5,1.8-1,2.5c-0.5,0.7-1,1.3-1.7,1.8s-1.4,0.9-2.2,1.1c-0.8,0.3-1.6,0.4-2.5,0.4c-1.2,0-2.3-0.3-3.3-0.8
		s-1.8-1.2-2.5-2.1s-1.2-1.9-1.6-3c-0.4-1.2-0.6-2.4-0.6-3.7c0-1.2,0.2-2.3,0.6-3.4c0.4-1.1,0.9-2,1.6-2.9c0.7-0.8,1.5-1.5,2.5-2
		s2.1-0.7,3.3-0.7c1.2,0,2.3,0.2,3.2,0.7c1,0.4,1.8,1,2.4,1.8c0.7,0.8,1.2,1.7,1.5,2.8c0.4,1.1,0.5,2.2,0.5,3.5v1.1h-13.2V278.3z
		 M921.2,270.9c-0.7,0-1.4,0.2-2.1,0.5c-0.7,0.3-1.2,0.7-1.7,1.2s-0.9,1.1-1.2,1.7c-0.3,0.6-0.5,1.3-0.5,2h11c0-0.8-0.2-1.5-0.4-2.1
		c-0.3-0.7-0.6-1.2-1.1-1.7s-1.1-0.9-1.7-1.1C922.8,271.1,922,270.9,921.2,270.9z"/>
	<path class="st0" d="M936.2,261.8v3.1H934v-3.1H936.2z M936.2,268.9v17.9H934v-17.9H936.2z"/>
	<path class="st0" d="M940.9,268.9h2.2v2.7c0.7-1,1.5-1.7,2.2-2.2s1.6-0.8,2.5-0.8c0.2,0,0.3,0,0.5,0s0.4,0.1,0.5,0.1v2.7
		c-0.4-0.1-0.7-0.2-1.1-0.2c-0.7,0-1.4,0.1-2,0.4s-1.1,0.6-1.4,1.1s-0.7,1-0.9,1.5c-0.2,0.6-0.3,1.2-0.3,1.8v10.8h-2.2L940.9,268.9
		L940.9,268.9z"/>
	<path class="st0" d="M960.9,261.8h2.3v9.7c0.4-0.5,0.8-0.9,1.2-1.3c0.4-0.4,0.9-0.7,1.4-0.9c0.5-0.2,0.9-0.4,1.4-0.5
		s0.9-0.2,1.3-0.2c1.2,0,2.2,0.2,3.1,0.7s1.7,1.2,2.3,2c0.6,0.8,1.1,1.8,1.4,3c0.3,1.1,0.4,2.3,0.4,3.6c0,1.3-0.2,2.5-0.5,3.6
		s-0.8,2.1-1.4,2.9s-1.4,1.5-2.3,2s-2,0.7-3.1,0.7c-0.4,0-0.9-0.1-1.3-0.2c-0.5-0.1-0.9-0.3-1.4-0.5c-0.5-0.2-0.9-0.6-1.3-1
		s-0.8-0.9-1.1-1.5v2.7H961L960.9,261.8L960.9,261.8z M963.1,277.9c0,1,0.1,1.9,0.3,2.7c0.2,0.8,0.6,1.6,1,2.2
		c0.4,0.6,1,1.1,1.6,1.5s1.4,0.5,2.2,0.5c0.8,0,1.5-0.2,2.2-0.5c0.6-0.4,1.2-0.9,1.6-1.5s0.8-1.4,1-2.2c0.2-0.8,0.4-1.7,0.4-2.7
		s-0.1-1.9-0.4-2.7c-0.3-0.8-0.6-1.6-1-2.2s-1-1.1-1.6-1.5s-1.4-0.5-2.2-0.5c-0.7,0-1.4,0.2-2,0.6s-1.1,0.9-1.5,1.5s-0.8,1.3-1,2.1
		c-0.3,0.8-0.4,1.6-0.5,2.5L963.1,277.9L963.1,277.9z"/>
	<path class="st0" d="M982.1,278.3c0.1,0.8,0.2,1.6,0.5,2.4s0.7,1.5,1.2,2.1s1.1,1.1,1.7,1.5s1.4,0.6,2.2,0.6c2.7,0,4.4-1.2,5.3-3.6
		h2.1c-0.2,0.9-0.5,1.8-1,2.5c-0.5,0.7-1,1.3-1.7,1.8s-1.4,0.9-2.2,1.1c-0.8,0.3-1.6,0.4-2.5,0.4c-1.2,0-2.3-0.3-3.3-0.8
		s-1.8-1.2-2.5-2.1s-1.2-1.9-1.6-3c-0.4-1.2-0.6-2.4-0.6-3.7c0-1.2,0.2-2.3,0.6-3.4c0.4-1.1,0.9-2,1.6-2.9c0.7-0.8,1.5-1.5,2.5-2
		s2.1-0.7,3.3-0.7c1.2,0,2.3,0.2,3.2,0.7c1,0.4,1.8,1,2.4,1.8c0.7,0.8,1.2,1.7,1.5,2.8c0.4,1.1,0.5,2.2,0.5,3.5v1.1h-13.2V278.3z
		 M987.6,270.9c-0.7,0-1.4,0.2-2.1,0.5c-0.7,0.3-1.2,0.7-1.7,1.2s-0.9,1.1-1.2,1.7c-0.3,0.6-0.5,1.3-0.5,2h11c0-0.8-0.2-1.5-0.4-2.1
		c-0.3-0.7-0.6-1.2-1.1-1.7s-1.1-0.9-1.7-1.1C989.2,271.1,988.4,270.9,987.6,270.9z"/>
	<path class="st0" d="M1002,281.3c0,0.7,0.1,1.2,0.4,1.7c0.2,0.5,0.5,0.8,0.9,1.1c0.4,0.3,0.8,0.5,1.4,0.6c0.5,0.1,1.1,0.2,1.7,0.2
		c0.5,0,1,0,1.6-0.1s1.1-0.2,1.5-0.4c0.5-0.2,0.8-0.5,1.1-0.9c0.3-0.4,0.4-0.8,0.4-1.4c0-0.4-0.1-0.8-0.4-1.2
		c-0.3-0.3-0.6-0.6-1.1-0.9c-0.4-0.3-0.9-0.5-1.5-0.7c-0.6-0.2-1.2-0.4-1.8-0.6c-0.7-0.2-1.4-0.5-2.1-0.8c-0.7-0.3-1.3-0.6-1.9-1
		s-1-0.9-1.4-1.5s-0.5-1.3-0.5-2.1c0-0.8,0.2-1.5,0.5-2.1s0.8-1.1,1.3-1.4c0.6-0.4,1.2-0.7,1.9-0.8s1.5-0.3,2.3-0.3
		c0.9,0,1.7,0.1,2.5,0.3c0.8,0.2,1.4,0.5,2,0.9s1,0.9,1.4,1.5c0.3,0.6,0.5,1.3,0.6,2.2h-2.3c-0.1-0.5-0.2-0.9-0.4-1.2
		c-0.2-0.3-0.5-0.6-0.9-0.8c-0.4-0.2-0.8-0.3-1.3-0.4s-1-0.1-1.5-0.1c-1.2,0-2.2,0.2-2.8,0.6c-0.6,0.4-1,1-1,1.7
		c0,0.4,0.1,0.7,0.4,1.1c0.3,0.4,0.6,0.6,1.1,0.9s1,0.5,1.5,0.8c0.5,0.3,1.1,0.5,1.7,0.7c0.7,0.2,1.4,0.5,2.1,0.8
		c0.7,0.3,1.3,0.6,1.9,1s1,0.9,1.4,1.4s0.5,1.1,0.5,1.8c0,1-0.2,1.8-0.6,2.5c-0.4,0.7-0.9,1.2-1.5,1.7c-0.6,0.4-1.4,0.8-2.2,1
		c-0.8,0.2-1.7,0.3-2.7,0.3c-0.9,0-1.7-0.1-2.5-0.4c-0.8-0.2-1.5-0.6-2.1-1.1s-1.1-1.1-1.5-1.8c-0.4-0.7-0.6-1.6-0.6-2.6h2.5V281.3z
		"/>
	<path class="st0" d="M1021.1,263.6v5.3h2.8v2.3h-2.8v11.6c0,0.4,0.1,0.7,0.2,1c0.1,0.3,0.3,0.5,0.5,0.6s0.4,0.3,0.7,0.3
		c0.3,0.1,0.6,0.1,0.9,0.1c0.2,0,0.4,0,0.5,0c0.2,0,0.3,0,0.5-0.1v2.2c-0.3,0.1-0.6,0.1-1,0.2c-0.4,0-0.7,0.1-1.1,0.1
		c-0.5,0-0.9-0.1-1.3-0.2s-0.8-0.3-1.1-0.6c-0.3-0.3-0.6-0.6-0.8-1.1c-0.2-0.4-0.3-1-0.3-1.6v-12.5h-2.8v-2.3h2.8v-5.3H1021.1z"/>
	<path class="st0" d="M1031.3,283.3v3.5h-3v-3.5H1031.3z"/>
</g>
</svg>
