<?xml version="1.0" encoding="utf-8"?>
<!-- Generator: Adobe Illustrator 19.1.0, SVG Export Plug-In . SVG Version: 6.00 Build 0)  -->
<svg version="1.1" id="Layer_1" xmlns="http://www.w3.org/2000/svg" xmlns:xlink="http://www.w3.org/1999/xlink" x="0px" y="0px"
	 viewBox="0 0 867.1 414" style="enable-background:new 0 0 867.1 414;" xml:space="preserve">
<style type="text/css">
	.st0{fill:#CCCCCC;}
	.st1{fill:#CCCCCC;stroke:#1D1D1B;stroke-miterlimit:10;}
	.st2{fill:#90BC3E;}
	.st3{fill:#030303;stroke:#284004;stroke-miterlimit:10;}
	.st4{fill:#FFFFFF;stroke:#284004;stroke-miterlimit:10;}
	.st5{fill:#010101;stroke:#284004;stroke-miterlimit:10;}
	.st6{fill:#FFCE06;}
	.st7{fill:#FFCE06;stroke:#1D1D1B;stroke-miterlimit:10;}
	.st8{fill:#FFFFFF;stroke:#1D1D1B;stroke-miterlimit:10;}
	.st9{fill:#010101;stroke:#1D1D1B;stroke-miterlimit:10;}
	.st10{fill:#2B6466;stroke:#000000;stroke-miterlimit:10;}
	.st11{fill:#FFFFFF;stroke:#000000;stroke-miterlimit:10;}
	.st12{fill:#010101;stroke:#000000;stroke-miterlimit:10;}
	.st13{fill:#86A83E;}
	.st14{fill:#577D38;}
	.st15{fill:#CDCCCC;stroke:#231F20;stroke-miterlimit:10;}
	.st16{fill:#CCCCCC;stroke:#000000;stroke-miterlimit:10;}
	.st17{fill:#363D4F;stroke:#000000;stroke-miterlimit:10;}
	.st18{fill:#567D38;}
	.st19{fill:#2B6466;}
	.st20{fill:#85A83E;}
</style>
<g>
	<g>
		<path class="st0" d="M225.8,370.1H81.2c-2.2,0-4-1.8-4-4v-1c0-2.2,1.8-4,4-4h144.6c2.2,0,4,1.8,4,4v1
			C229.7,368.4,227.9,370.1,225.8,370.1z"/>
		<path class="st1" d="M226.6,370.8H80.4c-2,0-3.7-1.8-3.7-4v-2.2c0-2.2,1.7-4,3.7-4h146.2c2,0,3.7,1.8,3.7,4v2.2
			C230.3,369,228.6,370.8,226.6,370.8z M80.4,361.9c-1.4,0-2.5,1.2-2.5,2.7v2.2c0,1.5,1.1,2.7,2.5,2.7h146.2c1.4,0,2.5-1.2,2.5-2.7
			v-2.2c0-1.5-1.1-2.7-2.5-2.7H80.4z"/>
	</g>
	<g>
		<g>
			<path class="st2" d="M218,275.5v-9.2h-8.6h-4.6H109c-4.1,0-7.8,1.8-10.4,4.6c-2.7,2.9-4.3,6.8-4.3,11.2c0,8.7,6.7,15.8,14.8,15.8
				h95.8h4.6h8.6v-9.2h-8.6v-13.2H218z"/>
			<path class="st3" d="M218,298.4H109c-8.4,0-15.2-7.3-15.2-16.2c0-4.3,1.6-8.4,4.5-11.5c2.9-3.1,6.7-4.8,10.7-4.8H218
				c0.2,0,0.4,0.2,0.4,0.4v9.2c0,0.2-0.2,0.4-0.4,0.4h-8.2v12.4h8.2c0.2,0,0.4,0.2,0.4,0.4v9.2C218.3,298.2,218.2,298.4,218,298.4z
				 M109,266.8c-3.8,0-7.4,1.6-10.2,4.5c-2.7,2.9-4.2,6.8-4.2,10.9c0,8.5,6.5,15.4,14.4,15.4h108.6v-8.4h-8.2
				c-0.2,0-0.4-0.2-0.4-0.4v-13.2c0-0.2,0.2-0.4,0.4-0.4h8.2v-8.4H109z"/>
		</g>
		<g>
			<g>
				<path class="st4" d="M111.7,273.5h91.6v17.2h-91.6c-4.4,0-8.1-3.9-8.1-8.6C103.6,277.4,107.2,273.5,111.7,273.5L111.7,273.5z"/>
				<path class="st5" d="M203.9,291.4h-92.2c-4.8,0-8.6-4.1-8.6-9.2c0-5.1,3.9-9.2,8.6-9.2h92.2V291.4z M111.7,274.2
					c-4.1,0-7.5,3.6-7.5,8c0,4.4,3.3,8,7.5,8h91v-15.9H111.7z"/>
			</g>
			<g>
				<rect x="104.7" y="277.2" class="st5" width="98.6" height="1.3"/>
			</g>
			<g>
				<rect x="104.7" y="285.8" class="st5" width="98.6" height="1.3"/>
			</g>
			<g>
				<rect x="103.6" y="281.7" class="st5" width="99.7" height="1.3"/>
			</g>
		</g>
	</g>
	<g>
		<path class="st6" d="M218,338.8v-9.2h-8.6h-4.6H109c-4.1,0-7.8,1.8-10.4,4.6c-2.7,2.9-4.3,6.8-4.3,11.2c0,8.7,6.7,15.8,14.8,15.8
			h95.8h4.6h8.6V352h-8.6v-13.2H218z"/>
		<path class="st7" d="M218,361.7H109c-8.4,0-15.2-7.3-15.2-16.2c0-4.3,1.6-8.4,4.5-11.5c2.9-3.1,6.7-4.8,10.7-4.8H218
			c0.2,0,0.4,0.2,0.4,0.4v9.2c0,0.2-0.2,0.4-0.4,0.4h-8.2v12.4h8.2c0.2,0,0.4,0.2,0.4,0.4v9.2C218.3,361.5,218.2,361.7,218,361.7z
			 M109,330c-3.8,0-7.4,1.6-10.2,4.5c-2.7,2.9-4.2,6.8-4.2,10.9c0,8.5,6.5,15.4,14.4,15.4h108.6v-8.4h-8.2c-0.2,0-0.4-0.2-0.4-0.4
			v-13.2c0-0.2,0.2-0.4,0.4-0.4h8.2V330H109z"/>
	</g>
	<g>
		<g>
			<path class="st8" d="M111.7,336.8h91.6V354h-91.6c-4.4,0-8.1-3.9-8.1-8.6C103.6,340.7,107.2,336.8,111.7,336.8L111.7,336.8z"/>
			<path class="st9" d="M203.9,354.7h-92.2c-4.8,0-8.6-4.1-8.6-9.2c0-5.1,3.9-9.2,8.6-9.2h92.2V354.7z M111.7,337.4
				c-4.1,0-7.5,3.6-7.5,8c0,4.4,3.3,8,7.5,8h91v-15.9H111.7z"/>
		</g>
		<g>
			<rect x="104.7" y="340.4" class="st9" width="98.6" height="1.3"/>
		</g>
		<g>
			<rect x="104.7" y="349.1" class="st9" width="98.6" height="1.3"/>
		</g>
		<g>
			<rect x="103.6" y="345" class="st9" width="99.7" height="1.3"/>
		</g>
	</g>
	<g>
		<path class="st10" d="M200.9,307.2v-9.2h-8.6h-4.6H91.9c-4.1,0-7.8,1.8-10.4,4.6c-2.7,2.9-4.3,6.8-4.3,11.2
			c0,8.7,6.7,15.8,14.8,15.8h95.8h4.6h8.6v-9.2h-8.6v-13.2H200.9z"/>
		<path class="st10" d="M200.9,330H91.9c-8.4,0-15.2-7.3-15.2-16.2c0-4.3,1.6-8.4,4.5-11.5c2.9-3.1,6.7-4.8,10.7-4.8h108.9
			c0.2,0,0.4,0.2,0.4,0.4v9.2c0,0.2-0.2,0.4-0.4,0.4h-8.2v12.4h8.2c0.2,0,0.4,0.2,0.4,0.4v9.2C201.3,329.8,201.1,330,200.9,330z
			 M91.9,298.4c-3.8,0-7.4,1.6-10.2,4.5c-2.7,2.9-4.2,6.8-4.2,10.9c0,8.5,6.5,15.4,14.4,15.4h108.6v-8.4h-8.2
			c-0.2,0-0.4-0.2-0.4-0.4v-13.2c0-0.2,0.2-0.4,0.4-0.4h8.2v-8.4H91.9z"/>
	</g>
	<g>
		<g>
			<path class="st11" d="M94.6,305.2h91.6v17.2H94.6c-4.4,0-8.1-3.9-8.1-8.6C86.6,309,90.2,305.2,94.6,305.2L94.6,305.2z"/>
			<path class="st12" d="M186.8,323H94.6c-4.8,0-8.6-4.1-8.6-9.2c0-5.1,3.9-9.2,8.6-9.2h92.2V323z M94.6,305.8c-4.1,0-7.5,3.6-7.5,8
				c0,4.4,3.3,8,7.5,8h91v-15.9H94.6z"/>
		</g>
		<g>
			<rect x="87.7" y="308.8" class="st12" width="98.6" height="1.3"/>
		</g>
		<g>
			<rect x="87.7" y="317.5" class="st12" width="98.6" height="1.3"/>
		</g>
		<g>
			<rect x="86.6" y="313.3" class="st12" width="99.7" height="1.3"/>
		</g>
	</g>
</g>
<ellipse class="st13" cx="155.1" cy="135.5" rx="9.4" ry="9.4"/>
<ellipse class="st14" cx="172.7" cy="82.5" rx="19.2" ry="18.9"/>
<ellipse class="st14" cx="109.4" cy="148.3" rx="9.4" ry="9.4"/>
<ellipse class="st14" cx="89.4" cy="115.7" rx="9.4" ry="9.4"/>
<ellipse class="st13" cx="47.8" cy="117.7" rx="9.4" ry="9.4"/>
<ellipse class="st13" cx="242.9" cy="67.7" rx="9.4" ry="9.4"/>
<ellipse class="st13" cx="186.7" cy="172.3" rx="11.8" ry="12.1"/>
<ellipse class="st13" cx="104.7" cy="77.8" rx="7.6" ry="7.7"/>
<ellipse class="st13" cx="218.5" cy="93" rx="6.2" ry="6.2"/>
<ellipse class="st14" cx="229.6" cy="124.6" rx="6.2" ry="6.2"/>
<path class="st15" d="M242.9,53.1c-8,0-14.6,6.5-14.6,14.6c0,2.4,0.6,4.8,1.8,6.9c-0.6,1.2-1.5,2.6-2.6,3.7
	c-1.1,1.1-2.4,2.1-3.6,2.7c-1.7-0.8-3.6-1.2-5.5-1.2c-4.7,0-9,2.5-11.3,6.5c-1.4,0.1-3,0-4.5-0.3c-1.3-0.3-2.7-0.8-3.9-1.4
	c0.1-0.7,0.1-1.4,0.1-2.1c0-14.3-11.6-25.9-25.9-25.9c-14.3,0-25.9,11.6-25.9,25.9c0,9.8,5.6,18.9,14.4,23.2c-0.2,2-0.8,4.3-1.6,6.5
	c-0.9,2.3-2,4.6-3.2,6.3c-0.1,0.2-0.2,0.3-0.4,0.5c-0.3,0-0.7,0-1,0c-9,0-16.4,7.4-16.4,16.4c0,0.5,0,1,0.1,1.6
	c-2,0.9-4.5,1.7-7,2.2c-2.6,0.5-5.4,0.8-7.6,0.7c-0.4,0-0.7,0-1-0.1c-3-4.8-8.2-7.7-13.8-7.7c-1.8,0-3.7,0.3-5.4,1
	c-0.7-0.7-1.4-1.6-2-2.4c-0.5-0.9-1-2-1.2-3c3.3-3.1,5.1-7.4,5.1-11.9c0-5.1-2.3-9.9-6.4-13c0.1-1.7,0.6-3.7,1.3-5.5
	c0.7-1.8,1.8-3.6,2.9-5c0.3,0,0.7,0,1,0c8,0,14.6-6.5,14.6-14.6c0-8-6.5-14.6-14.6-14.6c-8,0-14.5,6.5-14.5,14.6
	c0,4.5,2,8.6,5.5,11.4c-0.1,1.7-0.6,3.7-1.3,5.5c-0.7,1.8-1.7,3.5-2.8,4.8c-0.8-0.1-1.5-0.2-2.1-0.2c-7.5,0-14.1,5.1-15.9,12.4l0,0
	c-1.5,0.6-3.4,1.1-5.3,1.2c-1.8,0.1-3.6,0-5-0.3c-2.2-6.6-8.3-11-15.3-11c-8.9,0-16.2,7.3-16.2,16.2c0,8.9,7.3,16.2,16.2,16.2
	c7.7,0,14.3-5.4,15.8-12.9c1.4-0.6,3.3-1,5.1-1.1c1.7-0.1,3.4,0,4.8,0.3c2,7.1,8.5,12.1,15.9,12.1c1.5,0,2.9-0.2,4.4-0.6
	c0.8,0.7,1.6,1.7,2.2,2.6c0.6,1,1.1,2.2,1.3,3.4c-2.6,3-4.1,6.8-4.1,10.8c0,8.9,7.3,16.2,16.2,16.2c8.9,0,16.2-7.2,16.3-16
	c0.1,0,0.2-0.1,0.3-0.1c2-0.9,4.7-1.8,7.3-2.3c2.6-0.5,5.4-0.8,7.6-0.7c0.5,0,1,0.1,1.4,0.1c3.1,4,7.8,6.3,12.9,6.3
	c2.2,0,4.3-0.4,6.3-1.3c0.2,0.1,0.3,0.2,0.5,0.3c1.7,1.1,3.5,2.8,5.1,4.6c1.6,1.8,3,3.9,3.8,5.7c0.1,0.1,0.1,0.2,0.2,0.4
	c-2.2,3.2-3.4,6.9-3.4,10.8c0,10.5,8.5,19.1,19.1,19.1c10.5,0,19.1-8.5,19.1-19.1s-8.5-19.1-19.1-19.1c-3.2,0-6.3,0.8-9.1,2.4
	c-0.1,0-0.1-0.1-0.2-0.1c-1.7-1.1-3.5-2.8-5.1-4.6c-1.6-1.8-3-3.9-3.8-5.7c0-0.1-0.1-0.1-0.1-0.2c2.1-2.8,3.1-6.1,3.1-9.6
	c0-5.3-2.6-10.3-6.9-13.4c0-0.1,0-0.3,0-0.5c0.2-2.1,0.8-4.6,1.7-6.9c0.9-2.3,2-4.6,3.2-6.3l0.1-0.1c1.1,0.1,2.2,0.2,3.3,0.2
	c6.9,0,13.5-2.7,18.4-7.6c2.4-2.4,4.2-5.2,5.5-8.2c1.4-0.1,3,0,4.4,0.3c1.5,0.3,3,0.9,4.2,1.5c0.7,6.6,6.4,11.7,13.1,11.7
	c0.3,0,0.5,0,0.8,0c0.8,1.1,1.4,2.4,1.9,3.7c0.5,1.4,0.7,3,0.7,4.4c-3.2,2.4-5.1,6.2-5.1,10.2c0,7.1,5.7,12.8,12.8,12.8
	c7.1,0,12.8-5.8,12.8-12.8c0-7-5.6-12.7-12.6-12.8c-0.8-1.1-1.6-2.6-2.1-4c-0.5-1.6-0.8-3.3-0.7-4.7c2.9-2.5,4.6-6.1,4.6-10
	c0-2.2-0.6-4.4-1.6-6.3c0.6-1.2,1.5-2.5,2.5-3.6c1-1,2.3-2,3.4-2.6c2.1,1.1,4.5,1.7,6.9,1.7c8,0,14.5-6.5,14.5-14.6
	C257.5,59.6,251,53.1,242.9,53.1z M242.9,75.2c-4.2,0-7.6-3.4-7.6-7.6c0-4.2,3.4-7.6,7.6-7.6c4.2,0,7.5,3.4,7.5,7.6
	C250.5,71.8,247.1,75.2,242.9,75.2z M218.5,86.8c3.4,0,6.2,2.8,6.2,6.2c0,3.4-2.8,6.2-6.2,6.2c-3.4,0-6.2-2.8-6.2-6.2
	C212.3,89.6,215,86.8,218.5,86.8z M229.6,130.4c-3.2,0-5.8-2.6-5.8-5.8c0-3.2,2.6-5.8,5.8-5.8c3.2,0,5.8,2.6,5.8,5.8
	C235.4,127.8,232.8,130.4,229.6,130.4z M155.1,126.1c5.2,0,9.4,4.2,9.4,9.4c0,5.2-4.2,9.4-9.4,9.4c-5.2,0-9.4-4.2-9.4-9.4
	C145.7,130.3,150,126.1,155.1,126.1z M172.9,101.5c-10.4,0-18.9-8.5-18.9-18.9c0-10.4,8.5-18.9,18.9-18.9c10.4,0,18.9,8.5,18.9,18.9
	c0,5-2,9.8-5.5,13.4C182.7,99.5,178,101.5,172.9,101.5z M89.4,106.2c5.2,0,9.5,4.2,9.5,9.5c0,5.2-4.3,9.5-9.5,9.5
	c-5.2,0-9.5-4.3-9.5-9.5C79.9,110.4,84.1,106.2,89.4,106.2z M104.7,70.1c4.2,0,7.6,3.4,7.6,7.6c0,4.2-3.4,7.6-7.6,7.6
	c-4.1,0-7.5-3.4-7.5-7.6C97.1,73.5,100.5,70.1,104.7,70.1z M109.3,157.5c-5.1,0-9.2-4.1-9.2-9.2c0-5.1,4.1-9.2,9.2-9.2
	c5.1,0,9.3,4.1,9.3,9.2C118.6,153.4,114.4,157.5,109.3,157.5z M47.8,126.8c-5.1,0-9.2-4.1-9.2-9.2c0-5.1,4.1-9.2,9.2-9.2
	c5.1,0,9.2,4.1,9.2,9.2C57,122.7,52.9,126.8,47.8,126.8z M186.7,184.4c-6.6,0-12.1-5.4-12.1-12.1c0-6.6,5.4-12.1,12.1-12.1
	c6.6,0,12.1,5.4,12.1,12.1S193.3,184.4,186.7,184.4z"/>
<path class="st16" d="M428.4,280.3c0.7-0.6,1.5-1.2,2.2-1.8c0.6,0.4,1.4,0.5,2.1-0.1c20.9-16.5,41.4-33.8,61.5-51.8c0,0,0,0,0,0
	c0,0,0,0,0,0c0.2-0.1,0.3-0.3,0.5-0.4c0.9-0.8,1-2.1,0.6-3.2c0.9-0.3,1.5-1.1,1.8-2c0.3-0.1,0.5-0.3,0.7-0.5
	c0.8,0.6,1.5,1.1,1.8,1.4c2.2,1.7,4.3-2.4,2.1-4.2c-1.1-0.9-2.2-1.9-3.4-2.8c-0.2-0.6-0.7-1.1-1.4-1.3c-0.1,0-0.1,0-0.2,0
	c-0.3-0.2-0.6-0.5-0.9-0.7c0-0.7-0.3-1.4-0.9-1.9c-19.3-17.3-39.2-33.5-59.8-48.4c-2.3-1.7-4.5,2.5-2.2,4.4c2.4,2,4.8,4,7.2,5.9
	c-0.3-0.2-0.7-0.3-1.1-0.4c-0.5-0.2-1-0.5-1.5-0.7c-1.2-0.5-2.3,0.4-2.8,1.6c-0.1,0.1-0.2,0.3-0.3,0.4c-1.3-0.8-2.7-1.6-4-2.5
	c-2.4-1.5-4.7,2.8-2.3,4.5c2.5,1.7,4.9,3.3,7.4,4.9c-0.6,1-0.7,2.4,0.2,3.4c0.2,0.2,0.5,0.5,0.7,0.7c-2.1-1.1-4.2-2.1-6.3-3.2
	c-2.6-1.3-3.8,3.8-1.3,5.1c3.4,1.7,6.8,3.5,10.2,5.2c-0.1,0-0.1,0-0.2-0.1c-1-0.3-2,0.3-2.6,1.2c-2.4-0.9-4.9-1.8-7.3-2.7
	c-2.7-1-4,4.1-1.3,5.1c5,1.9,10,3.8,15,5.6c-1.4,0-2.8,0-4.2,0.1c-0.8,0-1.3,0.4-1.8,1c-3.3-0.5-6.6-0.9-9.9-1.3
	c-1.6-0.2-2.3,1.4-2.2,2.9c-7.2,0.1-14.4,0.2-21.6,0.4c-18.4-0.9-36.9-0.5-55.3,1.3c-17.1-1.7-34.6-2.8-50.9,2
	c-2.2,0.6-1.9,4.8,0.4,4.7c3.9-0.1,7.7-0.3,11.6-0.4c-0.2,0.3-0.3,0.6-0.4,1c-2.2,0.1-4.4,0.2-6.7,0.3c-2.6,0.1-2.7,4.8-0.1,4.9
	c1.2,0,2.3,0.1,3.5,0.1c-0.4,1.5,0.3,3.5,1.8,3.4c10.3-0.8,20.6-1.4,30.9-1.9c-0.4,0.5-0.7,1.2-0.7,1.9c-13.4,0.1-26.8,0.4-40.2,0.8
	c-2.7,0.1-2.8,5-0.1,5.1c1.4,0,2.8,0,4.3,0.1c0.3,0.4,0.8,0.6,1.4,0.6c10.8,0,21.5-0.1,32.3-0.4c20.3,0,40.7-0.3,61-0.9
	c11.2,0.1,22.5,0.3,33.7,0.5c-1.2,1.8,0,5.3,2.5,4.8c1.5-0.3,3-0.6,4.6-1c-2.2,1.4-4.3,2.8-6.4,4.5c-0.3,0.2-0.5,0.5-0.6,0.8
	c-0.2,0.1-0.5,0.2-0.7,0.3c-2.7,1.3-1.9,6.4,1.1,5.5c0.9-0.3,1.8-0.5,2.6-0.8c-2.4,2.1-4.8,4.4-7.1,6.7c-2.2,2.3,0.5,5.8,2.8,4.6
	c3.1-1.6,6.2-3.2,9.3-4.8c0.3,1.3,1.2,2.4,2.5,2.2c-2,2-3.9,4.1-5.8,6.4c-0.2,0.2-0.3,0.5-0.5,0.8c-0.6,0.5-1.2,1-1.8,1.5
	c-2.5,2.1-0.4,7,2.3,5.1c8-5.6,16.1-11.2,24.3-16.6c-0.6,0.6-1.3,1.2-1.9,1.8c-10.4,8.5-20.6,17.2-30.7,26.1
	C423.6,277.4,425.7,282.4,428.4,280.3z M384.6,209.1c2.7-0.1,5.4-0.2,8.1-0.4c11.6,0.3,23.1,1.1,34.6,2.4c-0.1,0.1-0.2,0.3-0.3,0.4
	c-6.8-0.1-13.5-0.2-20.3-0.3C399.3,210.5,391.9,209.8,384.6,209.1z M345.2,210.7c3.2,0.2,6.5,0.5,9.7,0.7c-5,0-10-0.1-15-0.1
	C341.7,211.1,343.5,210.9,345.2,210.7z M348.4,219.2c0.1,0,0.3,0,0.4,0c13.9,0.4,27.8,0.7,41.6,1.1c-2.4,0-4.7,0.1-7.1,0.1
	C371.8,220,360.1,219.6,348.4,219.2z"/>
<g>
	<g>
		<path class="st17" d="M611.7,304.7c0,3.1-3.1,5.6-6.8,5.6l0,0c-3.8,0-6.8-2.5-6.8-5.6v-171c0-3.1,3.1-5.6,6.8-5.6l0,0
			c3.8,0,6.8,2.5,6.8,5.6V304.7z"/>
	</g>
</g>
<g>
	<g>
		<path class="st17" d="M576.6,287.4c-3.8,0-6.8-2.5-6.8-5.6l0,0c0-3.1,3.1-5.6,6.8-5.6h236.4c3.8,0,6.8,2.5,6.8,5.6l0,0
			c0,3.1-3.1,5.6-6.8,5.6H576.6z"/>
	</g>
</g>
<g>
	<g>
		<path class="st18" d="M644.3,141.3v119.5h-9.1V141.3H644.3 M650.2,136.5h-20.8v129.1h20.8V136.5L650.2,136.5z"/>
	</g>
</g>
<g>
	<g>
		<path class="st6" d="M674.5,160.1v101.2h-10V160.1H674.5 M679.9,155.6h-20.8v110h20.8V155.6L679.9,155.6z"/>
	</g>
</g>
<g>
	<g>
		<path class="st19" d="M704.8,184.5v77.3h-11.3v-77.3H704.8 M709.6,180.6h-20.8v85.1h20.8V180.6L709.6,180.6z"/>
	</g>
</g>
<g>
	<g>
		<path class="st20" d="M735,202.5v59.8h-12.4v-59.8H735 M739.3,199h-20.8v66.7h20.8V199L739.3,199z"/>
	</g>
</g>
<g>
	<g>
		<path class="st20" d="M763.8,170.9v90.5h-10.5v-90.5H763.8 M768.9,166.7h-20.8v98.9h20.8V166.7L768.9,166.7z"/>
	</g>
</g>
<g>
	<g>
		<path class="st6" d="M793.9,184.5v77.3h-11.3v-77.3H793.9 M798.6,180.6h-20.8v85.1h20.8V180.6L798.6,180.6z"/>
	</g>
</g>
</svg>
