<?xml version="1.0" encoding="utf-8"?>
<!-- Generator: Adobe Illustrator 19.1.0, SVG Export Plug-In . SVG Version: 6.00 Build 0)  -->
<svg version="1.1" id="Layer_1" xmlns="http://www.w3.org/2000/svg" xmlns:xlink="http://www.w3.org/1999/xlink" x="0px" y="0px"
	 viewBox="-227 37.4 867.1 414" style="enable-background:new -227 37.4 867.1 414;" xml:space="preserve">
<style type="text/css">
	.st0{fill:#CCCCCC;}
	.st1{fill:#CCCCCC;stroke:#1D1D1B;stroke-miterlimit:10;}
	.st2{fill:#90BC3E;}
	.st3{fill:#030303;stroke:#284004;stroke-miterlimit:10;}
	.st4{fill:#FFFFFF;stroke:#284004;stroke-miterlimit:10;}
	.st5{fill:#010101;stroke:#284004;stroke-miterlimit:10;}
	.st6{fill:#FFCE06;}
	.st7{fill:#FFCE06;stroke:#1D1D1B;stroke-miterlimit:10;}
	.st8{fill:#FFFFFF;stroke:#1D1D1B;stroke-miterlimit:10;}
	.st9{fill:#010101;stroke:#1D1D1B;stroke-miterlimit:10;}
	.st10{fill:#2B6466;stroke:#000000;stroke-miterlimit:10;}
	.st11{fill:#FFFFFF;stroke:#000000;stroke-miterlimit:10;}
	.st12{fill:#010101;stroke:#000000;stroke-miterlimit:10;}
	.st13{fill:#86A83E;}
	.st14{fill:#577D38;}
	.st15{fill:#CDCCCC;stroke:#231F20;stroke-miterlimit:10;}
	.st16{fill:#363D4F;stroke:#000000;stroke-miterlimit:10;}
	.st17{fill:#567D38;}
	.st18{fill:#85A838;}
	.st19{fill:#2B6466;}
	.st20{fill:#85A83E;}
	.st21{fill:#567C13;}
	.st22{fill:#878787;}
</style>
<g>
	<g>
		<path class="st0" d="M11,203.5h-144.6c-2.2,0-4-1.8-4-4v-1c0-2.2,1.8-4,4-4H11c2.2,0,4,1.8,4,4v1C14.9,201.8,13.1,203.5,11,203.5z
			"/>
		<path class="st1" d="M11.8,204.2h-146.2c-2,0-3.7-1.8-3.7-4V198c0-2.2,1.7-4,3.7-4H11.8c2,0,3.7,1.8,3.7,4v2.2
			C15.5,202.4,13.8,204.2,11.8,204.2z M-134.4,195.3c-1.4,0-2.5,1.2-2.5,2.7v2.2c0,1.5,1.1,2.7,2.5,2.7H11.8c1.4,0,2.5-1.2,2.5-2.7
			V198c0-1.5-1.1-2.7-2.5-2.7H-134.4z"/>
	</g>
	<g>
		<g>
			<path class="st2" d="M3.2,108.9v-9.2h-8.6H-10h-95.8c-4.1,0-7.8,1.8-10.4,4.6c-2.7,2.9-4.3,6.8-4.3,11.2
				c0,8.7,6.7,15.8,14.8,15.8h95.8h4.6h8.6v-9.2h-8.6v-13.2L3.2,108.9L3.2,108.9z"/>
			<path class="st3" d="M3.2,131.8h-109c-8.4,0-15.2-7.3-15.2-16.2c0-4.3,1.6-8.4,4.5-11.5c2.9-3.1,6.7-4.8,10.7-4.8h109
				c0.2,0,0.4,0.2,0.4,0.4v9.2c0,0.2-0.2,0.4-0.4,0.4H-5v12.4h8.2c0.2,0,0.4,0.2,0.4,0.4v9.2C3.5,131.6,3.4,131.8,3.2,131.8z
				 M-105.8,100.2c-3.8,0-7.4,1.6-10.2,4.5c-2.7,2.9-4.2,6.8-4.2,10.9c0,8.5,6.5,15.4,14.4,15.4H2.8v-8.4h-8.2
				c-0.2,0-0.4-0.2-0.4-0.4V109c0-0.2,0.2-0.4,0.4-0.4h8.2v-8.4H-105.8z"/>
		</g>
		<g>
			<g>
				<path class="st4" d="M-103.1,106.9h91.6v17.2h-91.6c-4.4,0-8.1-3.9-8.1-8.6S-107.6,106.9-103.1,106.9L-103.1,106.9z"/>
				<path class="st5" d="M-10.9,124.8h-92.2c-4.8,0-8.6-4.1-8.6-9.2s3.9-9.2,8.6-9.2h92.2C-10.9,106.4-10.9,124.8-10.9,124.8z
					 M-103.1,107.6c-4.1,0-7.5,3.6-7.5,8s3.3,8,7.5,8h91v-15.9h-91V107.6z"/>
			</g>
			<g>
				<rect x="-110.1" y="110.6" class="st5" width="98.6" height="1.3"/>
			</g>
			<g>
				<rect x="-110.1" y="119.2" class="st5" width="98.6" height="1.3"/>
			</g>
			<g>
				<rect x="-111.2" y="115.1" class="st5" width="99.7" height="1.3"/>
			</g>
		</g>
	</g>
	<g>
		<path class="st6" d="M3.2,172.2V163h-8.6H-10h-95.8c-4.1,0-7.8,1.8-10.4,4.6c-2.7,2.9-4.3,6.8-4.3,11.2c0,8.7,6.7,15.8,14.8,15.8
			h95.8h4.6h8.6v-9.2h-8.6v-13.2L3.2,172.2L3.2,172.2z"/>
		<path class="st7" d="M3.2,195.1h-109c-8.4,0-15.2-7.3-15.2-16.2c0-4.3,1.6-8.4,4.5-11.5c2.9-3.1,6.7-4.8,10.7-4.8h109
			c0.2,0,0.4,0.2,0.4,0.4v9.2c0,0.2-0.2,0.4-0.4,0.4H-5V185h8.2c0.2,0,0.4,0.2,0.4,0.4v9.2C3.5,194.9,3.4,195.1,3.2,195.1z
			 M-105.8,163.4c-3.8,0-7.4,1.6-10.2,4.5c-2.7,2.9-4.2,6.8-4.2,10.9c0,8.5,6.5,15.4,14.4,15.4H2.8v-8.4h-8.2
			c-0.2,0-0.4-0.2-0.4-0.4v-13.2c0-0.2,0.2-0.4,0.4-0.4h8.2v-8.4H-105.8z"/>
	</g>
	<g>
		<g>
			<path class="st8" d="M-103.1,170.2h91.6v17.2h-91.6c-4.4,0-8.1-3.9-8.1-8.6S-107.6,170.2-103.1,170.2L-103.1,170.2z"/>
			<path class="st9" d="M-10.9,188.1h-92.2c-4.8,0-8.6-4.1-8.6-9.2s3.9-9.2,8.6-9.2h92.2C-10.9,169.7-10.9,188.1-10.9,188.1z
				 M-103.1,170.8c-4.1,0-7.5,3.6-7.5,8s3.3,8,7.5,8h91v-15.9h-91V170.8z"/>
		</g>
		<g>
			<rect x="-110.1" y="173.8" class="st9" width="98.6" height="1.3"/>
		</g>
		<g>
			<rect x="-110.1" y="182.5" class="st9" width="98.6" height="1.3"/>
		</g>
		<g>
			<rect x="-111.2" y="178.4" class="st9" width="99.7" height="1.3"/>
		</g>
	</g>
	<g>
		<path class="st10" d="M-13.9,140.6v-9.2h-8.6h-4.6h-95.8c-4.1,0-7.8,1.8-10.4,4.6c-2.7,2.9-4.3,6.8-4.3,11.2
			c0,8.7,6.7,15.8,14.8,15.8H-27h4.6h8.6v-9.2h-8.6v-13.2L-13.9,140.6L-13.9,140.6z"/>
		<path class="st10" d="M-13.9,163.4h-109c-8.4,0-15.2-7.3-15.2-16.2c0-4.3,1.6-8.4,4.5-11.5s6.7-4.8,10.7-4.8H-14
			c0.2,0,0.4,0.2,0.4,0.4v9.2c0,0.2-0.2,0.4-0.4,0.4h-8.2v12.4h8.2c0.2,0,0.4,0.2,0.4,0.4v9.2C-13.5,163.2-13.7,163.4-13.9,163.4z
			 M-122.9,131.8c-3.8,0-7.4,1.6-10.2,4.5c-2.7,2.9-4.2,6.8-4.2,10.9c0,8.5,6.5,15.4,14.4,15.4h108.6v-8.4h-8.2
			c-0.2,0-0.4-0.2-0.4-0.4v-13.2c0-0.2,0.2-0.4,0.4-0.4h8.2v-8.4H-122.9z"/>
	</g>
	<g>
		<g>
			<path class="st11" d="M-120.2,138.6h91.6v17.2h-91.6c-4.4,0-8.1-3.9-8.1-8.6C-128.2,142.4-124.6,138.6-120.2,138.6L-120.2,138.6z
				"/>
			<path class="st12" d="M-28,156.4h-92.2c-4.8,0-8.6-4.1-8.6-9.2s3.9-9.2,8.6-9.2H-28L-28,156.4L-28,156.4z M-120.2,139.2
				c-4.1,0-7.5,3.6-7.5,8s3.3,8,7.5,8h91v-15.9h-91V139.2z"/>
		</g>
		<g>
			<rect x="-127.1" y="142.2" class="st12" width="98.6" height="1.3"/>
		</g>
		<g>
			<rect x="-127.1" y="150.9" class="st12" width="98.6" height="1.3"/>
		</g>
		<g>
			<rect x="-128.2" y="146.8" class="st12" width="99.7" height="1.3"/>
		</g>
	</g>
</g>
<g>
	<ellipse class="st13" cx="-47.9" cy="370.9" rx="9.4" ry="9.4"/>
	<ellipse class="st14" cx="-30.3" cy="317.9" rx="19.2" ry="18.9"/>
	<ellipse class="st14" cx="-93.6" cy="383.7" rx="9.4" ry="9.4"/>
	<ellipse class="st14" cx="-113.6" cy="351.1" rx="9.4" ry="9.4"/>
	<ellipse class="st13" cx="-155.2" cy="353.1" rx="9.4" ry="9.4"/>
	<ellipse class="st13" cx="39.9" cy="303.1" rx="9.4" ry="9.4"/>
	<ellipse class="st13" cx="-16.3" cy="407.7" rx="11.8" ry="12.1"/>
	<ellipse class="st13" cx="-98.3" cy="313.2" rx="7.6" ry="7.7"/>
	<ellipse class="st13" cx="15.5" cy="328.4" rx="6.2" ry="6.2"/>
	<ellipse class="st14" cx="26.6" cy="360" rx="6.2" ry="6.2"/>
	<path class="st15" d="M39.9,288.5c-8,0-14.6,6.5-14.6,14.6c0,2.4,0.6,4.8,1.8,6.9c-0.6,1.2-1.5,2.6-2.6,3.7
		c-1.1,1.1-2.4,2.1-3.6,2.7c-1.7-0.8-3.6-1.2-5.5-1.2c-4.7,0-9,2.5-11.3,6.5c-1.4,0.1-3,0-4.5-0.3c-1.3-0.3-2.7-0.8-3.9-1.4
		c0.1-0.7,0.1-1.4,0.1-2.1c0-14.3-11.6-25.9-25.9-25.9S-56,303.6-56,317.9c0,9.8,5.6,18.9,14.4,23.2c-0.2,2-0.8,4.3-1.6,6.5
		c-0.9,2.3-2,4.6-3.2,6.3c-0.1,0.2-0.2,0.3-0.4,0.5c-0.3,0-0.7,0-1,0c-9,0-16.4,7.4-16.4,16.4c0,0.5,0,1,0.1,1.6
		c-2,0.9-4.5,1.7-7,2.2c-2.6,0.5-5.4,0.8-7.6,0.7c-0.4,0-0.7,0-1-0.1c-3-4.8-8.2-7.7-13.8-7.7c-1.8,0-3.7,0.3-5.4,1
		c-0.7-0.7-1.4-1.6-2-2.4c-0.5-0.9-1-2-1.2-3c3.3-3.1,5.1-7.4,5.1-11.9c0-5.1-2.3-9.9-6.4-13c0.1-1.7,0.6-3.7,1.3-5.5
		c0.7-1.8,1.8-3.6,2.9-5c0.3,0,0.7,0,1,0c8,0,14.6-6.5,14.6-14.6c0-8-6.5-14.6-14.6-14.6c-8,0-14.5,6.5-14.5,14.6
		c0,4.5,2,8.6,5.5,11.4c-0.1,1.7-0.6,3.7-1.3,5.5c-0.7,1.8-1.7,3.5-2.8,4.8c-0.8-0.1-1.5-0.2-2.1-0.2c-7.5,0-14.1,5.1-15.9,12.4l0,0
		c-1.5,0.6-3.4,1.1-5.3,1.2c-1.8,0.1-3.6,0-5-0.3c-2.2-6.6-8.3-11-15.3-11c-8.9,0-16.2,7.3-16.2,16.2s7.3,16.2,16.2,16.2
		c7.7,0,14.3-5.4,15.8-12.9c1.4-0.6,3.3-1,5.1-1.1c1.7-0.1,3.4,0,4.8,0.3c2,7.1,8.5,12.1,15.9,12.1c1.5,0,2.9-0.2,4.4-0.6
		c0.8,0.7,1.6,1.7,2.2,2.6c0.6,1,1.1,2.2,1.3,3.4c-2.6,3-4.1,6.8-4.1,10.8c0,8.9,7.3,16.2,16.2,16.2s16.2-7.2,16.3-16
		c0.1,0,0.2-0.1,0.3-0.1c2-0.9,4.7-1.8,7.3-2.3s5.4-0.8,7.6-0.7c0.5,0,1,0.1,1.4,0.1c3.1,4,7.8,6.3,12.9,6.3c2.2,0,4.3-0.4,6.3-1.3
		c0.2,0.1,0.3,0.2,0.5,0.3c1.7,1.1,3.5,2.8,5.1,4.6c1.6,1.8,3,3.9,3.8,5.7c0.1,0.1,0.1,0.2,0.2,0.4c-2.2,3.2-3.4,6.9-3.4,10.8
		c0,10.5,8.5,19.1,19.1,19.1c10.5,0,19.1-8.5,19.1-19.1s-8.5-19.1-19.1-19.1c-3.2,0-6.3,0.8-9.1,2.4c-0.1,0-0.1-0.1-0.2-0.1
		c-1.7-1.1-3.5-2.8-5.1-4.6c-1.6-1.8-3-3.9-3.8-5.7c0-0.1-0.1-0.1-0.1-0.2c2.1-2.8,3.1-6.1,3.1-9.6c0-5.3-2.6-10.3-6.9-13.4
		c0-0.1,0-0.3,0-0.5c0.2-2.1,0.8-4.6,1.7-6.9s2-4.6,3.2-6.3l0.1-0.1c1.1,0.1,2.2,0.2,3.3,0.2c6.9,0,13.5-2.7,18.4-7.6
		c2.4-2.4,4.2-5.2,5.5-8.2c1.4-0.1,3,0,4.4,0.3c1.5,0.3,3,0.9,4.2,1.5c0.7,6.6,6.4,11.7,13.1,11.7c0.3,0,0.5,0,0.8,0
		c0.8,1.1,1.4,2.4,1.9,3.7c0.5,1.4,0.7,3,0.7,4.4c-3.2,2.4-5.1,6.2-5.1,10.2c0,7.1,5.7,12.8,12.8,12.8S39.8,367,39.8,360
		s-5.6-12.7-12.6-12.8c-0.8-1.1-1.6-2.6-2.1-4c-0.5-1.6-0.8-3.3-0.7-4.7c2.9-2.5,4.6-6.1,4.6-10c0-2.2-0.6-4.4-1.6-6.3
		c0.6-1.2,1.5-2.5,2.5-3.6c1-1,2.3-2,3.4-2.6c2.1,1.1,4.5,1.7,6.9,1.7c8,0,14.5-6.5,14.5-14.6C54.5,295,48,288.5,39.9,288.5z
		 M39.9,310.6c-4.2,0-7.6-3.4-7.6-7.6c0-4.2,3.4-7.6,7.6-7.6c4.2,0,7.5,3.4,7.5,7.6C47.5,307.2,44.1,310.6,39.9,310.6z M15.5,322.2
		c3.4,0,6.2,2.8,6.2,6.2s-2.8,6.2-6.2,6.2s-6.2-2.8-6.2-6.2S12,322.2,15.5,322.2z M26.6,365.8c-3.2,0-5.8-2.6-5.8-5.8
		c0-3.2,2.6-5.8,5.8-5.8s5.8,2.6,5.8,5.8C32.4,363.2,29.8,365.8,26.6,365.8z M-47.9,361.5c5.2,0,9.4,4.2,9.4,9.4
		c0,5.2-4.2,9.4-9.4,9.4s-9.4-4.2-9.4-9.4C-57.3,365.7-53,361.5-47.9,361.5z M-30.1,336.9c-10.4,0-18.9-8.5-18.9-18.9
		c0-10.4,8.5-18.9,18.9-18.9s18.9,8.5,18.9,18.9c0,5-2,9.8-5.5,13.4C-20.3,334.9-25,336.9-30.1,336.9z M-113.6,341.6
		c5.2,0,9.5,4.2,9.5,9.5c0,5.2-4.3,9.5-9.5,9.5s-9.5-4.3-9.5-9.5C-123.1,345.8-118.9,341.6-113.6,341.6z M-98.3,305.5
		c4.2,0,7.6,3.4,7.6,7.6c0,4.2-3.4,7.6-7.6,7.6c-4.1,0-7.5-3.4-7.5-7.6C-105.9,308.9-102.5,305.5-98.3,305.5z M-93.7,392.9
		c-5.1,0-9.2-4.1-9.2-9.2s4.1-9.2,9.2-9.2s9.3,4.1,9.3,9.2C-84.4,388.8-88.6,392.9-93.7,392.9z M-155.2,362.2
		c-5.1,0-9.2-4.1-9.2-9.2c0-5.1,4.1-9.2,9.2-9.2c5.1,0,9.2,4.1,9.2,9.2C-146,358.1-150.1,362.2-155.2,362.2z M-16.3,419.8
		c-6.6,0-12.1-5.4-12.1-12.1c0-6.6,5.4-12.1,12.1-12.1c6.6,0,12.1,5.4,12.1,12.1S-9.7,419.8-16.3,419.8z"/>
</g>
<g>
	<g>
		<g>
			<path class="st16" d="M381.8,328.4c0,3.1-3.1,5.6-6.8,5.6l0,0c-3.8,0-6.8-2.5-6.8-5.6v-171c0-3.1,3.1-5.6,6.8-5.6l0,0
				c3.8,0,6.8,2.5,6.8,5.6V328.4z"/>
		</g>
	</g>
	<g>
		<g>
			<path class="st16" d="M346.7,311.1c-3.8,0-6.8-2.5-6.8-5.6l0,0c0-3.1,3.1-5.6,6.8-5.6h236.4c3.8,0,6.8,2.5,6.8,5.6l0,0
				c0,3.1-3.1,5.6-6.8,5.6H346.7z"/>
		</g>
	</g>
	<g>
		<g>
			<path class="st17" d="M414.4,165v119.5h-9.1V165H414.4 M420.3,160.2h-20.8v129.1h20.8V160.2L420.3,160.2z"/>
		</g>
	</g>
	<g>
		<g>
			<path class="st18" d="M444.6,183.8V285h-10V183.8H444.6 M450,179.3h-20.8v110H450V179.3L450,179.3z"/>
		</g>
	</g>
	<g>
		<g>
			<path class="st19" d="M474.9,208.2v77.3h-11.3v-77.3L474.9,208.2 M479.7,204.3h-20.8v85.1h20.8V204.3L479.7,204.3z"/>
		</g>
	</g>
	<g>
		<g>
			<path class="st20" d="M505.1,226.2V286h-12.4v-59.8L505.1,226.2 M509.4,222.7h-20.8v66.7h20.8V222.7L509.4,222.7z"/>
		</g>
	</g>
	<g>
		<g>
			<path class="st20" d="M533.9,194.6v90.5h-10.5v-90.5L533.9,194.6 M539,190.4h-20.8v98.9H539V190.4L539,190.4z"/>
		</g>
	</g>
	<g>
		<g>
			<path class="st21" d="M564,208.2v77.3h-11.3v-77.3L564,208.2 M568.7,204.3h-20.8v85.1h20.8V204.3L568.7,204.3z"/>
		</g>
	</g>
</g>
<g>
	<path class="st22" d="M173,231.1c0-3.5-3.7-6.7-8.4-6.7h-39.1c-4.7,0-8.5,3.2-8.5,6.7v23.6c0,3.5,3.8,6.7,8.5,6.7h39.1
		c4.7,0,8.4-3.1,8.4-6.7V231.1z"/>
	<path class="st22" d="M289.6,250.4c7.7-3,7.7-8,0-11.1l-106.2-42.2c-7.7-3-10.9-1.5-7.2,3.5l26,35.1c3.7,5,3.7,13.1,0,18.1
		l-26,35.2c-3.7,5-0.4,6.6,7.2,3.5L289.6,250.4z"/>
</g>
</svg>
