<?xml version="1.0" encoding="utf-8"?>
<!-- Generator: Adobe Illustrator 19.1.0, SVG Export Plug-In . SVG Version: 6.00 Build 0)  -->
<svg version="1.1" id="Layer_1" xmlns="http://www.w3.org/2000/svg" xmlns:xlink="http://www.w3.org/1999/xlink" x="0px" y="0px"
	 viewBox="-227 37.4 867.1 414" style="enable-background:new -227 37.4 867.1 414;" xml:space="preserve">
<style type="text/css">
	.st0{fill:#2F72D3;}
	.st1{fill:#577D38;}
	.st2{fill:#363D4F;}
	.st3{fill:#86A83E;}
	.st4{fill:#85A838;}
	.st5{fill:#CDCCCC;stroke:#231F20;stroke-miterlimit:10;}
	.st6{fill:#567C13;}
	.st7{fill:#878787;}
</style>
<g>
	<ellipse class="st0" cx="-68.4" cy="322.6" rx="9.4" ry="9.4"/>
	
		<ellipse transform="matrix(-0.8081 -0.589 0.589 -0.8081 -345.5649 441.6611)" class="st1" cx="-100.8" cy="277.1" rx="18.9" ry="19.2"/>
	<ellipse class="st1" cx="-85" cy="367" rx="9.4" ry="9.4"/>
	<ellipse class="st2" cx="-123.1" cy="364" rx="9.4" ry="9.4"/>
	<ellipse class="st3" cx="-146" cy="398.8" rx="9.4" ry="9.4"/>
	
		<ellipse transform="matrix(-0.8081 -0.589 0.589 -0.8081 -223.9312 564.4437)" class="st3" cx="-20" cy="318.7" rx="12.1" ry="11.8"/>
	
		<ellipse transform="matrix(-0.8081 -0.589 0.589 -0.8081 -455.5901 510.1874)" class="st3" cx="-144.7" cy="329.3" rx="7.7" ry="7.6"/>
	<path class="st4" d="M-69.4,241.6c-3.5,3.1-2.6,8.6,1.6,10.4c2.1,0.9,4.7,0.5,6.5-1c3.5-3.1,2.6-8.6-1.6-10.4
		C-65.1,239.6-67.7,240-69.4,241.6z"/>
	<ellipse class="st1" cx="-33.3" cy="255.9" rx="6.2" ry="6.2"/>
	<path class="st5" d="M-65,226.2c-2.6,0-5.3,0.2-7.9,0.8c0.4,1,0.8,2.1,1,3.3c0.2,1.5,0.3,3.2,0.1,4.5c-1.6,0.9-3.1,2.2-4.2,3.7
		c-2.8,3.8-3.3,8.7-1.4,13c-0.7,1.2-1.8,2.4-2.9,3.5c-1,0.9-2.2,1.7-3.4,2.3c-0.5-0.5-1.1-0.9-1.6-1.3c-11.6-8.4-27.8-5.9-36.2,5.7
		s-5.9,27.8,5.7,36.2c7.9,5.8,18.6,6.6,27.2,2c1.5,1.3,3,3.2,4.3,5.1c1.3,2.1,2.5,4.3,3.2,6.3c0.1,0.2,0.1,0.3,0.2,0.6l-1.4,1.9
		c-5.1,7-3.3,16.6,3.9,21.5c0.6,0.4,1.1,0.8,1.8,1.2c-0.5,2.1-1.3,4.6-2.3,7c-1.1,2.4-2.5,4.8-3.9,6.6c-0.2,0.3-0.4,0.6-0.7,0.7
		c-5.6-0.4-11.1,2.1-14.4,6.6c-1.1,1.5-1.9,3.2-2.4,5c-1,0.2-2.1,0.2-3.1,0.2c-1-0.1-2.2-0.4-3.1-0.8c-0.6-4.5-3-8.5-6.6-11.1
		c-4.1-3-9.4-4-14.3-2.5c-1.3-1.1-2.6-2.7-3.7-4.3c-0.9-1.4-1.6-3-2.1-4.6c0.1-0.4,0.2-0.9,0.3-1.4c4.8-6.5,3.5-15.7-3.1-20.6
		c-6.5-4.7-15.6-3.3-20.4,3.2c-4.7,6.5-3.3,15.5,3.3,20.3c3.6,2.7,8.1,3.4,12.5,2.3c1.3,1.1,2.6,2.7,3.7,4.3c1,1.6,1.8,3.4,2.2,5.1
		c-0.6,0.6-1,1.1-1.4,1.6c-4.4,6.1-4.2,14.4,0.7,20.2c-0.4,1.6-1.1,3.4-2.2,5c-1,1.5-2.1,2.9-3.2,3.9c-7.3-2.3-15.3,0.8-19.1,7.8
		c-3.3,6.1-2.3,13.7,2.4,18.7c7.1,7.6,19.1,6.5,24.9-1.5c4.5-6.2,4.1-14.7-1.1-20.4c0.3-1.5,1.1-3.3,2.1-4.8c0.9-1.4,2-2.7,3.1-3.7
		c6.9,2.6,14.8,0.3,19.1-5.7c0.9-1.2,1.5-2.5,2.1-3.9c1-0.2,2.3-0.3,3.4-0.2c1.2,0.1,2.4,0.4,3.5,1c1.2,5.3,4.9,9.9,10.5,11.9
		c6,2.1,12.9,0.5,17.2-4.2c6.7-7.2,5.5-18.5-2.1-24.1c0.1-0.1,0-0.2,0.1-0.3c0.5-2.1,1.3-4.9,2.4-7.3c1.1-2.4,2.5-4.8,3.9-6.6
		c0.3-0.4,0.7-0.7,0.9-1.1c5.1-0.1,9.7-2.6,12.7-6.7c1.3-1.8,2.2-3.7,2.7-5.9c0.2-0.1,0.3-0.1,0.5-0.2c1.9-0.7,4.3-1.2,6.7-1.4
		c2.4-0.2,4.9-0.1,6.8,0.3c0.1,0,0.2,0,0.4,0.1c1.3,3.7,3.6,6.8,6.7,9.1c8.5,6.2,20.4,4.4,26.7-4.2c6.6-9,4.1-22-5.9-27.8
		c-8-4.6-18.4-2.7-24.3,4.4c-2.3,2.8-3.7,6.1-4.1,9.7c-0.1,0.1-0.1,0-0.2,0.1c-1.9,0.7-4.3,1.2-6.7,1.4c-2.4,0.2-4.9,0.1-6.8-0.3
		c-0.1-0.1-0.1,0-0.2,0c-1-3.3-3.1-6.1-5.9-8.2c-4.3-3.1-9.9-4-14.9-2.3c-0.1-0.1-0.2-0.2-0.4-0.3c-1.6-1.4-3.2-3.4-4.6-5.4
		c-1.3-2.1-2.5-4.3-3.2-6.3l0-0.1c0.7-0.8,1.5-1.7,2.1-2.5c4.1-5.6,5.8-12.5,4.7-19.3c-0.5-3.4-1.7-6.5-3.4-9.3
		c0.7-1.2,1.8-2.4,2.8-3.4c1.1-1,2.5-1.9,3.7-2.5c6,3.4,13.8,1.6,17.6-4.3c0,0,0,0,0,0c1.4,0,2.8,0.3,4.1,0.6c1.4,0.4,2.8,1.2,4,2
		c0.1,4,2,7.8,5.2,10.1c5.7,4.2,13.7,2.9,17.9-2.8c4.2-5.7,2.9-13.8-2.8-17.9c-5.7-4.1-13.6-3-17.8,2.6c-1.4,0-3-0.2-4.5-0.7
		c-1.6-0.5-3.1-1.3-4.2-2.2c-0.3-3.8-2.2-7.3-5.4-9.6c-1.8-1.3-3.9-2.1-6-2.4c-0.6-1.2-1.1-2.7-1.4-4.1C-65,228-65,227.1-65,226.2z
		 M-138.2,403.5c-3,4.9-9.6,6-14,2.2c-3.3-2.9-4.1-7.9-1.8-11.6c3-4.9,9.6-6,14-2.2C-136.7,394.7-135.9,399.7-138.2,403.5z
		 M-114.4,367.8c-2.8,6.2-11,7.6-15.6,2.7c-2.7-2.9-3.3-7.2-1.6-10.7c2.9-5.7,10.3-7.1,15-2.7C-113.6,359.8-112.8,364.2-114.4,367.8
		z M-149.2,335.3c-3.9-2.7-4.3-8.3-0.7-11.7c2.2-2.1,5.6-2.6,8.3-1.3c4.5,2.1,5.7,7.6,3,11.4C-141,337-145.8,337.8-149.2,335.3z
		 M-76.7,371.1c-2.7,5.6-9.7,6.9-14.3,3c-3.3-2.8-4.2-7.8-2-11.6c3.1-5.2,10.2-6.3,14.6-1.9C-75.7,363.3-75,367.6-76.7,371.1z
		 M-29.8,311.6c3.9-5.3,11.5-6.6,16.9-2.7c5.4,3.9,6.5,11.6,2.7,16.9c-3.9,5.3-11.5,6.6-16.9,2.7C-32.5,324.6-33.8,317-29.8,311.6z
		 M-61.3,328.7c-2.9,3.4-8,4.2-11.9,1.9c-5.5-3.3-6.2-11-1.3-15.2c2.9-2.5,7.3-3,10.7-1.1C-58.6,317.3-57.4,324.2-61.3,328.7z
		 M-81.9,274.1c1,7-1.7,13.9-7.9,18.5c-4.3,3.1-9.7,4.2-14.9,2.9c-14.1-3.6-18.8-19.3-11.2-29.7c6.1-8.4,18-10.3,26.4-4.1
		C-85.5,264.7-82.8,269.1-81.9,274.1z M-61.3,250.9c-1.9,1.7-4.8,2.1-7.1,0.8c-3.4-1.9-4.3-6.4-1.7-9.4c1.7-2,4.6-2.8,7-1.8
		C-58.8,242.3-57.9,247.9-61.3,250.9z M-38.7,253.7c1.7-4,6.9-4.8,9.8-1.5c1.4,1.6,1.8,4,0.9,6c-1.7,4-6.9,4.8-9.8,1.5
		C-39.2,258.1-39.5,255.7-38.7,253.7z"/>
</g>
<ellipse class="st4" cx="-89.9" cy="167.2" rx="9.4" ry="9.4"/>
<ellipse transform="matrix(0.2781 -0.9605 0.9605 0.2781 -158.4084 31.5644)" class="st6" cx="-58.2" cy="121.2" rx="18.9" ry="19.2"/>
<ellipse class="st0" cx="-137.3" cy="166.8" rx="9.4" ry="9.4"/>
<ellipse class="st2" cx="-147.5" cy="129.9" rx="9.4" ry="9.4"/>
<ellipse class="st0" cx="-188" cy="120.2" rx="9.4" ry="9.4"/>
<ellipse class="st0" cx="13.3" cy="126.5" rx="9.4" ry="9.4"/>
<ellipse transform="matrix(0.2781 -0.9605 0.9605 0.2781 -253.324 85.5683)" class="st2" cx="-69.7" cy="211.3" rx="12.1" ry="11.8"/>
<ellipse transform="matrix(0.2781 -0.9605 0.9605 0.2781 -182.1124 -46.8313)" class="st0" cx="-122.2" cy="97.7" rx="7.7" ry="7.6"/>
<ellipse class="st0" cx="-17.1" cy="144" rx="6.2" ry="6.2"/>
<ellipse class="st2" cx="-15.3" cy="177.4" rx="6.2" ry="6.2"/>
<path class="st5" d="M17.4,112.5c-7.7-2.2-15.8,2.2-18.1,10c-0.7,2.3-0.8,4.8-0.2,7.1c-0.9,1-2.2,2.1-3.5,2.8s-2.9,1.3-4.2,1.6
	c-1.4-1.2-3.1-2.2-4.9-2.7c-4.5-1.3-9.3-0.1-12.7,3.1c-1.4-0.3-2.9-0.8-4.2-1.5c-1.2-0.6-2.4-1.5-3.4-2.4c0.3-0.6,0.5-1.3,0.7-2
	c4-13.7-3.9-28.1-17.7-32.1c-13.7-4-28.1,3.9-32.1,17.7c-2.7,9.4,0.1,19.7,7.4,26.3c-0.7,1.9-2,3.9-3.3,5.8c-1.5,2-3.2,3.9-4.8,5.2
	c-0.2,0.2-0.3,0.2-0.5,0.4c-0.3-0.1-0.7-0.2-1-0.3c-8.6-2.5-17.8,2.5-20.3,11.2c-0.1,0.5-0.3,1-0.3,1.6c-2.2,0.3-4.8,0.4-7.3,0.2
	c-2.6-0.2-5.4-0.7-7.5-1.4c-0.4-0.1-0.7-0.2-0.9-0.4c-1.5-5.4-5.7-9.7-11.1-11.2c-1.7-0.5-3.6-0.7-5.5-0.5c-0.5-0.9-0.9-1.9-1.3-2.9
	c-0.2-1-0.4-2.2-0.3-3.2c4-2.1,7-5.7,8.2-10c1.4-4.9,0.5-10.1-2.5-14.3c0.6-1.6,1.6-3.4,2.8-4.9c1.2-1.5,2.7-3,4.2-4
	c0.3,0.1,0.7,0.2,1,0.3c7.7,2.2,15.8-2.2,18.1-10c2.2-7.7-2.2-15.8-10-18.1c-7.7-2.2-15.7,2.2-18,10c-1.3,4.3-0.5,8.8,2.1,12.5
	c-0.6,1.6-1.6,3.4-2.8,4.9c-1.2,1.5-2.6,2.9-4,3.8c-0.7-0.3-1.4-0.6-2-0.8c-7.2-2.1-15,1-18.7,7.5l0,0c-1.6,0.2-3.6,0.1-5.4-0.3
	c-1.8-0.4-3.5-1-4.7-1.7c-0.3-7-4.9-12.9-11.6-14.8c-8.5-2.5-17.6,2.5-20.1,11.1c-2.5,8.5,2.5,17.6,11.1,20.1
	c7.4,2.1,15.2-1.2,18.8-8c1.5-0.2,3.4,0,5.2,0.4c1.7,0.4,3.3,0.9,4.5,1.6c-0.1,7.4,4.8,14,11.9,16c1.4,0.4,2.8,0.6,4.4,0.6
	c0.6,0.9,1.1,2.1,1.4,3.1c0.3,1.1,0.4,2.4,0.3,3.6c-3.3,2.2-5.8,5.4-6.9,9.2c-2.5,8.5,2.5,17.6,11.1,20.1
	c8.5,2.5,17.6-2.4,20.1-10.8c0.1,0,0.2,0,0.3,0c2.2-0.3,5-0.4,7.7-0.2c2.6,0.2,5.4,0.7,7.5,1.4c0.5,0.1,0.9,0.4,1.3,0.5
	c1.9,4.7,5.7,8.2,10.6,9.6c2.1,0.6,4.2,0.8,6.4,0.5c0.2,0.2,0.2,0.3,0.4,0.4c1.3,1.5,2.6,3.7,3.6,5.8c1,2.2,1.8,4.6,2.1,6.5
	c0.1,0.1,0,0.2,0.1,0.4c-3,2.5-5.2,5.7-6.3,9.4c-2.9,10.1,2.9,20.7,13,23.7c10.1,2.9,20.7-2.9,23.7-13c2.9-10.2-2.9-20.7-13-23.7
	c-3.1-0.9-6.3-1-9.4-0.2c-0.1,0-0.1-0.1-0.2-0.2c-1.3-1.5-2.6-3.7-3.6-5.8c-1-2.2-1.8-4.6-2.1-6.5c0-0.1-0.1-0.1,0-0.2
	c2.8-2.1,4.7-5,5.6-8.4c1.5-5.1,0.4-10.6-2.9-14.8c0-0.1,0.1-0.3,0.1-0.5c0.8-2,2-4.2,3.6-6.2c1.5-2,3.2-3.9,4.8-5.2l0.1-0.1
	c1,0.4,2.1,0.8,3.1,1.1c6.6,1.9,13.7,1.2,19.8-2.2c3-1.6,5.5-3.8,7.6-6.3c1.4,0.3,2.9,0.8,4.1,1.5c1.4,0.7,2.6,1.7,3.6,2.6
	c-1.2,6.5,2.9,13,9.3,14.9c0.3,0.1,0.5,0.1,0.8,0.2c0.5,1.3,0.7,2.7,0.8,4.1c0.1,1.5-0.2,3.1-0.6,4.4c-3.7,1.4-6.6,4.5-7.7,8.4
	c-2,6.8,1.9,13.9,8.7,15.9c6.8,2,13.9-2,15.9-8.7c1.9-6.7-1.8-13.8-8.5-15.8c-0.5-1.3-0.8-2.9-0.9-4.4c0-1.7,0.1-3.4,0.6-4.7
	c3.5-1.6,6.1-4.6,7.2-8.3c0.6-2.1,0.6-4.4,0.2-6.5c0.9-1,2.1-2,3.4-2.8c1.2-0.7,2.8-1.3,4-1.6c1.7,1.6,3.8,2.9,6.2,3.6
	c7.7,2.2,15.7-2.2,18-10C29.6,122.8,25.2,114.7,17.4,112.5z M11.3,133.7c-4-1.2-6.4-5.4-5.2-9.4s5.4-6.4,9.4-5.2
	c4,1.2,6.3,5.4,5.1,9.4C19.5,132.5,15.3,134.9,11.3,133.7z M-15.4,138c3.3,0.9,5.2,4.4,4.2,7.7c-0.9,3.3-4.4,5.2-7.7,4.2
	s-5.2-4.4-4.2-7.7C-22.1,139-18.8,137.1-15.4,138z M-16.9,183c-3.1-0.9-4.8-4.1-4-7.2c0.9-3.1,4.1-4.8,7.2-4c3.1,0.9,4.8,4.1,4,7.2
	C-10.6,182.1-13.8,183.9-16.9,183z M-87.2,158.2c5,1.4,7.9,6.6,6.4,11.6c-1.4,5-6.6,7.9-11.6,6.4c-5-1.4-7.9-6.6-6.4-11.6
	C-97.4,159.6-92.1,156.7-87.2,158.2z M-63.3,139.5c-10-2.9-15.8-13.4-12.9-23.4c2.9-10,13.4-15.8,23.4-12.9s15.8,13.4,12.9,23.4
	c-1.4,4.8-4.6,8.9-9,11.3C-53.3,140.3-58.4,140.9-63.3,139.5z M-144.8,120.8c5,1.4,8,6.7,6.5,11.8c-1.4,5-6.8,7.9-11.8,6.5
	s-7.9-6.8-6.5-11.8C-155.1,122.2-149.9,119.3-144.8,120.8z M-120.1,90.4c4,1.2,6.4,5.4,5.2,9.4c-1.2,4-5.4,6.4-9.4,5.2
	c-3.9-1.1-6.3-5.4-5.1-9.4C-128.3,91.5-124.1,89.2-120.1,90.4z M-140,175.6c-4.9-1.4-7.7-6.5-6.3-11.4c1.4-4.9,6.5-7.7,11.4-6.3
	c4.9,1.4,7.8,6.5,6.4,11.4C-129.9,174.2-135.1,177-140,175.6z M-190.5,129c-4.9-1.4-7.7-6.5-6.3-11.4c1.4-4.9,6.5-7.7,11.4-6.3
	s7.7,6.5,6.3,11.4C-180.5,127.6-185.6,130.4-190.5,129z M-73.1,222.9c-6.3-1.8-10.1-8.6-8.3-15c1.8-6.3,8.6-10.1,15-8.3
	c6.3,1.8,10.1,8.6,8.3,15C-60,221.1-66.8,224.8-73.1,222.9z"/>
<g>
	<ellipse class="st2" cx="406.1" cy="140.6" rx="9.4" ry="9.4"/>
	
		<ellipse transform="matrix(0.3595 -0.9332 0.9332 0.3595 191.838 474.4698)" class="st0" cx="441.5" cy="97.5" rx="18.9" ry="19.2"/>
	<ellipse class="st0" cx="358.8" cy="136.1" rx="9.4" ry="9.4"/>
	<ellipse class="st2" cx="351.9" cy="98.5" rx="9.4" ry="9.4"/>
	<ellipse class="st0" cx="312.3" cy="85.4" rx="9.4" ry="9.4"/>
	<ellipse class="st0" cx="512.4" cy="108.9" rx="9.4" ry="9.4"/>
	
		<ellipse transform="matrix(0.3595 -0.9332 0.9332 0.3595 96.6371 513.4366)" class="st2" cx="422.3" cy="186.3" rx="12.1" ry="11.8"/>
	
		<ellipse transform="matrix(0.3595 -0.9332 0.9332 0.3595 179.1782 398.3669)" class="st0" cx="379.8" cy="68.7" rx="7.7" ry="7.6"/>
	<ellipse class="st0" cx="480.5" cy="123.8" rx="6.2" ry="6.2"/>
	<ellipse class="st2" cx="479.5" cy="157.2" rx="6.2" ry="6.2"/>
	<path class="st5" d="M517.6,95.3c-7.5-2.9-16,0.8-18.9,8.4c-0.9,2.2-1.2,4.7-0.8,7.1c-1,0.9-2.3,1.9-3.8,2.5
		c-1.4,0.6-3,1.1-4.3,1.2c-1.3-1.4-2.9-2.4-4.7-3.1c-4.4-1.7-9.3-0.9-12.9,2c-1.3-0.4-2.8-1.1-4.1-1.9c-1.1-0.7-2.2-1.7-3.1-2.7
		c0.3-0.6,0.6-1.3,0.8-1.9c5.1-13.3-1.5-28.3-14.9-33.5s-28.3,1.5-33.5,14.9c-3.5,9.1-1.6,19.6,5.1,26.8c-0.9,1.8-2.3,3.7-3.8,5.5
		c-1.7,1.8-3.5,3.6-5.3,4.7c-0.2,0.2-0.3,0.2-0.6,0.3c-0.3-0.1-0.7-0.3-0.9-0.4c-8.4-3.2-18,1-21.2,9.4c-0.2,0.5-0.4,0.9-0.5,1.5
		c-2.2,0.1-4.8,0-7.3-0.5c-2.6-0.5-5.3-1.2-7.3-2.1c-0.4-0.1-0.7-0.3-0.9-0.5c-1.1-5.6-4.9-10.1-10.1-12.1c-1.7-0.6-3.6-1.1-5.4-1
		c-0.4-0.9-0.7-2-1-3c-0.1-1-0.2-2.2,0-3.2c4.2-1.7,7.4-5.1,9-9.3c1.8-4.8,1.4-10.1-1.3-14.4c0.7-1.6,1.9-3.2,3.2-4.7
		c1.3-1.4,3-2.7,4.5-3.6c0.3,0.1,0.7,0.3,0.9,0.4c7.5,2.9,16-0.8,18.9-8.4c2.9-7.5-0.8-16-8.4-18.9c-7.5-2.9-15.9,0.9-18.8,8.4
		c-1.6,4.2-1.2,8.7,1,12.6c-0.7,1.6-1.9,3.2-3.2,4.7c-1.3,1.4-2.8,2.7-4.3,3.5c-0.7-0.4-1.3-0.7-1.9-0.9c-7-2.7-15-0.3-19.3,5.9l0,0
		c-1.6,0-3.6-0.2-5.4-0.8c-1.7-0.6-3.4-1.3-4.6-2.1c0.3-6.9-3.8-13.2-10.3-15.8c-8.3-3.2-17.7,1-20.9,9.3c-3.2,8.3,1,17.7,9.3,20.9
		c7.2,2.8,15.3,0.1,19.4-6.4c1.5-0.1,3.4,0.3,5.2,0.8c1.6,0.5,3.2,1.2,4.4,2c-0.7,7.3,3.6,14.3,10.5,17c1.4,0.5,2.8,0.9,4.3,1
		c0.5,0.9,0.9,2.2,1.1,3.2c0.2,1.1,0.2,2.4,0,3.6c-3.5,1.9-6.3,4.9-7.7,8.6c-3.2,8.3,1,17.7,9.3,20.9c8.3,3.2,17.7-0.9,21-9.1
		c0.1,0,0.2,0,0.3,0c2.2-0.1,5,0,7.6,0.5c2.6,0.5,5.3,1.2,7.3,2.1c0.5,0.2,0.9,0.5,1.3,0.6c1.5,4.8,5,8.7,9.8,10.5
		c2.1,0.8,4.2,1.2,6.3,1.1c0.2,0.2,0.2,0.3,0.4,0.5c1.2,1.6,2.3,3.9,3.1,6.1s1.4,4.7,1.5,6.7c0.1,0.1,0,0.2,0,0.4
		c-3.2,2.2-5.7,5.2-7.1,8.9c-3.8,9.8,1.1,20.9,11,24.7c9.8,3.8,20.9-1.1,24.7-11c3.8-9.9-1.1-20.9-11-24.7c-3-1.2-6.2-1.5-9.4-1
		c-0.1,0-0.1-0.1-0.2-0.2c-1.2-1.6-2.3-3.9-3.1-6.1s-1.4-4.7-1.5-6.7c0-0.1-0.1-0.1,0-0.2c3-1.9,5.1-4.6,6.3-7.8
		c1.9-4.9,1.3-10.5-1.6-15c0-0.1,0.1-0.3,0.2-0.5c0.9-1.9,2.4-4,4.1-5.8c1.7-1.8,3.5-3.6,5.3-4.7l0.1-0.1c1,0.5,2,1,3,1.4
		c6.4,2.5,13.6,2.3,19.9-0.5c3.1-1.4,5.8-3.3,8.1-5.7c1.3,0.4,2.8,1.1,4,1.9c1.3,0.8,2.5,1.9,3.4,2.9c-1.7,6.4,1.8,13.2,8,15.6
		c0.3,0.1,0.5,0.2,0.7,0.3c0.4,1.3,0.4,2.7,0.4,4.1c0,1.5-0.4,3.1-0.9,4.4c-3.8,1.1-7,4-8.4,7.7c-2.6,6.6,0.7,14,7.3,16.5
		s14-0.8,16.5-7.3c2.5-6.5-0.7-13.9-7.2-16.5c-0.4-1.3-0.6-3-0.5-4.5c0.1-1.7,0.4-3.4,1-4.6c3.6-1.3,6.5-4,7.9-7.7
		c0.8-2.1,1-4.3,0.8-6.5c1-0.9,2.3-1.8,3.6-2.5c1.3-0.6,2.9-1,4.1-1.2c1.6,1.8,3.6,3.2,5.8,4.1c7.5,2.9,15.9-0.9,18.8-8.4
		C528.9,106.6,525.2,98.2,517.6,95.3z M509.7,115.9c-3.9-1.5-5.9-5.9-4.4-9.8s5.9-5.9,9.8-4.4c3.9,1.5,5.8,5.9,4.3,9.8
		C518,115.5,513.6,117.4,509.7,115.9z M482.7,118c3.2,1.2,4.8,4.8,3.6,8c-1.2,3.2-4.8,4.8-8,3.6c-3.2-1.2-4.8-4.8-3.6-8
		C475.9,118.4,479.5,116.7,482.7,118z M477.4,162.6c-3-1.2-4.5-4.5-3.3-7.5s4.5-4.5,7.5-3.3c3,1.2,4.5,4.5,3.3,7.5
		C483.8,162.3,480.4,163.8,477.4,162.6z M409.4,131.9c4.9,1.9,7.3,7.3,5.4,12.2c-1.9,4.9-7.3,7.3-12.2,5.4s-7.3-7.3-5.4-12.2
		S404.7,130,409.4,131.9z M434.9,115.3c-9.7-3.7-14.6-14.7-10.8-24.4s14.7-14.6,24.4-10.8c9.7,3.7,14.6,14.7,10.8,24.4
		c-1.8,4.7-5.4,8.4-9.9,10.5C444.8,117,439.7,117.1,434.9,115.3z M355.3,89.7c4.9,1.9,7.4,7.3,5.5,12.3c-1.9,4.9-7.4,7.3-12.3,5.5
		c-4.9-1.9-7.3-7.4-5.5-12.3C344.9,90.2,350.3,87.8,355.3,89.7z M382.5,61.5c3.9,1.5,5.9,5.9,4.4,9.8c-1.5,3.9-5.9,5.9-9.8,4.4
		c-3.8-1.5-5.8-5.9-4.3-9.8C374.2,61.9,378.6,60,382.5,61.5z M355.4,144.7c-4.8-1.8-7.1-7.1-5.3-11.9c1.8-4.8,7.1-7.1,11.9-5.3
		c4.8,1.8,7.2,7.2,5.4,11.9C365.6,144.2,360.2,146.5,355.4,144.7z M309.1,93.9c-4.8-1.8-7.1-7.1-5.3-11.9c1.8-4.8,7.1-7.1,11.9-5.3
		s7.1,7.1,5.3,11.9C319.1,93.4,313.8,95.8,309.1,93.9z M418,197.6c-6.2-2.4-9.4-9.4-6.9-15.6c2.4-6.2,9.4-9.4,15.6-6.9
		c6.2,2.4,9.4,9.4,6.9,15.6C431.2,196.9,424.1,200,418,197.6z"/>
</g>
<ellipse class="st4" cx="436.4" cy="371.2" rx="9.4" ry="9.4"/>
<ellipse transform="matrix(7.374837e-02 -0.9973 0.9973 7.374837e-02 105.3054 752.6971)" class="st1" cx="457.9" cy="319.7" rx="18.9" ry="19.2"/>
<ellipse class="st1" cx="389.9" cy="380.6" rx="9.4" ry="9.4"/>
<ellipse class="st4" cx="372.3" cy="346.6" rx="9.4" ry="9.4"/>
<ellipse class="st3" cx="330.7" cy="345.6" rx="9.4" ry="9.4"/>
<ellipse transform="matrix(7.374837e-02 -0.9973 0.9973 7.374837e-02 21.7622 843.9236)" class="st3" cx="465.2" cy="410.2" rx="12.1" ry="11.8"/>
<ellipse transform="matrix(7.374837e-02 -0.9973 0.9973 7.374837e-02 52.4885 676.426)" class="st3" cx="390.4" cy="310" rx="7.7" ry="7.6"/>
<path class="st4" d="M504.6,327.6c-4.4-1.3-8.7,2.3-8,6.9c0.3,2.3,2,4.3,4.3,5c4.4,1.3,8.7-2.3,8-6.9
	C508.6,330.2,506.9,328.3,504.6,327.6z"/>
<ellipse class="st1" cx="511.5" cy="365.8" rx="6.2" ry="6.2"/>
<path class="st5" d="M520,323.2c-1.4-2.2-2.9-4.4-4.9-6.3c-0.6,0.9-1.4,1.8-2.3,2.6c-1.2,1-2.5,1.9-3.8,2.4
	c-1.6-0.9-3.5-1.5-5.4-1.6c-4.7-0.3-9.2,1.8-11.7,5.6c-1.4,0-3-0.2-4.5-0.6c-1.3-0.4-2.6-1-3.8-1.7c0.2-0.7,0.2-1.4,0.3-2.1
	c1.1-14.3-9.7-26.7-23.9-27.7s-26.7,9.7-27.7,23.9c-0.7,9.8,4.2,19.3,12.6,24.2c-0.3,2-1.1,4.2-2.1,6.4c-1.1,2.2-2.3,4.4-3.7,6
	c-0.1,0.2-0.2,0.3-0.4,0.5l-2.3-0.2c-8.7-0.6-15.8,6-16.2,14.6c0,0.7-0.1,1.4-0.1,2.2c-2.1,0.8-4.6,1.4-7.1,1.7
	c-2.6,0.3-5.4,0.4-7.6,0.1c-0.4,0-0.7-0.1-1-0.2c-2.6-5-7.6-8.3-13.2-8.7c-1.8-0.1-3.7,0-5.5,0.6c-0.6-0.7-1.3-1.7-1.8-2.5
	c-0.4-0.9-0.8-2.1-1-3.1c3.5-2.8,5.6-7,6-11.5c0.4-5.1-1.6-10-5.4-13.4c0.2-1.7,0.9-3.6,1.7-5.4c0.7-1.5,1.7-3,2.8-4.2
	c0.4-0.2,0.9-0.3,1.3-0.5c8.1,0.7,15.2-5.3,15.8-13.5c0.6-8-5.4-15-13.5-15.6c-8-0.6-14.9,5.4-15.5,13.5c-0.3,4.5,1.4,8.7,4.6,11.8
	c-0.2,1.7-0.9,3.6-1.7,5.4c-0.8,1.7-2,3.4-3.1,4.6c-0.8-0.2-1.5-0.3-2.1-0.4c-7.5-0.6-14.4,4-16.8,11.2c-1.5,0.5-3.5,0.8-5.4,0.8
	c-1.8,0-3.6-0.3-5-0.7c-1.9-7.4-8.7-12.6-16.7-12.1c-6.9,0.4-12.9,5.3-14.6,12c-2.7,10.1,4.6,19.6,14.5,20.4
	c7.7,0.6,14.7-4.3,16.7-11.7c1.4-0.5,3.4-0.8,5.2-0.7c1.7,0,3.4,0.3,4.8,0.7c1.5,7.2,7.6,12.7,15,13.2c1.5,0.1,2.9,0,4.4-0.3
	c0.7,0.8,1.5,1.8,2,2.8c0.5,1,0.9,2.3,1,3.5c-3.9,3.9-5.8,9.4-4.5,15.1c1.4,6.2,6.4,11.2,12.7,12.4c9.7,1.9,18.6-5.1,19.4-14.5
	c0.1,0,0.2-0.1,0.3-0.1c2.1-0.8,4.8-1.4,7.4-1.8c2.6-0.3,5.4-0.4,7.6-0.1c0.5,0,1,0.2,1.4,0.2c2.8,4.2,7.3,6.9,12.4,7.2
	c2.2,0.2,4.3-0.1,6.4-0.8c0.2,0.1,0.3,0.2,0.5,0.3c1.6,1.2,3.3,3.1,4.7,5c1.5,1.9,2.7,4.1,3.4,6c0.1,0.1,0.1,0.2,0.2,0.4
	c-2.4,3-3.9,6.6-4.2,10.5c-0.8,10.5,7.1,19.7,17.6,20.5c11.1,0.8,20.8-8.1,20.5-19.7c-0.3-9.2-7.4-17.1-16.5-18.3
	c-3.6-0.5-7.1,0-10.4,1.6c-0.1,0-0.1-0.1-0.2-0.1c-1.6-1.2-3.3-3.1-4.7-5c-1.5-1.9-2.7-4.1-3.4-6c0-0.1-0.1-0.1-0.1-0.2
	c2.3-2.6,3.5-5.9,3.8-9.3c0.4-5.3-1.8-10.5-5.9-13.9c0-0.1,0-0.3,0-0.5c0.4-2.1,1.1-4.5,2.2-6.8c1.1-2.2,2.3-4.4,3.7-6l0.1-0.1
	c1.1,0.2,2.2,0.4,3.3,0.4c6.9,0.5,13.7-1.7,18.9-6.2c2.6-2.2,4.6-4.9,6.1-7.8c1.4,0,3,0.2,4.4,0.6c1.5,0.4,2.9,1.1,4.1,1.8
	c0.2,6.9,5.9,12.5,13,12.7c0,0,0,0,0,0c0.7,1.2,1.2,2.5,1.6,3.8c0.4,1.4,0.5,3,0.4,4.4c-3.4,2.2-5.5,5.8-5.8,9.8
	c-0.5,7.1,4.7,13.2,11.8,13.7c7.1,0.5,13.2-4.8,13.7-11.8s-4.6-13.1-11.6-13.7c-0.7-1.2-1.4-2.7-1.8-4.1c-0.4-1.6-0.6-3.4-0.4-4.7
	c3.1-2.3,5-5.7,5.3-9.6c0.2-2.2-0.3-4.4-1.1-6.4c0.7-1.2,1.7-2.4,2.8-3.4C518.5,324.2,519.2,323.7,520,323.2z M330.9,354.7
	c-5.8,0.1-10.1-5-9.2-10.7c0.7-4.3,4.5-7.6,8.9-7.7c5.8-0.1,10.1,5,9.2,10.7C339.1,351.3,335.3,354.6,330.9,354.7z M373.7,356
	c-6.8,0.9-12.2-5.3-10.5-11.9c1-3.8,4.4-6.7,8.3-7c6.3-0.6,11.4,5,10.2,11.3C380.9,352.4,377.6,355.5,373.7,356z M382.9,309.3
	c0.2-4.7,4.8-8.1,9.6-6.8c2.9,0.8,5.1,3.4,5.5,6.4c0.6,4.9-3.4,8.9-8.1,8.5C385.7,317.1,382.6,313.5,382.9,309.3z M390.8,389.8
	c-6.2,0.6-11-4.6-10.1-10.6c0.7-4.3,4.4-7.7,8.8-7.8c6-0.2,10.7,5.3,9.3,11.4C397.9,386.5,394.7,389.4,390.8,389.8z M466.1,398.2
	c6.6,0.5,11.7,6.3,11.2,13s-6.4,11.7-13,11.2c-6.6-0.5-11.7-6.3-11.2-13C453.6,402.8,459.4,397.7,466.1,398.2z M434.9,380.5
	c-4.4-0.7-7.8-4.6-7.9-9.1c-0.1-6.4,6.1-11.1,12.2-9.1c3.7,1.2,6.4,4.6,6.6,8.5C446.1,376.8,440.8,381.4,434.9,380.5z M470.4,334.1
	c-5.4,4.5-12.7,5.9-19.9,3.1c-4.9-2-8.7-6-10.3-11.1c-4.4-13.9,6.5-26.1,19.3-25.2c10.4,0.8,18.2,9.9,17.5,20.2
	C476.5,326.2,474.2,330.8,470.4,334.1z M501,339.5c-2.5-0.7-4.3-3-4.4-5.6c-0.2-3.9,3.1-7,7.1-6.5c2.6,0.4,4.8,2.5,5.2,5.1
	C509.6,337,505.4,340.7,501,339.5z M510.6,360.1c4.3-0.6,7.7,3.3,6.4,7.5c-0.6,2.1-2.5,3.7-4.6,4c-4.3,0.6-7.7-3.3-6.4-7.5
	C506.6,362,508.4,360.4,510.6,360.1z"/>
<path class="st7" d="M166,232.1c0-3.5-3.7-6.7-8.4-6.7h-39.1c-4.7,0-8.5,3.2-8.5,6.7v23.6c0,3.5,3.8,6.7,8.5,6.7h39.1
	c4.7,0,8.4-3.1,8.4-6.7V232.1z"/>
<path class="st7" d="M282.6,251.4c7.7-3,7.7-8,0-11.1l-106.2-42.2c-7.7-3-10.9-1.5-7.2,3.5l26,35.1c3.7,5,3.7,13.1,0,18.1l-26,35.2
	c-3.7,5-0.4,6.6,7.2,3.5L282.6,251.4z"/>
</svg>
