<?xml version="1.0" encoding="utf-8"?>
<!-- Generator: Adobe Illustrator 19.1.0, SVG Export Plug-In . SVG Version: 6.00 Build 0)  -->
<svg version="1.1" id="add-file" xmlns="http://www.w3.org/2000/svg" xmlns:xlink="http://www.w3.org/1999/xlink" x="0px" y="0px"
	 viewBox="-549 132.5 223.9 222.9" style="enable-background:new -549 132.5 223.9 222.9;" xml:space="preserve">
<style type="text/css">
	.st0{fill:#567C13;stroke:#000000;stroke-width:2;stroke-miterlimit:10;}
	.st1{fill:url(#SVGID_1_);stroke:#000000;stroke-width:2;stroke-miterlimit:10;}
	.st2{fill:url(#SVGID_2_);stroke:#000000;stroke-width:2;stroke-miterlimit:10;}
	.st3{fill:#2B6466;}
	.st4{fill:#363D4F;}
</style>
<g id="add-file_1_">
	<g>
		
			<image style="overflow:visible;opacity:0.74;enable-background:new    ;" width="242" height="244" xlink:href="F7F38B633B12F1E5.png"  transform="matrix(1 0 0 1 -558.8 122.55)">
		</image>
		<g>
			<ellipse class="st0" cx="-442.8" cy="239.9" rx="102" ry="102.6"/>
			
				<radialGradient id="SVGID_1_" cx="-1093.2849" cy="154.9006" r="1" gradientTransform="matrix(119.082 0 0 119.082 129746.0547 -18181.0762)" gradientUnits="userSpaceOnUse">
				<stop  offset="0" style="stop-color:#FFFFFF"/>
				<stop  offset="0.401" style="stop-color:#FDFDFD"/>
				<stop  offset="0.5454" style="stop-color:#F6F6F6"/>
				<stop  offset="0.6484" style="stop-color:#EBEBEB"/>
				<stop  offset="0.7317" style="stop-color:#DADADA"/>
				<stop  offset="0.803" style="stop-color:#C4C4C4"/>
				<stop  offset="0.8662" style="stop-color:#A8A8A8"/>
				<stop  offset="0.9233" style="stop-color:#888888"/>
				<stop  offset="0.974" style="stop-color:#646464"/>
				<stop  offset="1" style="stop-color:#4E4E4E"/>
			</radialGradient>
			<ellipse class="st1" cx="-442.8" cy="239.9" rx="102" ry="102.6"/>
		</g>
	</g>
	<ellipse class="st0" cx="-442.8" cy="239.9" rx="102" ry="102.6"/>
	
		<radialGradient id="SVGID_2_" cx="-1093.2849" cy="154.9006" r="1" gradientTransform="matrix(119.082 0 0 119.082 129746.0547 -18181.0762)" gradientUnits="userSpaceOnUse">
		<stop  offset="0" style="stop-color:#FFFFFF"/>
		<stop  offset="0.401" style="stop-color:#FDFDFD"/>
		<stop  offset="0.5454" style="stop-color:#F6F6F6"/>
		<stop  offset="0.6484" style="stop-color:#EBEBEB"/>
		<stop  offset="0.7317" style="stop-color:#DADADA"/>
		<stop  offset="0.803" style="stop-color:#C4C4C4"/>
		<stop  offset="0.8662" style="stop-color:#A8A8A8"/>
		<stop  offset="0.9233" style="stop-color:#888888"/>
		<stop  offset="0.974" style="stop-color:#646464"/>
		<stop  offset="1" style="stop-color:#4E4E4E"/>
	</radialGradient>
	<ellipse class="st2" cx="-443.6" cy="239.9" rx="90.1" ry="90.1"/>
	<polygon class="st3" points="-479.3,207.1 -414.6,207.1 -414.6,236.8 -406.3,236.8 -406.3,197.9 -487.6,197.9 -487.6,275.4 
		-446.9,275.4 -446.9,266.4 -479.3,266.4 	"/>
	<polygon class="st4" points="-391,264 -406.3,264 -406.3,247.4 -414.6,247.4 -414.6,264 -429.9,264 -429.9,273.1 -414.6,273.1 
		-414.6,289.9 -406.3,289.9 -406.3,273.1 -391,273.1 	"/>
	<rect x="-467.8" y="220.8" class="st3" width="35.2" height="9.1"/>
	<rect x="-467.8" y="239.1" class="st3" width="26.9" height="9.1"/>
</g>
</svg>
