<svg version="1.1" id="add-file" xmlns="http://www.w3.org/2000/svg" x="0" y="0" viewBox="-549 132.5 223.9 222.9" xml:space="preserve"><style type="text/css">
	.st0{fill:#85A838;stroke:#000000;stroke-width:2;stroke-miterlimit:10;}
	.st1{fill:url(#SVGID_1_);stroke:#000000;stroke-width:2;stroke-miterlimit:10;}
	.st2{fill:url(#SVGID_2_);stroke:#000000;stroke-width:2;stroke-miterlimit:10;}
	.st3{fill:#FFFFFF;}
	.st4{fill:#363D4F;}
</style><g id="add-file_1_"><ellipse class="st0" cx="-437" cy="243.9" rx="102" ry="102.6"/><radialGradient id="SVGID_1_" cx="-2182.02" cy="332.97" r="1" gradientTransform="matrix(119.082 0 0 -119.082 259400.0938 39919.5312)" gradientUnits="userSpaceOnUse"><stop offset="0" stop-color="#FFFFFF"/><stop offset="0.4" stop-color="#FDFDFD"/><stop offset="0.55" stop-color="#F6F6F6"/><stop offset="0.65" stop-color="#EBEBEB"/><stop offset="0.73" stop-color="#DADADA"/><stop offset="0.8" stop-color="#C4C4C4"/><stop offset="0.87" stop-color="#A8A8A8"/><stop offset="0.92" stop-color="#888888"/><stop offset="0.97" stop-color="#646464"/><stop offset="1" stop-color="#4E4E4E"/></radialGradient><ellipse class="st1" cx="-437" cy="243.9" rx="102" ry="102.6"/><ellipse class="st0" cx="-437" cy="243.9" rx="102" ry="102.6"/><radialGradient id="SVGID_2_" cx="-2182.02" cy="332.97" r="1" gradientTransform="matrix(119.082 0 0 -119.082 259400.0938 39919.5312)" gradientUnits="userSpaceOnUse"><stop offset="0" stop-color="#FFFFFF"/><stop offset="0.4" stop-color="#FDFDFD"/><stop offset="0.55" stop-color="#F6F6F6"/><stop offset="0.65" stop-color="#EBEBEB"/><stop offset="0.73" stop-color="#DADADA"/><stop offset="0.8" stop-color="#C4C4C4"/><stop offset="0.87" stop-color="#A8A8A8"/><stop offset="0.92" stop-color="#888888"/><stop offset="0.97" stop-color="#646464"/><stop offset="1" stop-color="#4E4E4E"/></radialGradient><ellipse class="st2" cx="-437.9" cy="243.9" rx="90.1" ry="90.1"/><polygon class="st3" points="-473.5 211.2 -408.9 211.2 -408.9 240.9 -400.5 240.9 -400.5 201.9 -481.9 201.9 -481.9 279.5 -441.1 279.5 -441.1 270.5 -473.5 270.5 "/><polygon class="st4" points="-385.2 268.1 -400.5 268.1 -400.5 251.4 -408.9 251.4 -408.9 268.1 -424.1 268.1 -424.1 277.2 -408.9 277.2 -408.9 294 -400.5 294 -400.5 277.2 -385.2 277.2 "/><rect x="-462" y="224.9" class="st3" width="35.2" height="9.1"/><rect x="-462" y="243.2" class="st3" width="26.9" height="9.1"/></g></svg>