<?xml version="1.0" encoding="utf-8"?>
<!-- Generator: Adobe Illustrator 19.1.0, SVG Export Plug-In . SVG Version: 6.00 Build 0)  -->
<svg version="1.1" id="add-file" xmlns="http://www.w3.org/2000/svg" xmlns:xlink="http://www.w3.org/1999/xlink" x="0px" y="0px"
	 viewBox="-549 132.5 223.9 222.9" style="enable-background:new -549 132.5 223.9 222.9;" xml:space="preserve">
<style type="text/css">
	.st0{fill:#567C13;stroke:#000000;stroke-width:2;stroke-miterlimit:10;}
	.st1{fill:url(#SVGID_1_);stroke:#000000;stroke-width:2;stroke-miterlimit:10;}
	.st2{fill:#567C13;stroke:#85A838;stroke-width:2;stroke-miterlimit:10;}
	.st3{fill:url(#SVGID_2_);stroke:#000000;stroke-width:2;stroke-miterlimit:10;}
	.st4{fill:#2B6466;}
	.st5{fill:#363D4F;}
</style>
<ellipse class="st0" cx="-437" cy="243.9" rx="102" ry="102.6"/>
<radialGradient id="SVGID_1_" cx="-3270.7998" cy="154.9262" r="1" gradientTransform="matrix(119.082 0 0 119.082 389054.125 -18180.0762)" gradientUnits="userSpaceOnUse">
	<stop  offset="0" style="stop-color:#FFFFFF"/>
	<stop  offset="0.4" style="stop-color:#FDFDFD"/>
	<stop  offset="0.55" style="stop-color:#F6F6F6"/>
	<stop  offset="0.65" style="stop-color:#EBEBEB"/>
	<stop  offset="0.73" style="stop-color:#DADADA"/>
	<stop  offset="0.8" style="stop-color:#C4C4C4"/>
	<stop  offset="0.87" style="stop-color:#A8A8A8"/>
	<stop  offset="0.92" style="stop-color:#888888"/>
	<stop  offset="0.97" style="stop-color:#646464"/>
	<stop  offset="1" style="stop-color:#4E4E4E"/>
</radialGradient>
<ellipse class="st1" cx="-437" cy="243.9" rx="102" ry="102.6"/>
<ellipse class="st2" cx="-437" cy="243.9" rx="102" ry="102.6"/>
<radialGradient id="SVGID_2_" cx="-3270.7998" cy="154.9262" r="1" gradientTransform="matrix(119.082 0 0 119.082 389054.125 -18180.0762)" gradientUnits="userSpaceOnUse">
	<stop  offset="0" style="stop-color:#FFFFFF"/>
	<stop  offset="0.4" style="stop-color:#FDFDFD"/>
	<stop  offset="0.55" style="stop-color:#F6F6F6"/>
	<stop  offset="0.65" style="stop-color:#EBEBEB"/>
	<stop  offset="0.73" style="stop-color:#DADADA"/>
	<stop  offset="0.8" style="stop-color:#C4C4C4"/>
	<stop  offset="0.87" style="stop-color:#A8A8A8"/>
	<stop  offset="0.92" style="stop-color:#888888"/>
	<stop  offset="0.97" style="stop-color:#646464"/>
	<stop  offset="1" style="stop-color:#4E4E4E"/>
</radialGradient>
<ellipse class="st3" cx="-437.9" cy="243.9" rx="90.1" ry="90.1"/>
<polygon class="st4" points="-473.5,211.2 -408.9,211.2 -408.9,240.9 -400.5,240.9 -400.5,201.9 -481.9,201.9 -481.9,279.6 
	-441.1,279.6 -441.1,270.6 -473.5,270.6 "/>
<polygon class="st5" points="-385.2,268.2 -400.5,268.2 -400.5,251.4 -408.9,251.4 -408.9,268.2 -424.1,268.2 -424.1,277.3 
	-408.9,277.3 -408.9,294.1 -400.5,294.1 -400.5,277.3 -385.2,277.3 "/>
<rect x="-462" y="224.9" class="st4" width="35.2" height="9.1"/>
<rect x="-462" y="243.2" class="st4" width="26.9" height="9.1"/>
</svg>
